Katahdin Round.ufo
<glyph name="exclam" format="1">
  <advance width="337"/>
  <unicode hex="0021"/>
  <outline>
    <contour>
      <point x="209" y="301" type="line" smooth="yes"/>
      <point x="208" y="272"/>
      <point x="192" y="257"/>
      <point x="163" y="257" type="curve" smooth="yes"/>
      <point x="109" y="257" type="line" smooth="yes"/>
      <point x="80" y="257"/>
      <point x="64" y="272"/>
      <point x="63" y="301" type="curve" smooth="yes"/>
      <point x="43" y="691" type="line" smooth="yes"/>
      <point x="42" y="722"/>
      <point x="56" y="737"/>
      <point x="87" y="737" type="curve" smooth="yes"/>
      <point x="184" y="737" type="line" smooth="yes"/>
      <point x="215" y="737"/>
      <point x="229" y="722"/>
      <point x="228" y="691" type="curve" smooth="yes"/>
    </contour>
    <contour>
      <point x="107" y="-16"/>
      <point x="80" y="-5"/>
      <point x="61" y="15" type="curve" smooth="yes"/>
      <point x="42" y="34"/>
      <point x="30" y="60"/>
      <point x="30" y="89" type="curve" smooth="yes"/>
      <point x="30" y="149"/>
      <point x="76" y="195"/>
      <point x="136" y="195" type="curve" smooth="yes"/>
      <point x="165" y="195"/>
      <point x="191" y="183"/>
      <point x="210" y="164" type="curve" smooth="yes"/>
      <point x="229" y="145"/>
      <point x="241" y="118"/>
      <point x="241" y="89" type="curve" smooth="yes"/>
      <point x="241" y="60"/>
      <point x="229" y="34"/>
      <point x="210" y="15" type="curve" smooth="yes"/>
      <point x="191" y="-5"/>
      <point x="165" y="-16"/>
      <point x="136" y="-16" type="curve" smooth="yes"/>
    </contour>
  </outline>
</glyph>
<glyph name="quotedbl" format="1">
  <advance width="448"/>
  <unicode hex="0022"/>
  <outline>
    <contour>
      <point x="196" y="664"/>
      <point x="196" y="662"/>
      <point x="195" y="660" type="curve"/>
      <point x="194" y="657"/>
      <point x="193" y="651"/>
      <point x="191" y="642" type="curve"/>
      <point x="188" y="632"/>
      <point x="185" y="618"/>
      <point x="180" y="599" type="curve" smooth="yes"/>
      <point x="175" y="580"/>
      <point x="169" y="554"/>
      <point x="161" y="521" type="curve" smooth="yes"/>
      <point x="154" y="492"/>
      <point x="137" y="477"/>
      <point x="110" y="477" type="curve" smooth="yes"/>
      <point x="99" y="477"/>
      <point x="91" y="490"/>
      <point x="84" y="516" type="curve" smooth="yes"/>
      <point x="48" y="665" type="line"/>
      <point x="47" y="670"/>
      <point x="46" y="675"/>
      <point x="46" y="682" type="curve" smooth="yes"/>
      <point x="46" y="738"/>
      <point x="79" y="764"/>
      <point x="122" y="764" type="curve" smooth="yes"/>
      <point x="165" y="764"/>
      <point x="197" y="738"/>
      <point x="197" y="682" type="curve" smooth="yes"/>
      <point x="197" y="679"/>
      <point x="197" y="676"/>
      <point x="197" y="674" type="curve" smooth="yes"/>
      <point x="197" y="672"/>
      <point x="197" y="669"/>
      <point x="196" y="665" type="curve"/>
    </contour>
    <contour>
      <point x="378" y="664"/>
      <point x="378" y="662"/>
      <point x="377" y="660" type="curve"/>
      <point x="376" y="657"/>
      <point x="375" y="651"/>
      <point x="373" y="642" type="curve"/>
      <point x="370" y="632"/>
      <point x="367" y="618"/>
      <point x="362" y="599" type="curve" smooth="yes"/>
      <point x="357" y="580"/>
      <point x="351" y="554"/>
      <point x="343" y="521" type="curve" smooth="yes"/>
      <point x="336" y="492"/>
      <point x="319" y="477"/>
      <point x="292" y="477" type="curve" smooth="yes"/>
      <point x="281" y="477"/>
      <point x="273" y="490"/>
      <point x="266" y="516" type="curve" smooth="yes"/>
      <point x="230" y="665" type="line"/>
      <point x="229" y="670"/>
      <point x="228" y="675"/>
      <point x="228" y="682" type="curve" smooth="yes"/>
      <point x="228" y="738"/>
      <point x="261" y="764"/>
      <point x="304" y="764" type="curve" smooth="yes"/>
      <point x="347" y="764"/>
      <point x="379" y="738"/>
      <point x="379" y="682" type="curve" smooth="yes"/>
      <point x="379" y="679"/>
      <point x="379" y="676"/>
      <point x="379" y="674" type="curve" smooth="yes"/>
      <point x="379" y="672"/>
      <point x="379" y="669"/>
      <point x="378" y="665" type="curve"/>
    </contour>
  </outline>
</glyph>
<glyph name="numbersign" format="1">
  <advance width="919"/>
  <unicode hex="0023"/>
  <outline>
    <contour>
      <point x="706" y="788" type="line" smooth="yes"/>
      <point x="739" y="788"/>
      <point x="752" y="772"/>
      <point x="746" y="739" type="curve" smooth="yes"/>
      <point x="712" y="564" type="line"/>
      <point x="813" y="564" type="line" smooth="yes"/>
      <point x="846" y="564"/>
      <point x="859" y="548"/>
      <point x="853" y="515" type="curve" smooth="yes"/>
      <point x="843" y="464" type="line" smooth="yes"/>
      <point x="838" y="437"/>
      <point x="822" y="424"/>
      <point x="794" y="424" type="curve" smooth="yes"/>
      <point x="684" y="424" type="line"/>
      <point x="656" y="282" type="line"/>
      <point x="757" y="282" type="line" smooth="yes"/>
      <point x="790" y="282"/>
      <point x="803" y="266"/>
      <point x="797" y="233" type="curve" smooth="yes"/>
      <point x="787" y="182" type="line" smooth="yes"/>
      <point x="782" y="155"/>
      <point x="766" y="142"/>
      <point x="738" y="142" type="curve" smooth="yes"/>
      <point x="628" y="142" type="line"/>
      <point x="598" y="-7" type="line" smooth="yes"/>
      <point x="593" y="-34"/>
      <point x="577" y="-47"/>
      <point x="549" y="-47" type="curve" smooth="yes"/>
      <point x="498" y="-47" type="line" smooth="yes"/>
      <point x="465" y="-47"/>
      <point x="452" y="-31"/>
      <point x="458" y="2" type="curve" smooth="yes"/>
      <point x="486" y="142" type="line"/>
      <point x="333" y="142" type="line"/>
      <point x="303" y="-7" type="line" smooth="yes"/>
      <point x="298" y="-34"/>
      <point x="282" y="-47"/>
      <point x="254" y="-47" type="curve" smooth="yes"/>
      <point x="203" y="-47" type="line" smooth="yes"/>
      <point x="170" y="-47"/>
      <point x="157" y="-31"/>
      <point x="163" y="2" type="curve" smooth="yes"/>
      <point x="190" y="142" type="line"/>
      <point x="80" y="142" type="line" smooth="yes"/>
      <point x="47" y="142"/>
      <point x="34" y="158"/>
      <point x="40" y="191" type="curve" smooth="yes"/>
      <point x="50" y="242" type="line" smooth="yes"/>
      <point x="55" y="269"/>
      <point x="71" y="282"/>
      <point x="99" y="282" type="curve" smooth="yes"/>
      <point x="218" y="282" type="line"/>
      <point x="246" y="424" type="line"/>
      <point x="136" y="424" type="line" smooth="yes"/>
      <point x="103" y="424"/>
      <point x="90" y="440"/>
      <point x="96" y="473" type="curve" smooth="yes"/>
      <point x="106" y="524" type="line" smooth="yes"/>
      <point x="111" y="551"/>
      <point x="127" y="564"/>
      <point x="155" y="564" type="curve" smooth="yes"/>
      <point x="274" y="564" type="line"/>
      <point x="311" y="748" type="line" smooth="yes"/>
      <point x="316" y="775"/>
      <point x="332" y="788"/>
      <point x="360" y="788" type="curve" smooth="yes"/>
      <point x="411" y="788" type="line" smooth="yes"/>
      <point x="444" y="788"/>
      <point x="457" y="772"/>
      <point x="451" y="739" type="curve" smooth="yes"/>
      <point x="416" y="564" type="line"/>
      <point x="570" y="564" type="line"/>
      <point x="606" y="748" type="line" smooth="yes"/>
      <point x="611" y="775"/>
      <point x="627" y="788"/>
      <point x="655" y="788" type="curve" smooth="yes"/>
    </contour>
    <contour>
      <point x="388" y="424" type="line"/>
      <point x="360" y="282" type="line"/>
      <point x="514" y="282" type="line"/>
      <point x="542" y="424" type="line"/>
    </contour>
  </outline>
</glyph>
<glyph name="dollar" format="1">
  <advance width="703"/>
  <unicode hex="0024"/>
  <outline>
    <contour>
      <point x="392" y="449"/>
      <point x="446" y="432"/>
      <point x="486" y="410" type="curve" smooth="yes"/>
      <point x="526" y="388"/>
      <point x="552" y="362"/>
      <point x="569" y="341" type="curve"/>
      <point x="604" y="294"/>
      <point x="618" y="240"/>
      <point x="609" y="184" type="curve" smooth="yes"/>
      <point x="602" y="137"/>
      <point x="577" y="95"/>
      <point x="538" y="66" type="curve" smooth="yes"/>
      <point x="503" y="39"/>
      <point x="458" y="21"/>
      <point x="402" y="14" type="curve"/>
      <point x="402" y="-26" type="line" smooth="yes"/>
      <point x="402" y="-56"/>
      <point x="387" y="-71"/>
      <point x="357" y="-71" type="curve" smooth="yes"/>
      <point x="281" y="-71" type="line" smooth="yes"/>
      <point x="251" y="-71"/>
      <point x="236" y="-56"/>
      <point x="236" y="-26" type="curve" smooth="yes"/>
      <point x="236" y="21" type="line"/>
      <point x="166" y="37"/>
      <point x="107" y="70"/>
      <point x="60" y="119" type="curve" smooth="yes"/>
      <point x="39" y="142"/>
      <point x="43" y="164"/>
      <point x="66" y="183" type="curve" smooth="yes"/>
      <point x="117" y="224" type="line" smooth="yes"/>
      <point x="138" y="241"/>
      <point x="159" y="239"/>
      <point x="180" y="218" type="curve"/>
      <point x="224" y="177"/>
      <point x="280" y="153"/>
      <point x="344" y="153" type="curve" smooth="yes"/>
      <point x="361" y="153"/>
      <point x="388" y="158"/>
      <point x="411" y="168" type="curve" smooth="yes"/>
      <point x="434" y="178"/>
      <point x="454" y="194"/>
      <point x="458" y="217" type="curve" smooth="yes"/>
      <point x="461" y="232"/>
      <point x="456" y="247"/>
      <point x="447" y="256" type="curve"/>
      <point x="440" y="261"/>
      <point x="429" y="271"/>
      <point x="406" y="280" type="curve"/>
      <point x="383" y="288"/>
      <point x="351" y="297"/>
      <point x="303" y="302" type="curve" smooth="yes"/>
      <point x="194" y="314"/>
      <point x="119" y="351"/>
      <point x="79" y="414" type="curve" smooth="yes"/>
      <point x="43" y="470"/>
      <point x="45" y="533"/>
      <point x="58" y="574" type="curve" smooth="yes"/>
      <point x="81" y="645"/>
      <point x="148" y="696"/>
      <point x="236" y="719" type="curve"/>
      <point x="236" y="766" type="line" smooth="yes"/>
      <point x="236" y="796"/>
      <point x="251" y="811"/>
      <point x="281" y="811" type="curve" smooth="yes"/>
      <point x="357" y="811" type="line" smooth="yes"/>
      <point x="387" y="811"/>
      <point x="402" y="796"/>
      <point x="402" y="766" type="curve" smooth="yes"/>
      <point x="402" y="721" type="line"/>
      <point x="466" y="706"/>
      <point x="515" y="677"/>
      <point x="550" y="649" type="curve"/>
      <point x="573" y="629"/>
      <point x="571" y="605"/>
      <point x="548" y="585" type="curve" smooth="yes"/>
      <point x="501" y="546" type="line"/>
      <point x="480" y="527"/>
      <point x="461" y="530"/>
      <point x="438" y="546" type="curve" smooth="yes"/>
      <point x="409" y="567"/>
      <point x="371" y="585"/>
      <point x="323" y="585" type="curve" smooth="yes"/>
      <point x="282" y="585"/>
      <point x="255" y="576"/>
      <point x="238" y="565" type="curve"/>
      <point x="221" y="553"/>
      <point x="214" y="541"/>
      <point x="210" y="534" type="curve"/>
      <point x="197" y="509"/>
      <point x="213" y="487"/>
      <point x="250" y="473" type="curve" smooth="yes"/>
      <point x="269" y="466"/>
      <point x="292" y="460"/>
      <point x="320" y="457" type="curve" smooth="yes"/>
    </contour>
  </outline>
</glyph>
<glyph name="percent" format="1">
  <advance width="1009"/>
  <unicode hex="0025"/>
  <outline>
    <contour>
      <point x="409" y="505"/>
      <point x="388" y="458"/>
      <point x="355" y="425" type="curve" smooth="yes"/>
      <point x="322" y="392"/>
      <point x="276" y="371"/>
      <point x="225" y="371" type="curve" smooth="yes"/>
      <point x="174" y="371"/>
      <point x="127" y="392"/>
      <point x="94" y="425" type="curve" smooth="yes"/>
      <point x="61" y="458"/>
      <point x="40" y="505"/>
      <point x="40" y="556" type="curve" smooth="yes"/>
      <point x="40" y="607"/>
      <point x="61" y="654"/>
      <point x="94" y="687" type="curve" smooth="yes"/>
      <point x="127" y="720"/>
      <point x="174" y="741"/>
      <point x="225" y="741" type="curve" smooth="yes"/>
      <point x="276" y="741"/>
      <point x="322" y="720"/>
      <point x="355" y="687" type="curve" smooth="yes"/>
      <point x="388" y="654"/>
      <point x="409" y="607"/>
      <point x="409" y="556" type="curve" smooth="yes"/>
    </contour>
    <contour>
      <point x="585" y="709" type="line" smooth="yes"/>
      <point x="596" y="730"/>
      <point x="614" y="741"/>
      <point x="638" y="741" type="curve" smooth="yes"/>
      <point x="707" y="741" type="line" smooth="yes"/>
      <point x="743" y="741"/>
      <point x="756" y="719"/>
      <point x="739" y="687" type="curve" smooth="yes"/>
      <point x="385" y="32" type="line" smooth="yes"/>
      <point x="374" y="11"/>
      <point x="356" y="0"/>
      <point x="332" y="0" type="curve" smooth="yes"/>
      <point x="263" y="0" type="line" smooth="yes"/>
      <point x="227" y="0"/>
      <point x="214" y="22"/>
      <point x="231" y="54" type="curve" smooth="yes"/>
    </contour>
    <contour>
      <point x="165" y="523"/>
      <point x="192" y="497"/>
      <point x="225" y="497" type="curve" smooth="yes"/>
      <point x="257" y="497"/>
      <point x="284" y="523"/>
      <point x="284" y="556" type="curve" smooth="yes"/>
      <point x="284" y="589"/>
      <point x="257" y="615"/>
      <point x="225" y="615" type="curve" smooth="yes"/>
      <point x="192" y="615"/>
      <point x="165" y="589"/>
      <point x="165" y="556" type="curve" smooth="yes"/>
    </contour>
    <contour>
      <point x="800" y="370"/>
      <point x="847" y="349"/>
      <point x="880" y="316" type="curve" smooth="yes"/>
      <point x="913" y="283"/>
      <point x="934" y="237"/>
      <point x="934" y="186" type="curve" smooth="yes"/>
      <point x="934" y="135"/>
      <point x="913" y="88"/>
      <point x="880" y="55" type="curve" smooth="yes"/>
      <point x="847" y="22"/>
      <point x="800" y="1"/>
      <point x="749" y="1" type="curve" smooth="yes"/>
      <point x="698" y="1"/>
      <point x="652" y="22"/>
      <point x="619" y="55" type="curve" smooth="yes"/>
      <point x="586" y="88"/>
      <point x="565" y="135"/>
      <point x="565" y="186" type="curve" smooth="yes"/>
      <point x="565" y="237"/>
      <point x="586" y="283"/>
      <point x="619" y="316" type="curve" smooth="yes"/>
      <point x="652" y="349"/>
      <point x="698" y="370"/>
      <point x="749" y="370" type="curve" smooth="yes"/>
    </contour>
    <contour>
      <point x="782" y="126"/>
      <point x="809" y="153"/>
      <point x="809" y="186" type="curve" smooth="yes"/>
      <point x="809" y="218"/>
      <point x="782" y="245"/>
      <point x="749" y="245" type="curve" smooth="yes"/>
      <point x="716" y="245"/>
      <point x="690" y="218"/>
      <point x="690" y="186" type="curve" smooth="yes"/>
      <point x="690" y="153"/>
      <point x="716" y="126"/>
      <point x="749" y="126" type="curve" smooth="yes"/>
    </contour>
  </outline>
</glyph>
<glyph name="ampersand" format="1">
  <advance width="875"/>
  <unicode hex="0026"/>
  <outline>
    <contour>
      <point x="708" y="282" type="line" smooth="yes"/>
      <point x="729" y="260"/>
      <point x="730" y="239"/>
      <point x="709" y="218" type="curve" smooth="yes"/>
      <point x="694" y="203"/>
      <point x="675" y="185"/>
      <point x="652" y="166" type="curve"/>
      <point x="753" y="55" type="line" smooth="yes"/>
      <point x="780" y="26"/>
      <point x="768" y="0"/>
      <point x="728" y="0" type="curve" smooth="yes"/>
      <point x="629" y="0" type="line" smooth="yes"/>
      <point x="606" y="0"/>
      <point x="588" y="8"/>
      <point x="574" y="24" type="curve"/>
      <point x="525" y="76" type="line"/>
      <point x="504" y="57"/>
      <point x="478" y="36"/>
      <point x="445" y="18" type="curve" smooth="yes"/>
      <point x="412" y="0"/>
      <point x="369" y="-14"/>
      <point x="312" y="-14" type="curve" smooth="yes"/>
      <point x="257" y="-14"/>
      <point x="190" y="-3"/>
      <point x="137" y="29" type="curve" smooth="yes"/>
      <point x="84" y="60"/>
      <point x="44" y="110"/>
      <point x="44" y="187" type="curve" smooth="yes"/>
      <point x="44" y="234"/>
      <point x="69" y="275"/>
      <point x="105" y="311" type="curve" smooth="yes"/>
      <point x="140" y="346"/>
      <point x="186" y="376"/>
      <point x="230" y="399" type="curve"/>
      <point x="209" y="426"/>
      <point x="186" y="452"/>
      <point x="170" y="479" type="curve" smooth="yes"/>
      <point x="153" y="506"/>
      <point x="142" y="533"/>
      <point x="142" y="562" type="curve" smooth="yes"/>
      <point x="142" y="678"/>
      <point x="224" y="756"/>
      <point x="379" y="756" type="curve" smooth="yes"/>
      <point x="452" y="756"/>
      <point x="508" y="731"/>
      <point x="545" y="694" type="curve" smooth="yes"/>
      <point x="581" y="657"/>
      <point x="599" y="609"/>
      <point x="599" y="562" type="curve" smooth="yes"/>
      <point x="599" y="506"/>
      <point x="566" y="460"/>
      <point x="531" y="428" type="curve" smooth="yes"/>
      <point x="511" y="409"/>
      <point x="489" y="392"/>
      <point x="464" y="377" type="curve"/>
      <point x="552" y="277" type="line"/>
      <point x="563" y="285"/>
      <point x="574" y="294"/>
      <point x="586" y="304" type="curve" smooth="yes"/>
      <point x="592" y="309"/>
      <point x="599" y="314"/>
      <point x="606" y="320" type="curve" smooth="yes"/>
      <point x="629" y="340"/>
      <point x="650" y="340"/>
      <point x="670" y="320" type="curve" smooth="yes"/>
    </contour>
    <contour>
      <point x="384" y="481"/>
      <point x="404" y="494"/>
      <point x="418" y="510" type="curve" smooth="yes"/>
      <point x="432" y="525"/>
      <point x="442" y="542"/>
      <point x="442" y="562" type="curve" smooth="yes"/>
      <point x="442" y="582"/>
      <point x="437" y="602"/>
      <point x="426" y="616" type="curve"/>
      <point x="414" y="630"/>
      <point x="397" y="639"/>
      <point x="370" y="636" type="curve" smooth="yes"/>
      <point x="323" y="632"/>
      <point x="305" y="606"/>
      <point x="305" y="566" type="curve" smooth="yes"/>
      <point x="305" y="550"/>
      <point x="316" y="531"/>
      <point x="329" y="515" type="curve" smooth="yes"/>
      <point x="336" y="506"/>
      <point x="343" y="498"/>
      <point x="350" y="491" type="curve" smooth="yes"/>
      <point x="357" y="484"/>
      <point x="363" y="477"/>
      <point x="368" y="472" type="curve"/>
    </contour>
    <contour>
      <point x="346" y="139"/>
      <point x="372" y="151"/>
      <point x="392" y="163" type="curve" smooth="yes"/>
      <point x="404" y="170"/>
      <point x="415" y="179"/>
      <point x="424" y="188" type="curve"/>
      <point x="319" y="299" type="line"/>
      <point x="282" y="282"/>
      <point x="255" y="262"/>
      <point x="235" y="238" type="curve" smooth="yes"/>
      <point x="225" y="226"/>
      <point x="220" y="213"/>
      <point x="220" y="200" type="curve" smooth="yes"/>
      <point x="220" y="173"/>
      <point x="233" y="158"/>
      <point x="253" y="150" type="curve"/>
      <point x="272" y="141"/>
      <point x="295" y="139"/>
      <point x="315" y="139" type="curve" smooth="yes"/>
    </contour>
  </outline>
</glyph>
<glyph name="quotesingle" format="1">
  <advance width="249"/>
  <unicode hex="0027"/>
  <outline>
    <contour>
      <point x="186" y="664"/>
      <point x="186" y="662"/>
      <point x="185" y="660" type="curve"/>
      <point x="184" y="657"/>
      <point x="183" y="651"/>
      <point x="181" y="642" type="curve"/>
      <point x="178" y="632"/>
      <point x="175" y="618"/>
      <point x="170" y="599" type="curve" smooth="yes"/>
      <point x="165" y="580"/>
      <point x="159" y="554"/>
      <point x="151" y="521" type="curve" smooth="yes"/>
      <point x="144" y="492"/>
      <point x="127" y="477"/>
      <point x="100" y="477" type="curve" smooth="yes"/>
      <point x="89" y="477"/>
      <point x="81" y="490"/>
      <point x="74" y="516" type="curve" smooth="yes"/>
      <point x="38" y="665" type="line"/>
      <point x="37" y="670"/>
      <point x="36" y="675"/>
      <point x="36" y="682" type="curve" smooth="yes"/>
      <point x="36" y="738"/>
      <point x="69" y="764"/>
      <point x="112" y="764" type="curve" smooth="yes"/>
      <point x="155" y="764"/>
      <point x="187" y="738"/>
      <point x="187" y="682" type="curve" smooth="yes"/>
      <point x="187" y="679"/>
      <point x="187" y="676"/>
      <point x="187" y="674" type="curve" smooth="yes"/>
      <point x="187" y="672"/>
      <point x="187" y="669"/>
      <point x="186" y="665" type="curve"/>
    </contour>
  </outline>
</glyph>
<glyph name="parenleft" format="1">
  <advance width="376"/>
  <unicode hex="0028"/>
  <outline>
    <contour>
      <point x="240" y="-96" type="line" smooth="yes"/>
      <point x="191" y="-116"/>
      <point x="170" y="-74"/>
      <point x="135" y="-22" type="curve" smooth="yes"/>
      <point x="100" y="29"/>
      <point x="69" y="103"/>
      <point x="47" y="199" type="curve" smooth="yes"/>
      <point x="36" y="247"/>
      <point x="30" y="301"/>
      <point x="30" y="360" type="curve" smooth="yes"/>
      <point x="30" y="479"/>
      <point x="58" y="579"/>
      <point x="92" y="656" type="curve" smooth="yes"/>
      <point x="126" y="733"/>
      <point x="166" y="789"/>
      <point x="191" y="820" type="curve" smooth="yes"/>
      <point x="207" y="839"/>
      <point x="227" y="843"/>
      <point x="252" y="833" type="curve" smooth="yes"/>
      <point x="288" y="818" type="line" smooth="yes"/>
      <point x="318" y="805"/>
      <point x="324" y="784"/>
      <point x="306" y="757" type="curve" smooth="yes"/>
      <point x="283" y="721"/>
      <point x="253" y="665"/>
      <point x="227" y="596" type="curve" smooth="yes"/>
      <point x="201" y="527"/>
      <point x="180" y="445"/>
      <point x="180" y="360" type="curve" smooth="yes"/>
      <point x="180" y="276"/>
      <point x="198" y="198"/>
      <point x="222" y="132" type="curve" smooth="yes"/>
      <point x="245" y="66"/>
      <point x="274" y="12"/>
      <point x="294" y="-21" type="curve"/>
      <point x="312" y="-48"/>
      <point x="306" y="-68"/>
      <point x="276" y="-81" type="curve" smooth="yes"/>
    </contour>
  </outline>
</glyph>
<glyph name="parenright" format="1">
  <advance width="376"/>
  <unicode hex="0029"/>
  <outline>
    <contour>
      <point x="58" y="-81" type="line" smooth="yes"/>
      <point x="28" y="-68"/>
      <point x="22" y="-48"/>
      <point x="40" y="-21" type="curve"/>
      <point x="60" y="12"/>
      <point x="89" y="66"/>
      <point x="113" y="132" type="curve" smooth="yes"/>
      <point x="136" y="198"/>
      <point x="154" y="276"/>
      <point x="154" y="360" type="curve" smooth="yes"/>
      <point x="154" y="445"/>
      <point x="134" y="527"/>
      <point x="108" y="596" type="curve" smooth="yes"/>
      <point x="82" y="665"/>
      <point x="49" y="721"/>
      <point x="28" y="757" type="curve"/>
      <point x="10" y="784"/>
      <point x="16" y="805"/>
      <point x="46" y="818" type="curve" smooth="yes"/>
      <point x="82" y="833" type="line" smooth="yes"/>
      <point x="131" y="853"/>
      <point x="153" y="811"/>
      <point x="190" y="756" type="curve" smooth="yes"/>
      <point x="226" y="700"/>
      <point x="262" y="623"/>
      <point x="286" y="524" type="curve" smooth="yes"/>
      <point x="298" y="474"/>
      <point x="304" y="419"/>
      <point x="304" y="360" type="curve" smooth="yes"/>
      <point x="304" y="241"/>
      <point x="279" y="147"/>
      <point x="248" y="73" type="curve" smooth="yes"/>
      <point x="217" y="-1"/>
      <point x="179" y="-54"/>
      <point x="155" y="-83" type="curve" smooth="yes"/>
      <point x="139" y="-102"/>
      <point x="119" y="-106"/>
      <point x="94" y="-96" type="curve" smooth="yes"/>
    </contour>
  </outline>
</glyph>
<glyph name="asterisk" format="1">
  <advance width="455"/>
  <unicode hex="002A"/>
  <outline>
    <contour>
      <point x="85" y="443"/>
      <point x="81" y="463"/>
      <point x="98" y="488" type="curve" smooth="yes"/>
      <point x="133" y="541" type="line"/>
      <point x="72" y="564" type="line" smooth="yes"/>
      <point x="16" y="584"/>
      <point x="44" y="669"/>
      <point x="100" y="650" type="curve"/>
      <point x="161" y="632" type="line"/>
      <point x="162" y="693" type="line" smooth="yes"/>
      <point x="162" y="723"/>
      <point x="177" y="738"/>
      <point x="207" y="738" type="curve" smooth="yes"/>
      <point x="208" y="738" type="line" smooth="yes"/>
      <point x="238" y="738"/>
      <point x="253" y="723"/>
      <point x="253" y="693" type="curve" smooth="yes"/>
      <point x="254" y="632" type="line"/>
      <point x="314" y="650" type="line" smooth="yes"/>
      <point x="371" y="669"/>
      <point x="398" y="584"/>
      <point x="343" y="564" type="curve" smooth="yes"/>
      <point x="281" y="541" type="line"/>
      <point x="316" y="488" type="line" smooth="yes"/>
      <point x="349" y="439"/>
      <point x="279" y="391"/>
      <point x="244" y="438" type="curve" smooth="yes"/>
      <point x="207" y="486" type="line"/>
      <point x="171" y="438" type="line" smooth="yes"/>
      <point x="153" y="415"/>
      <point x="132" y="411"/>
      <point x="109" y="427" type="curve" smooth="yes"/>
    </contour>
  </outline>
</glyph>
<glyph name="plus" format="1">
  <advance width="578"/>
  <unicode hex="002B"/>
  <outline>
    <contour>
      <point x="225" y="147" type="line" smooth="yes"/>
      <point x="195" y="147"/>
      <point x="180" y="162"/>
      <point x="180" y="192" type="curve" smooth="yes"/>
      <point x="180" y="297" type="line"/>
      <point x="75" y="297" type="line" smooth="yes"/>
      <point x="45" y="297"/>
      <point x="30" y="312"/>
      <point x="30" y="342" type="curve" smooth="yes"/>
      <point x="30" y="392" type="line" smooth="yes"/>
      <point x="30" y="422"/>
      <point x="45" y="437"/>
      <point x="75" y="437" type="curve" smooth="yes"/>
      <point x="180" y="437" type="line"/>
      <point x="180" y="542" type="line" smooth="yes"/>
      <point x="180" y="572"/>
      <point x="195" y="587"/>
      <point x="225" y="587" type="curve" smooth="yes"/>
      <point x="275" y="587" type="line" smooth="yes"/>
      <point x="305" y="587"/>
      <point x="320" y="572"/>
      <point x="320" y="542" type="curve" smooth="yes"/>
      <point x="320" y="437" type="line"/>
      <point x="425" y="437" type="line" smooth="yes"/>
      <point x="455" y="437"/>
      <point x="470" y="422"/>
      <point x="470" y="392" type="curve" smooth="yes"/>
      <point x="470" y="342" type="line" smooth="yes"/>
      <point x="470" y="312"/>
      <point x="455" y="297"/>
      <point x="425" y="297" type="curve" smooth="yes"/>
      <point x="320" y="297" type="line"/>
      <point x="320" y="192" type="line" smooth="yes"/>
      <point x="320" y="162"/>
      <point x="305" y="147"/>
      <point x="275" y="147" type="curve" smooth="yes"/>
    </contour>
  </outline>
</glyph>
<glyph name="comma" format="1">
  <advance width="344"/>
  <unicode hex="002C"/>
  <outline>
    <contour>
      <point x="103" y="-4"/>
      <point x="78" y="7"/>
      <point x="59" y="24" type="curve" smooth="yes"/>
      <point x="40" y="41"/>
      <point x="30" y="65"/>
      <point x="30" y="88" type="curve" smooth="yes"/>
      <point x="30" y="117"/>
      <point x="42" y="144"/>
      <point x="62" y="164" type="curve" smooth="yes"/>
      <point x="81" y="183"/>
      <point x="108" y="195"/>
      <point x="137" y="195" type="curve" smooth="yes"/>
      <point x="166" y="195"/>
      <point x="194" y="183"/>
      <point x="214" y="164" type="curve"/>
      <point x="233" y="144"/>
      <point x="245" y="117"/>
      <point x="245" y="88" type="curve" smooth="yes"/>
      <point x="245" y="51"/>
      <point x="228" y="11"/>
      <point x="217" y="-8" type="curve" smooth="yes"/>
      <point x="212" y="-16"/>
      <point x="198" y="-35"/>
      <point x="179" y="-55" type="curve" smooth="yes"/>
      <point x="160" y="-75"/>
      <point x="139" y="-97"/>
      <point x="120" y="-106" type="curve" smooth="yes"/>
      <point x="109" y="-111"/>
      <point x="94" y="-117"/>
      <point x="81" y="-119" type="curve" smooth="yes"/>
      <point x="68" y="-121"/>
      <point x="57" y="-118"/>
      <point x="56" y="-106" type="curve" smooth="yes"/>
      <point x="55" y="-93"/>
      <point x="65" y="-87"/>
      <point x="81" y="-75" type="curve" smooth="yes"/>
      <point x="97" y="-63"/>
      <point x="117" y="-45"/>
      <point x="133" y="-6" type="curve"/>
      <point x="134" y="-5"/>
      <point x="134" y="-3"/>
      <point x="134" y="-1" type="curve" smooth="yes"/>
      <point x="134" y="0" type="line"/>
    </contour>
  </outline>
</glyph>
<glyph name="hyphen" format="1">
  <advance width="589"/>
  <unicode hex="002D"/>
  <outline>
    <contour>
      <point x="427" y="437" type="line" smooth="yes"/>
      <point x="457" y="437"/>
      <point x="472" y="422"/>
      <point x="472" y="392" type="curve" smooth="yes"/>
      <point x="472" y="342" type="line" smooth="yes"/>
      <point x="472" y="312"/>
      <point x="457" y="297"/>
      <point x="427" y="297" type="curve" smooth="yes"/>
      <point x="77" y="297" type="line" smooth="yes"/>
      <point x="47" y="297"/>
      <point x="32" y="312"/>
      <point x="32" y="342" type="curve" smooth="yes"/>
      <point x="32" y="392" type="line" smooth="yes"/>
      <point x="32" y="422"/>
      <point x="47" y="437"/>
      <point x="77" y="437" type="curve" smooth="yes"/>
    </contour>
  </outline>
</glyph>
<glyph name="period" format="1">
  <advance width="334"/>
  <unicode hex="002E"/>
  <outline>
    <contour>
      <point x="127" y="-16"/>
      <point x="100" y="-5"/>
      <point x="81" y="15" type="curve" smooth="yes"/>
      <point x="62" y="34"/>
      <point x="50" y="60"/>
      <point x="50" y="89" type="curve" smooth="yes"/>
      <point x="50" y="149"/>
      <point x="96" y="195"/>
      <point x="156" y="195" type="curve" smooth="yes"/>
      <point x="185" y="195"/>
      <point x="211" y="183"/>
      <point x="230" y="164" type="curve" smooth="yes"/>
      <point x="249" y="145"/>
      <point x="261" y="118"/>
      <point x="261" y="89" type="curve" smooth="yes"/>
      <point x="261" y="60"/>
      <point x="249" y="34"/>
      <point x="230" y="15" type="curve" smooth="yes"/>
      <point x="211" y="-5"/>
      <point x="185" y="-16"/>
      <point x="156" y="-16" type="curve" smooth="yes"/>
    </contour>
  </outline>
</glyph>
<glyph name="zero" format="1">
  <advance width="815"/>
  <unicode hex="0030"/>
  <outline>
    <contour>
      <point x="492" y="759"/>
      <point x="576" y="713"/>
      <point x="636" y="642" type="curve" smooth="yes"/>
      <point x="695" y="570"/>
      <point x="729" y="473"/>
      <point x="729" y="370" type="curve" smooth="yes"/>
      <point x="729" y="270"/>
      <point x="702" y="173"/>
      <point x="646" y="101" type="curve" smooth="yes"/>
      <point x="590" y="29"/>
      <point x="505" y="-18"/>
      <point x="392" y="-18" type="curve" smooth="yes"/>
      <point x="287" y="-18"/>
      <point x="202" y="25"/>
      <point x="145" y="95" type="curve" smooth="yes"/>
      <point x="88" y="165"/>
      <point x="56" y="262"/>
      <point x="56" y="370" type="curve" smooth="yes"/>
      <point x="56" y="467"/>
      <point x="86" y="563"/>
      <point x="143" y="635" type="curve" smooth="yes"/>
      <point x="199" y="707"/>
      <point x="284" y="756"/>
      <point x="392" y="759" type="curve" smooth="yes"/>
    </contour>
    <contour>
      <point x="453" y="161"/>
      <point x="490" y="191"/>
      <point x="511" y="232" type="curve" smooth="yes"/>
      <point x="532" y="272"/>
      <point x="539" y="325"/>
      <point x="539" y="370" type="curve" smooth="yes"/>
      <point x="539" y="409"/>
      <point x="528" y="461"/>
      <point x="504" y="504" type="curve" smooth="yes"/>
      <point x="480" y="547"/>
      <point x="444" y="580"/>
      <point x="392" y="580" type="curve" smooth="yes"/>
      <point x="343" y="580"/>
      <point x="306" y="550"/>
      <point x="282" y="508" type="curve" smooth="yes"/>
      <point x="257" y="466"/>
      <point x="245" y="413"/>
      <point x="245" y="370" type="curve" smooth="yes"/>
      <point x="245" y="325"/>
      <point x="252" y="272"/>
      <point x="273" y="232" type="curve" smooth="yes"/>
      <point x="294" y="191"/>
      <point x="332" y="161"/>
      <point x="392" y="161" type="curve" smooth="yes"/>
    </contour>
  </outline>
</glyph>
<glyph name="one" format="1">
  <advance width="498"/>
  <unicode hex="0031"/>
  <outline>
    <contour>
      <point x="99" y="513" type="line" smooth="yes"/>
      <point x="60" y="513"/>
      <point x="49" y="537"/>
      <point x="72" y="568" type="curve" smooth="yes"/>
      <point x="184" y="713" type="line" smooth="yes"/>
      <point x="198" y="731"/>
      <point x="216" y="740"/>
      <point x="239" y="740" type="curve" smooth="yes"/>
      <point x="326" y="740" type="line" smooth="yes"/>
      <point x="356" y="740"/>
      <point x="371" y="725"/>
      <point x="371" y="695" type="curve" smooth="yes"/>
      <point x="371" y="45" type="line" smooth="yes"/>
      <point x="371" y="15"/>
      <point x="356" y="0"/>
      <point x="326" y="0" type="curve" smooth="yes"/>
      <point x="227" y="0" type="line" smooth="yes"/>
      <point x="197" y="0"/>
      <point x="182" y="15"/>
      <point x="182" y="45" type="curve" smooth="yes"/>
      <point x="182" y="513" type="line"/>
    </contour>
  </outline>
</glyph>
<glyph name="two" format="1">
  <advance width="686"/>
  <unicode hex="0032"/>
  <outline>
    <contour>
      <point x="484" y="304"/>
      <point x="456" y="280"/>
      <point x="426" y="255" type="curve" smooth="yes"/>
      <point x="396" y="230"/>
      <point x="361" y="203"/>
      <point x="332" y="180" type="curve"/>
      <point x="557" y="180" type="line" smooth="yes"/>
      <point x="587" y="180"/>
      <point x="602" y="165"/>
      <point x="602" y="135" type="curve" smooth="yes"/>
      <point x="602" y="45" type="line" smooth="yes"/>
      <point x="602" y="15"/>
      <point x="587" y="0"/>
      <point x="557" y="0" type="curve" smooth="yes"/>
      <point x="86" y="0" type="line" smooth="yes"/>
      <point x="56" y="0"/>
      <point x="41" y="15"/>
      <point x="41" y="45" type="curve" smooth="yes"/>
      <point x="41" y="94" type="line" smooth="yes"/>
      <point x="41" y="119"/>
      <point x="47" y="137"/>
      <point x="56" y="150" type="curve"/>
      <point x="64" y="163"/>
      <point x="75" y="172"/>
      <point x="86" y="181" type="curve" smooth="yes"/>
      <point x="106" y="198"/>
      <point x="130" y="219"/>
      <point x="159" y="244" type="curve" smooth="yes"/>
      <point x="216" y="292"/>
      <point x="276" y="344"/>
      <point x="328" y="391" type="curve" smooth="yes"/>
      <point x="354" y="414"/>
      <point x="375" y="434"/>
      <point x="390" y="449" type="curve" smooth="yes"/>
      <point x="398" y="457"/>
      <point x="406" y="469"/>
      <point x="411" y="482" type="curve"/>
      <point x="415" y="495"/>
      <point x="416" y="511"/>
      <point x="411" y="524" type="curve" smooth="yes"/>
      <point x="402" y="547"/>
      <point x="374" y="571"/>
      <point x="325" y="571" type="curve" smooth="yes"/>
      <point x="298" y="571"/>
      <point x="275" y="560"/>
      <point x="255" y="544" type="curve" smooth="yes"/>
      <point x="234" y="528"/>
      <point x="217" y="507"/>
      <point x="202" y="487" type="curve" smooth="yes"/>
      <point x="184" y="463"/>
      <point x="163" y="459"/>
      <point x="139" y="476" type="curve" smooth="yes"/>
      <point x="57" y="533" type="line" smooth="yes"/>
      <point x="6" y="566"/>
      <point x="52" y="607"/>
      <point x="77" y="640" type="curve" smooth="yes"/>
      <point x="89" y="656"/>
      <point x="102" y="670"/>
      <point x="115" y="681" type="curve" smooth="yes"/>
      <point x="178" y="734"/>
      <point x="248" y="761"/>
      <point x="325" y="761" type="curve" smooth="yes"/>
      <point x="384" y="761"/>
      <point x="437" y="745"/>
      <point x="482" y="717" type="curve" smooth="yes"/>
      <point x="526" y="688"/>
      <point x="561" y="646"/>
      <point x="581" y="597" type="curve" smooth="yes"/>
      <point x="600" y="550"/>
      <point x="604" y="503"/>
      <point x="594" y="456" type="curve" smooth="yes"/>
      <point x="583" y="408"/>
      <point x="543" y="363"/>
      <point x="504" y="324" type="curve" smooth="yes"/>
    </contour>
  </outline>
</glyph>
<glyph name="three" format="1">
  <advance width="705"/>
  <unicode hex="0033"/>
  <outline>
    <contour>
      <point x="540" y="363"/>
      <point x="571" y="330"/>
      <point x="589" y="289" type="curve" smooth="yes"/>
      <point x="607" y="248"/>
      <point x="613" y="195"/>
      <point x="598" y="150" type="curve" smooth="yes"/>
      <point x="586" y="110"/>
      <point x="563" y="68"/>
      <point x="521" y="36" type="curve" smooth="yes"/>
      <point x="479" y="4"/>
      <point x="418" y="-19"/>
      <point x="333" y="-19" type="curve" smooth="yes"/>
      <point x="256" y="-19"/>
      <point x="199" y="0"/>
      <point x="159" y="27" type="curve" smooth="yes"/>
      <point x="118" y="54"/>
      <point x="91" y="88"/>
      <point x="71" y="117" type="curve"/>
      <point x="64" y="126"/>
      <point x="58" y="138"/>
      <point x="55" y="150" type="curve"/>
      <point x="51" y="161"/>
      <point x="53" y="172"/>
      <point x="65" y="180" type="curve"/>
      <point x="159" y="236" type="line" smooth="yes"/>
      <point x="183" y="251"/>
      <point x="204" y="247"/>
      <point x="221" y="224" type="curve" smooth="yes"/>
      <point x="245" y="193"/>
      <point x="278" y="161"/>
      <point x="333" y="158" type="curve" smooth="yes"/>
      <point x="360" y="157"/>
      <point x="384" y="165"/>
      <point x="402" y="178" type="curve" smooth="yes"/>
      <point x="420" y="191"/>
      <point x="431" y="208"/>
      <point x="432" y="227" type="curve"/>
      <point x="433" y="236"/>
      <point x="433" y="252"/>
      <point x="423" y="266" type="curve" smooth="yes"/>
      <point x="413" y="280"/>
      <point x="393" y="292"/>
      <point x="357" y="299" type="curve" smooth="yes"/>
      <point x="326" y="304"/>
      <point x="310" y="317"/>
      <point x="310" y="345" type="curve" smooth="yes"/>
      <point x="310" y="392" type="line" smooth="yes"/>
      <point x="310" y="420"/>
      <point x="325" y="432"/>
      <point x="356" y="439" type="curve" smooth="yes"/>
      <point x="392" y="446"/>
      <point x="411" y="459"/>
      <point x="421" y="475" type="curve" smooth="yes"/>
      <point x="431" y="490"/>
      <point x="431" y="506"/>
      <point x="430" y="515" type="curve"/>
      <point x="427" y="531"/>
      <point x="417" y="549"/>
      <point x="400" y="562" type="curve"/>
      <point x="383" y="574"/>
      <point x="360" y="583"/>
      <point x="333" y="582" type="curve" smooth="yes"/>
      <point x="280" y="579"/>
      <point x="248" y="553"/>
      <point x="221" y="520" type="curve" smooth="yes"/>
      <point x="203" y="497"/>
      <point x="182" y="493"/>
      <point x="159" y="506" type="curve" smooth="yes"/>
      <point x="79" y="554" type="line" smooth="yes"/>
      <point x="52" y="570"/>
      <point x="41" y="581"/>
      <point x="56" y="602" type="curve" smooth="yes"/>
      <point x="75" y="630"/>
      <point x="102" y="667"/>
      <point x="143" y="699" type="curve" smooth="yes"/>
      <point x="184" y="730"/>
      <point x="239" y="756"/>
      <point x="318" y="761" type="curve" smooth="yes"/>
      <point x="406" y="766"/>
      <point x="471" y="742"/>
      <point x="517" y="708" type="curve" smooth="yes"/>
      <point x="563" y="674"/>
      <point x="588" y="631"/>
      <point x="596" y="603" type="curve" smooth="yes"/>
      <point x="609" y="552"/>
      <point x="606" y="501"/>
      <point x="588" y="458" type="curve" smooth="yes"/>
      <point x="570" y="415"/>
      <point x="540" y="383"/>
      <point x="504" y="371" type="curve"/>
    </contour>
  </outline>
</glyph>
<glyph name="four" format="1">
  <advance width="741"/>
  <unicode hex="0034"/>
  <outline>
    <contour>
      <point x="497" y="740" type="line" smooth="yes"/>
      <point x="527" y="740"/>
      <point x="542" y="725"/>
      <point x="542" y="695" type="curve" smooth="yes"/>
      <point x="542" y="311" type="line"/>
      <point x="586" y="311" type="line" smooth="yes"/>
      <point x="616" y="311"/>
      <point x="631" y="296"/>
      <point x="631" y="266" type="curve" smooth="yes"/>
      <point x="631" y="202" type="line" smooth="yes"/>
      <point x="631" y="172"/>
      <point x="616" y="157"/>
      <point x="586" y="157" type="curve" smooth="yes"/>
      <point x="542" y="157" type="line"/>
      <point x="542" y="45" type="line" smooth="yes"/>
      <point x="542" y="15"/>
      <point x="527" y="0"/>
      <point x="497" y="0" type="curve" smooth="yes"/>
      <point x="413" y="0" type="line" smooth="yes"/>
      <point x="383" y="0"/>
      <point x="368" y="15"/>
      <point x="368" y="45" type="curve" smooth="yes"/>
      <point x="368" y="157" type="line"/>
      <point x="75" y="157" type="line" smooth="yes"/>
      <point x="45" y="157"/>
      <point x="30" y="172"/>
      <point x="30" y="202" type="curve" smooth="yes"/>
      <point x="30" y="279" type="line" smooth="yes"/>
      <point x="30" y="300"/>
      <point x="37" y="319"/>
      <point x="50" y="335" type="curve" smooth="yes"/>
      <point x="366" y="714" type="line" smooth="yes"/>
      <point x="381" y="733"/>
      <point x="397" y="740"/>
      <point x="421" y="740" type="curve" smooth="yes"/>
    </contour>
    <contour>
      <point x="219" y="311" type="line"/>
      <point x="368" y="311" type="line"/>
      <point x="368" y="485" type="line"/>
    </contour>
  </outline>
</glyph>
<glyph name="five" format="1">
  <advance width="719"/>
  <unicode hex="0035"/>
  <outline>
    <contour>
      <point x="434" y="514"/>
      <point x="510" y="476"/>
      <point x="550" y="420" type="curve" smooth="yes"/>
      <point x="582" y="377"/>
      <point x="598" y="325"/>
      <point x="601" y="273" type="curve" smooth="yes"/>
      <point x="604" y="221"/>
      <point x="592" y="168"/>
      <point x="569" y="123" type="curve" smooth="yes"/>
      <point x="520" y="27"/>
      <point x="433" y="-19"/>
      <point x="318" y="-19" type="curve" smooth="yes"/>
      <point x="301" y="-19" type="line"/>
      <point x="200" y="-14"/>
      <point x="121" y="27"/>
      <point x="58" y="99" type="curve" smooth="yes"/>
      <point x="39" y="122"/>
      <point x="44" y="145"/>
      <point x="68" y="162" type="curve" smooth="yes"/>
      <point x="151" y="218" type="line" smooth="yes"/>
      <point x="175" y="234"/>
      <point x="194" y="230"/>
      <point x="213" y="207" type="curve"/>
      <point x="238" y="180"/>
      <point x="267" y="161"/>
      <point x="310" y="160" type="curve" smooth="yes"/>
      <point x="363" y="159"/>
      <point x="396" y="174"/>
      <point x="414" y="198" type="curve" smooth="yes"/>
      <point x="432" y="221"/>
      <point x="435" y="252"/>
      <point x="430" y="287" type="curve" smooth="yes"/>
      <point x="426" y="320"/>
      <point x="395" y="351"/>
      <point x="355" y="364" type="curve" smooth="yes"/>
      <point x="315" y="376"/>
      <point x="264" y="372"/>
      <point x="217" y="336" type="curve" smooth="yes"/>
      <point x="197" y="321"/>
      <point x="181" y="314"/>
      <point x="157" y="319" type="curve" smooth="yes"/>
      <point x="84" y="335" type="line" smooth="yes"/>
      <point x="55" y="341"/>
      <point x="44" y="358"/>
      <point x="49" y="387" type="curve" smooth="yes"/>
      <point x="104" y="699" type="line" smooth="yes"/>
      <point x="109" y="726"/>
      <point x="125" y="740"/>
      <point x="152" y="740" type="curve" smooth="yes"/>
      <point x="511" y="740" type="line" smooth="yes"/>
      <point x="541" y="740"/>
      <point x="556" y="725"/>
      <point x="556" y="695" type="curve" smooth="yes"/>
      <point x="556" y="620" type="line" smooth="yes"/>
      <point x="556" y="590"/>
      <point x="541" y="575"/>
      <point x="511" y="575" type="curve" smooth="yes"/>
      <point x="239" y="575" type="line"/>
      <point x="222" y="463" type="line"/>
      <point x="223" y="464"/>
      <point x="226" y="467"/>
      <point x="231" y="472" type="curve" smooth="yes"/>
      <point x="241" y="482"/>
      <point x="261" y="493"/>
      <point x="290" y="503" type="curve" smooth="yes"/>
      <point x="305" y="508"/>
      <point x="322" y="510"/>
      <point x="341" y="511" type="curve" smooth="yes"/>
    </contour>
  </outline>
</glyph>
<glyph name="six" format="1">
  <advance width="683"/>
  <unicode hex="0036"/>
  <outline>
    <contour>
      <point x="303" y="464" type="line"/>
      <point x="319" y="473"/>
      <point x="353" y="475"/>
      <point x="393" y="466" type="curve" smooth="yes"/>
      <point x="432" y="457"/>
      <point x="477" y="437"/>
      <point x="511" y="401" type="curve" smooth="yes"/>
      <point x="545" y="365"/>
      <point x="569" y="314"/>
      <point x="569" y="242" type="curve" smooth="yes"/>
      <point x="569" y="170"/>
      <point x="542" y="105"/>
      <point x="496" y="58" type="curve" smooth="yes"/>
      <point x="450" y="10"/>
      <point x="384" y="-19"/>
      <point x="307" y="-19" type="curve" smooth="yes"/>
      <point x="223" y="-19"/>
      <point x="159" y="13"/>
      <point x="115" y="58" type="curve" smooth="yes"/>
      <point x="71" y="102"/>
      <point x="46" y="161"/>
      <point x="41" y="216" type="curve" smooth="yes"/>
      <point x="38" y="260"/>
      <point x="40" y="325"/>
      <point x="77" y="393" type="curve" smooth="yes"/>
      <point x="247" y="709" type="line" smooth="yes"/>
      <point x="258" y="730"/>
      <point x="276" y="741"/>
      <point x="300" y="741" type="curve" smooth="yes"/>
      <point x="395" y="741" type="line" smooth="yes"/>
      <point x="430" y="741"/>
      <point x="445" y="718"/>
      <point x="426" y="687" type="curve"/>
    </contour>
    <contour>
      <point x="342" y="149"/>
      <point x="364" y="160"/>
      <point x="379" y="180" type="curve" smooth="yes"/>
      <point x="394" y="199"/>
      <point x="399" y="225"/>
      <point x="399" y="253" type="curve" smooth="yes"/>
      <point x="399" y="312"/>
      <point x="358" y="339"/>
      <point x="309" y="339" type="curve" smooth="yes"/>
      <point x="260" y="339"/>
      <point x="223" y="298"/>
      <point x="220" y="245" type="curve" smooth="yes"/>
      <point x="219" y="220"/>
      <point x="225" y="197"/>
      <point x="240" y="179" type="curve" smooth="yes"/>
      <point x="255" y="161"/>
      <point x="276" y="149"/>
      <point x="307" y="149" type="curve" smooth="yes"/>
    </contour>
  </outline>
</glyph>
<glyph name="seven" format="1">
  <advance width="607"/>
  <unicode hex="0037"/>
  <outline>
    <contour>
      <point x="86" y="575" type="line" smooth="yes"/>
      <point x="56" y="575"/>
      <point x="41" y="590"/>
      <point x="41" y="620" type="curve" smooth="yes"/>
      <point x="41" y="695" type="line" smooth="yes"/>
      <point x="41" y="725"/>
      <point x="56" y="740"/>
      <point x="86" y="740" type="curve" smooth="yes"/>
      <point x="488" y="740" type="line" smooth="yes"/>
      <point x="518" y="740"/>
      <point x="533" y="725"/>
      <point x="533" y="695" type="curve" smooth="yes"/>
      <point x="533" y="627" type="line" smooth="yes"/>
      <point x="533" y="604"/>
      <point x="530" y="590"/>
      <point x="519" y="571" type="curve"/>
      <point x="236" y="32" type="line" smooth="yes"/>
      <point x="225" y="11"/>
      <point x="207" y="0"/>
      <point x="183" y="0" type="curve" smooth="yes"/>
      <point x="91" y="0" type="line" smooth="yes"/>
      <point x="55" y="0"/>
      <point x="42" y="22"/>
      <point x="59" y="54" type="curve" smooth="yes"/>
      <point x="337" y="575" type="line"/>
    </contour>
  </outline>
</glyph>
<glyph name="eight" format="1">
  <advance width="716"/>
  <unicode hex="0038"/>
  <outline>
    <contour>
      <point x="542" y="376"/>
      <point x="569" y="347"/>
      <point x="586" y="315" type="curve" smooth="yes"/>
      <point x="602" y="283"/>
      <point x="611" y="248"/>
      <point x="611" y="217" type="curve" smooth="yes"/>
      <point x="611" y="149"/>
      <point x="583" y="90"/>
      <point x="535" y="48" type="curve" smooth="yes"/>
      <point x="486" y="6"/>
      <point x="414" y="-19"/>
      <point x="326" y="-19" type="curve" smooth="yes"/>
      <point x="238" y="-19"/>
      <point x="166" y="6"/>
      <point x="117" y="48" type="curve" smooth="yes"/>
      <point x="68" y="90"/>
      <point x="40" y="149"/>
      <point x="40" y="217" type="curve" smooth="yes"/>
      <point x="40" y="248"/>
      <point x="47" y="284"/>
      <point x="63" y="316" type="curve" smooth="yes"/>
      <point x="79" y="348"/>
      <point x="105" y="376"/>
      <point x="142" y="392" type="curve"/>
      <point x="111" y="411"/>
      <point x="93" y="436"/>
      <point x="82" y="462" type="curve" smooth="yes"/>
      <point x="71" y="488"/>
      <point x="67" y="516"/>
      <point x="67" y="541" type="curve" smooth="yes"/>
      <point x="67" y="605"/>
      <point x="96" y="659"/>
      <point x="142" y="698" type="curve" smooth="yes"/>
      <point x="188" y="737"/>
      <point x="253" y="760"/>
      <point x="326" y="760" type="curve" smooth="yes"/>
      <point x="399" y="760"/>
      <point x="464" y="737"/>
      <point x="510" y="698" type="curve" smooth="yes"/>
      <point x="556" y="659"/>
      <point x="584" y="605"/>
      <point x="584" y="541" type="curve" smooth="yes"/>
      <point x="584" y="516"/>
      <point x="579" y="486"/>
      <point x="567" y="459" type="curve" smooth="yes"/>
      <point x="555" y="431"/>
      <point x="537" y="407"/>
      <point x="509" y="392" type="curve"/>
    </contour>
    <contour>
      <point x="353" y="459"/>
      <point x="377" y="468"/>
      <point x="394" y="482" type="curve" smooth="yes"/>
      <point x="411" y="496"/>
      <point x="422" y="515"/>
      <point x="422" y="535" type="curve" smooth="yes"/>
      <point x="422" y="578"/>
      <point x="391" y="611"/>
      <point x="326" y="611" type="curve" smooth="yes"/>
      <point x="259" y="611"/>
      <point x="229" y="580"/>
      <point x="229" y="535" type="curve" smooth="yes"/>
      <point x="229" y="514"/>
      <point x="240" y="494"/>
      <point x="257" y="481" type="curve" smooth="yes"/>
      <point x="274" y="468"/>
      <point x="299" y="459"/>
      <point x="326" y="459" type="curve" smooth="yes"/>
    </contour>
    <contour>
      <point x="354" y="146"/>
      <point x="379" y="155"/>
      <point x="398" y="171" type="curve" smooth="yes"/>
      <point x="417" y="186"/>
      <point x="428" y="206"/>
      <point x="428" y="227" type="curve" smooth="yes"/>
      <point x="428" y="271"/>
      <point x="395" y="307"/>
      <point x="326" y="307" type="curve" smooth="yes"/>
      <point x="255" y="307"/>
      <point x="224" y="274"/>
      <point x="224" y="227" type="curve" smooth="yes"/>
      <point x="224" y="180"/>
      <point x="269" y="146"/>
      <point x="326" y="146" type="curve" smooth="yes"/>
    </contour>
  </outline>
</glyph>
<glyph name="nine" format="1">
  <advance width="631"/>
  <unicode hex="0039"/>
  <outline>
    <contour>
      <point x="376" y="759"/>
      <point x="440" y="728"/>
      <point x="484" y="683" type="curve" smooth="yes"/>
      <point x="528" y="638"/>
      <point x="553" y="580"/>
      <point x="558" y="525" type="curve" smooth="yes"/>
      <point x="561" y="481"/>
      <point x="559" y="416"/>
      <point x="522" y="348" type="curve" smooth="yes"/>
      <point x="352" y="32" type="line" smooth="yes"/>
      <point x="341" y="11"/>
      <point x="323" y="0"/>
      <point x="299" y="0" type="curve" smooth="yes"/>
      <point x="204" y="0" type="line" smooth="yes"/>
      <point x="168" y="0"/>
      <point x="155" y="23"/>
      <point x="172" y="54" type="curve" smooth="yes"/>
      <point x="296" y="276" type="line"/>
      <point x="280" y="267"/>
      <point x="246" y="265"/>
      <point x="207" y="274" type="curve" smooth="yes"/>
      <point x="167" y="283"/>
      <point x="123" y="304"/>
      <point x="89" y="340" type="curve" smooth="yes"/>
      <point x="55" y="376"/>
      <point x="30" y="427"/>
      <point x="30" y="499" type="curve" smooth="yes"/>
      <point x="30" y="571"/>
      <point x="58" y="636"/>
      <point x="104" y="683" type="curve" smooth="yes"/>
      <point x="150" y="730"/>
      <point x="215" y="759"/>
      <point x="292" y="759" type="curve" smooth="yes"/>
    </contour>
    <contour>
      <point x="339" y="402"/>
      <point x="376" y="443"/>
      <point x="379" y="495" type="curve" smooth="yes"/>
      <point x="380" y="520"/>
      <point x="374" y="545"/>
      <point x="359" y="562" type="curve" smooth="yes"/>
      <point x="344" y="579"/>
      <point x="321" y="591"/>
      <point x="292" y="591" type="curve" smooth="yes"/>
      <point x="257" y="591"/>
      <point x="235" y="580"/>
      <point x="220" y="561" type="curve" smooth="yes"/>
      <point x="205" y="541"/>
      <point x="200" y="515"/>
      <point x="200" y="487" type="curve" smooth="yes"/>
      <point x="200" y="430"/>
      <point x="241" y="402"/>
      <point x="290" y="402" type="curve" smooth="yes"/>
    </contour>
  </outline>
</glyph>
<glyph name="colon" format="1">
  <advance width="373"/>
  <unicode hex="003A"/>
  <outline>
    <contour>
      <point x="127" y="489"/>
      <point x="100" y="500"/>
      <point x="81" y="520" type="curve" smooth="yes"/>
      <point x="62" y="539"/>
      <point x="50" y="565"/>
      <point x="50" y="594" type="curve" smooth="yes"/>
      <point x="50" y="654"/>
      <point x="96" y="700"/>
      <point x="156" y="700" type="curve" smooth="yes"/>
      <point x="185" y="700"/>
      <point x="211" y="688"/>
      <point x="230" y="669" type="curve" smooth="yes"/>
      <point x="249" y="650"/>
      <point x="261" y="623"/>
      <point x="261" y="594" type="curve" smooth="yes"/>
      <point x="261" y="565"/>
      <point x="249" y="539"/>
      <point x="230" y="520" type="curve" smooth="yes"/>
      <point x="211" y="500"/>
      <point x="185" y="489"/>
      <point x="156" y="489" type="curve" smooth="yes"/>
    </contour>
    <contour>
      <point x="127" y="34"/>
      <point x="100" y="45"/>
      <point x="81" y="65" type="curve" smooth="yes"/>
      <point x="62" y="84"/>
      <point x="50" y="110"/>
      <point x="50" y="139" type="curve" smooth="yes"/>
      <point x="50" y="199"/>
      <point x="96" y="245"/>
      <point x="156" y="245" type="curve" smooth="yes"/>
      <point x="185" y="245"/>
      <point x="211" y="233"/>
      <point x="230" y="214" type="curve" smooth="yes"/>
      <point x="249" y="195"/>
      <point x="261" y="168"/>
      <point x="261" y="139" type="curve" smooth="yes"/>
      <point x="261" y="110"/>
      <point x="249" y="84"/>
      <point x="230" y="65" type="curve" smooth="yes"/>
      <point x="211" y="45"/>
      <point x="185" y="34"/>
      <point x="156" y="34" type="curve" smooth="yes"/>
    </contour>
  </outline>
</glyph>
<glyph name="semicolon" format="1">
  <advance width="373"/>
  <unicode hex="003B"/>
  <outline>
    <contour>
      <point x="127" y="489"/>
      <point x="100" y="500"/>
      <point x="81" y="520" type="curve" smooth="yes"/>
      <point x="62" y="539"/>
      <point x="50" y="565"/>
      <point x="50" y="594" type="curve" smooth="yes"/>
      <point x="50" y="654"/>
      <point x="96" y="700"/>
      <point x="156" y="700" type="curve" smooth="yes"/>
      <point x="185" y="700"/>
      <point x="211" y="688"/>
      <point x="230" y="669" type="curve" smooth="yes"/>
      <point x="249" y="650"/>
      <point x="261" y="623"/>
      <point x="261" y="594" type="curve" smooth="yes"/>
      <point x="261" y="565"/>
      <point x="249" y="539"/>
      <point x="230" y="520" type="curve" smooth="yes"/>
      <point x="211" y="500"/>
      <point x="185" y="489"/>
      <point x="156" y="489" type="curve" smooth="yes"/>
    </contour>
    <contour>
      <point x="154" y="50" type="line"/>
      <point x="123" y="46"/>
      <point x="98" y="57"/>
      <point x="79" y="74" type="curve" smooth="yes"/>
      <point x="60" y="91"/>
      <point x="50" y="115"/>
      <point x="50" y="138" type="curve" smooth="yes"/>
      <point x="50" y="167"/>
      <point x="62" y="194"/>
      <point x="82" y="214" type="curve" smooth="yes"/>
      <point x="101" y="233"/>
      <point x="128" y="245"/>
      <point x="157" y="245" type="curve" smooth="yes"/>
      <point x="186" y="245"/>
      <point x="214" y="233"/>
      <point x="234" y="214" type="curve"/>
      <point x="253" y="194"/>
      <point x="265" y="167"/>
      <point x="265" y="138" type="curve" smooth="yes"/>
      <point x="265" y="101"/>
      <point x="248" y="61"/>
      <point x="237" y="42" type="curve" smooth="yes"/>
      <point x="232" y="34"/>
      <point x="218" y="15"/>
      <point x="199" y="-5" type="curve" smooth="yes"/>
      <point x="180" y="-25"/>
      <point x="159" y="-47"/>
      <point x="140" y="-56" type="curve" smooth="yes"/>
      <point x="129" y="-61"/>
      <point x="114" y="-67"/>
      <point x="101" y="-69" type="curve" smooth="yes"/>
      <point x="88" y="-71"/>
      <point x="77" y="-68"/>
      <point x="76" y="-56" type="curve" smooth="yes"/>
      <point x="75" y="-43"/>
      <point x="85" y="-37"/>
      <point x="101" y="-25" type="curve" smooth="yes"/>
      <point x="117" y="-13"/>
      <point x="137" y="5"/>
      <point x="153" y="44" type="curve"/>
      <point x="154" y="45"/>
      <point x="154" y="47"/>
      <point x="154" y="49" type="curve" smooth="yes"/>
    </contour>
  </outline>
</glyph>
<glyph name="less" format="1">
  <advance width="509"/>
  <unicode hex="003C"/>
  <outline>
    <contour>
      <point x="411" y="131" type="line" smooth="yes"/>
      <point x="411" y="96"/>
      <point x="389" y="83"/>
      <point x="358" y="98" type="curve" smooth="yes"/>
      <point x="75" y="239" type="line" smooth="yes"/>
      <point x="53" y="250"/>
      <point x="42" y="267"/>
      <point x="42" y="292" type="curve" smooth="yes"/>
      <point x="42" y="420" type="line" smooth="yes"/>
      <point x="42" y="445"/>
      <point x="53" y="462"/>
      <point x="75" y="473" type="curve" smooth="yes"/>
      <point x="358" y="614" type="line" smooth="yes"/>
      <point x="389" y="629"/>
      <point x="411" y="616"/>
      <point x="411" y="581" type="curve" smooth="yes"/>
      <point x="411" y="522" type="line" smooth="yes"/>
      <point x="411" y="498"/>
      <point x="400" y="480"/>
      <point x="379" y="469" type="curve" smooth="yes"/>
      <point x="157" y="356" type="line"/>
      <point x="379" y="243" type="line" smooth="yes"/>
      <point x="400" y="232"/>
      <point x="411" y="214"/>
      <point x="411" y="190" type="curve" smooth="yes"/>
    </contour>
  </outline>
</glyph>
<glyph name="equal" format="1">
  <advance width="530"/>
  <unicode hex="003D"/>
  <outline>
    <contour>
      <point x="377" y="551" type="line" smooth="yes"/>
      <point x="407" y="551"/>
      <point x="422" y="536"/>
      <point x="422" y="506" type="curve" smooth="yes"/>
      <point x="422" y="457" type="line" smooth="yes"/>
      <point x="422" y="427"/>
      <point x="407" y="412"/>
      <point x="377" y="412" type="curve" smooth="yes"/>
      <point x="75" y="412" type="line" smooth="yes"/>
      <point x="45" y="412"/>
      <point x="30" y="427"/>
      <point x="30" y="457" type="curve" smooth="yes"/>
      <point x="30" y="506" type="line" smooth="yes"/>
      <point x="30" y="536"/>
      <point x="45" y="551"/>
      <point x="75" y="551" type="curve" smooth="yes"/>
    </contour>
    <contour>
      <point x="377" y="321" type="line" smooth="yes"/>
      <point x="407" y="321"/>
      <point x="422" y="306"/>
      <point x="422" y="276" type="curve" smooth="yes"/>
      <point x="422" y="226" type="line" smooth="yes"/>
      <point x="422" y="196"/>
      <point x="407" y="181"/>
      <point x="377" y="181" type="curve" smooth="yes"/>
      <point x="75" y="181" type="line" smooth="yes"/>
      <point x="45" y="181"/>
      <point x="30" y="196"/>
      <point x="30" y="226" type="curve" smooth="yes"/>
      <point x="30" y="276" type="line" smooth="yes"/>
      <point x="30" y="306"/>
      <point x="45" y="321"/>
      <point x="75" y="321" type="curve" smooth="yes"/>
    </contour>
  </outline>
</glyph>
<glyph name="greater" format="1">
  <advance width="509"/>
  <unicode hex="003E"/>
  <outline>
    <contour>
      <point x="42" y="190" type="line" smooth="yes"/>
      <point x="42" y="214"/>
      <point x="53" y="232"/>
      <point x="74" y="243" type="curve" smooth="yes"/>
      <point x="296" y="356" type="line"/>
      <point x="74" y="469" type="line" smooth="yes"/>
      <point x="53" y="480"/>
      <point x="42" y="498"/>
      <point x="42" y="522" type="curve" smooth="yes"/>
      <point x="42" y="581" type="line" smooth="yes"/>
      <point x="42" y="616"/>
      <point x="64" y="629"/>
      <point x="95" y="614" type="curve" smooth="yes"/>
      <point x="378" y="473" type="line" smooth="yes"/>
      <point x="400" y="462"/>
      <point x="411" y="445"/>
      <point x="411" y="420" type="curve" smooth="yes"/>
      <point x="411" y="292" type="line" smooth="yes"/>
      <point x="411" y="267"/>
      <point x="400" y="250"/>
      <point x="378" y="239" type="curve" smooth="yes"/>
      <point x="95" y="98" type="line" smooth="yes"/>
      <point x="64" y="83"/>
      <point x="42" y="96"/>
      <point x="42" y="131" type="curve" smooth="yes"/>
    </contour>
  </outline>
</glyph>
<glyph name="question" format="1">
  <advance width="589"/>
  <unicode hex="003F"/>
  <outline>
    <contour>
      <point x="251" y="599"/>
      <point x="213" y="570"/>
      <point x="185" y="538" type="curve"/>
      <point x="168" y="517"/>
      <point x="147" y="512"/>
      <point x="124" y="523" type="curve" smooth="yes"/>
      <point x="72" y="548" type="line" smooth="yes"/>
      <point x="45" y="561"/>
      <point x="37" y="583"/>
      <point x="54" y="608" type="curve"/>
      <point x="71" y="636"/>
      <point x="101" y="673"/>
      <point x="142" y="703" type="curve" smooth="yes"/>
      <point x="182" y="733"/>
      <point x="233" y="756"/>
      <point x="296" y="756" type="curve" smooth="yes"/>
      <point x="348" y="756"/>
      <point x="397" y="742"/>
      <point x="437" y="716" type="curve" smooth="yes"/>
      <point x="477" y="690"/>
      <point x="507" y="652"/>
      <point x="520" y="604" type="curve" smooth="yes"/>
      <point x="536" y="541"/>
      <point x="523" y="492"/>
      <point x="501" y="454" type="curve" smooth="yes"/>
      <point x="479" y="416"/>
      <point x="447" y="389"/>
      <point x="427" y="374" type="curve" smooth="yes"/>
      <point x="396" y="351"/>
      <point x="368" y="324"/>
      <point x="353" y="297" type="curve" smooth="yes"/>
      <point x="342" y="276"/>
      <point x="337" y="257"/>
      <point x="308" y="257" type="curve" smooth="yes"/>
      <point x="233" y="257" type="line" smooth="yes"/>
      <point x="204" y="257"/>
      <point x="188" y="264"/>
      <point x="188" y="292" type="curve" smooth="yes"/>
      <point x="188" y="345"/>
      <point x="231" y="401"/>
      <point x="303" y="461" type="curve"/>
      <point x="307" y="464"/>
      <point x="313" y="469"/>
      <point x="321" y="476" type="curve"/>
      <point x="336" y="488"/>
      <point x="352" y="504"/>
      <point x="361" y="523" type="curve" smooth="yes"/>
      <point x="370" y="542"/>
      <point x="367" y="561"/>
      <point x="345" y="583" type="curve" smooth="yes"/>
      <point x="334" y="594"/>
      <point x="317" y="599"/>
      <point x="296" y="599" type="curve" smooth="yes"/>
    </contour>
    <contour>
      <point x="382" y="60"/>
      <point x="370" y="34"/>
      <point x="351" y="15" type="curve" smooth="yes"/>
      <point x="332" y="-5"/>
      <point x="305" y="-16"/>
      <point x="276" y="-16" type="curve" smooth="yes"/>
      <point x="247" y="-16"/>
      <point x="221" y="-5"/>
      <point x="202" y="15" type="curve"/>
      <point x="182" y="34"/>
      <point x="171" y="60"/>
      <point x="171" y="89" type="curve" smooth="yes"/>
      <point x="171" y="118"/>
      <point x="182" y="145"/>
      <point x="202" y="164" type="curve" smooth="yes"/>
      <point x="221" y="183"/>
      <point x="247" y="195"/>
      <point x="276" y="195" type="curve" smooth="yes"/>
      <point x="336" y="195"/>
      <point x="382" y="149"/>
      <point x="382" y="89" type="curve" smooth="yes"/>
    </contour>
  </outline>
</glyph>
<glyph name="at" format="1">
  <advance width="902"/>
  <unicode hex="0040"/>
  <outline>
    <contour>
      <point x="332" y="-17"/>
      <point x="229" y="23"/>
      <point x="153" y="92" type="curve" smooth="yes"/>
      <point x="77" y="161"/>
      <point x="30" y="260"/>
      <point x="30" y="377" type="curve" smooth="yes"/>
      <point x="30" y="494"/>
      <point x="77" y="592"/>
      <point x="153" y="661" type="curve" smooth="yes"/>
      <point x="229" y="730"/>
      <point x="332" y="770"/>
      <point x="444" y="770" type="curve" smooth="yes"/>
      <point x="552" y="770"/>
      <point x="650" y="733"/>
      <point x="722" y="669" type="curve" smooth="yes"/>
      <point x="793" y="604"/>
      <point x="837" y="512"/>
      <point x="837" y="404" type="curve" smooth="yes"/>
      <point x="837" y="337"/>
      <point x="819" y="290"/>
      <point x="792" y="259" type="curve" smooth="yes"/>
      <point x="765" y="228"/>
      <point x="731" y="215"/>
      <point x="696" y="215" type="curve" smooth="yes"/>
      <point x="664" y="215"/>
      <point x="632" y="227"/>
      <point x="616" y="244" type="curve"/>
      <point x="599" y="260"/>
      <point x="587" y="279"/>
      <point x="582" y="300" type="curve"/>
      <point x="582" y="285"/>
      <point x="567" y="259"/>
      <point x="540" y="237" type="curve" smooth="yes"/>
      <point x="513" y="215"/>
      <point x="475" y="196"/>
      <point x="431" y="196" type="curve" smooth="yes"/>
      <point x="404" y="196"/>
      <point x="377" y="203"/>
      <point x="346" y="219" type="curve" smooth="yes"/>
      <point x="285" y="252"/>
      <point x="250" y="310"/>
      <point x="250" y="375" type="curve" smooth="yes"/>
      <point x="250" y="442"/>
      <point x="293" y="520"/>
      <point x="352" y="550" type="curve" smooth="yes"/>
      <point x="381" y="565"/>
      <point x="411" y="572"/>
      <point x="441" y="572" type="curve" smooth="yes"/>
      <point x="469" y="572"/>
      <point x="502" y="567"/>
      <point x="532" y="551" type="curve" smooth="yes"/>
      <point x="562" y="535"/>
      <point x="590" y="509"/>
      <point x="610" y="468" type="curve" smooth="yes"/>
      <point x="618" y="452"/>
      <point x="624" y="436"/>
      <point x="627" y="420" type="curve" smooth="yes"/>
      <point x="634" y="387"/>
      <point x="640" y="359"/>
      <point x="652" y="340" type="curve"/>
      <point x="657" y="331"/>
      <point x="666" y="325"/>
      <point x="679" y="323" type="curve"/>
      <point x="699" y="323"/>
      <point x="710" y="326"/>
      <point x="716" y="338" type="curve" smooth="yes"/>
      <point x="722" y="350"/>
      <point x="722" y="369"/>
      <point x="722" y="404" type="curve" smooth="yes"/>
      <point x="722" y="476"/>
      <point x="692" y="537"/>
      <point x="643" y="581" type="curve" smooth="yes"/>
      <point x="594" y="625"/>
      <point x="524" y="650"/>
      <point x="444" y="650" type="curve" smooth="yes"/>
      <point x="365" y="650"/>
      <point x="296" y="619"/>
      <point x="246" y="570" type="curve" smooth="yes"/>
      <point x="196" y="521"/>
      <point x="164" y="452"/>
      <point x="164" y="377" type="curve" smooth="yes"/>
      <point x="164" y="302"/>
      <point x="195" y="236"/>
      <point x="247" y="189" type="curve" smooth="yes"/>
      <point x="298" y="142"/>
      <point x="368" y="114"/>
      <point x="444" y="114" type="curve" smooth="yes"/>
      <point x="513" y="114"/>
      <point x="560" y="134"/>
      <point x="587" y="151" type="curve"/>
      <point x="600" y="160"/>
      <point x="611" y="164"/>
      <point x="621" y="164" type="curve" smooth="yes"/>
      <point x="631" y="164"/>
      <point x="641" y="161"/>
      <point x="650" y="154" type="curve"/>
      <point x="683" y="132" type="line" smooth="yes"/>
      <point x="698" y="122"/>
      <point x="706" y="111"/>
      <point x="706" y="100" type="curve" smooth="yes"/>
      <point x="706" y="76"/>
      <point x="672" y="52"/>
      <point x="642" y="34" type="curve" smooth="yes"/>
      <point x="612" y="16"/>
      <point x="573" y="-1"/>
      <point x="525" y="-10" type="curve" smooth="yes"/>
      <point x="500" y="-15"/>
      <point x="473" y="-17"/>
      <point x="444" y="-17" type="curve" smooth="yes"/>
    </contour>
    <contour>
      <point x="480" y="325"/>
      <point x="498" y="356"/>
      <point x="498" y="387" type="curve" smooth="yes"/>
      <point x="498" y="419"/>
      <point x="484" y="445"/>
      <point x="445" y="445" type="curve" smooth="yes"/>
      <point x="421" y="445"/>
      <point x="407" y="436"/>
      <point x="397" y="424" type="curve" smooth="yes"/>
      <point x="387" y="412"/>
      <point x="383" y="398"/>
      <point x="383" y="387" type="curve" smooth="yes"/>
      <point x="383" y="356"/>
      <point x="396" y="325"/>
      <point x="437" y="325" type="curve" smooth="yes"/>
    </contour>
  </outline>
</glyph>
<glyph name="B" format="1">
  <advance width="733"/>
  <unicode hex="0042"/>
  <outline>
    <contour>
      <point x="85" y="0" type="line" smooth="yes"/>
      <point x="55" y="0"/>
      <point x="40" y="15"/>
      <point x="40" y="45" type="curve" smooth="yes"/>
      <point x="40" y="695" type="line" smooth="yes"/>
      <point x="40" y="725"/>
      <point x="55" y="740"/>
      <point x="85" y="740" type="curve" smooth="yes"/>
      <point x="363" y="740" type="line" smooth="yes"/>
      <point x="426" y="740"/>
      <point x="480" y="721"/>
      <point x="523" y="684" type="curve"/>
      <point x="539" y="669"/>
      <point x="558" y="652"/>
      <point x="572" y="626" type="curve" smooth="yes"/>
      <point x="586" y="600"/>
      <point x="596" y="566"/>
      <point x="596" y="521" type="curve" smooth="yes"/>
      <point x="596" y="520" type="line" smooth="yes"/>
      <point x="596" y="489"/>
      <point x="586" y="460"/>
      <point x="573" y="437" type="curve" smooth="yes"/>
      <point x="560" y="413"/>
      <point x="542" y="396"/>
      <point x="527" y="391" type="curve"/>
      <point x="540" y="388"/>
      <point x="566" y="375"/>
      <point x="590" y="348" type="curve" smooth="yes"/>
      <point x="614" y="321"/>
      <point x="634" y="283"/>
      <point x="638" y="234" type="curve"/>
      <point x="639" y="206"/>
      <point x="636" y="171"/>
      <point x="622" y="136" type="curve" smooth="yes"/>
      <point x="608" y="101"/>
      <point x="584" y="67"/>
      <point x="551" y="42" type="curve" smooth="yes"/>
      <point x="518" y="17"/>
      <point x="473" y="0"/>
      <point x="416" y="0" type="curve" smooth="yes"/>
    </contour>
    <contour>
      <point x="353" y="448" type="line" smooth="yes"/>
      <point x="368" y="448"/>
      <point x="385" y="453"/>
      <point x="398" y="463" type="curve"/>
      <point x="410" y="473"/>
      <point x="420" y="487"/>
      <point x="420" y="507" type="curve" smooth="yes"/>
      <point x="420" y="540"/>
      <point x="403" y="572"/>
      <point x="363" y="572" type="curve" smooth="yes"/>
      <point x="220" y="572" type="line"/>
      <point x="220" y="448" type="line"/>
    </contour>
    <contour>
      <point x="384" y="171" type="line" smooth="yes"/>
      <point x="420" y="171"/>
      <point x="449" y="190"/>
      <point x="449" y="233" type="curve" smooth="yes"/>
      <point x="449" y="276"/>
      <point x="422" y="295"/>
      <point x="378" y="295" type="curve" smooth="yes"/>
      <point x="220" y="295" type="line"/>
      <point x="220" y="171" type="line"/>
    </contour>
  </outline>
</glyph>
<glyph name="H" format="1">
  <advance width="744"/>
  <unicode hex="0048"/>
  <outline>
    <contour>
      <point x="623" y="45" type="line" smooth="yes"/>
      <point x="623" y="15"/>
      <point x="608" y="0"/>
      <point x="578" y="0" type="curve" smooth="yes"/>
      <point x="479" y="0" type="line" smooth="yes"/>
      <point x="449" y="0"/>
      <point x="434" y="15"/>
      <point x="434" y="45" type="curve" smooth="yes"/>
      <point x="434" y="275" type="line"/>
      <point x="229" y="275" type="line"/>
      <point x="229" y="45" type="line" smooth="yes"/>
      <point x="229" y="15"/>
      <point x="214" y="0"/>
      <point x="184" y="0" type="curve" smooth="yes"/>
      <point x="85" y="0" type="line" smooth="yes"/>
      <point x="55" y="0"/>
      <point x="40" y="15"/>
      <point x="40" y="45" type="curve" smooth="yes"/>
      <point x="40" y="695" type="line" smooth="yes"/>
      <point x="40" y="725"/>
      <point x="55" y="740"/>
      <point x="85" y="740" type="curve" smooth="yes"/>
      <point x="184" y="740" type="line" smooth="yes"/>
      <point x="214" y="740"/>
      <point x="229" y="725"/>
      <point x="229" y="695" type="curve" smooth="yes"/>
      <point x="229" y="465" type="line"/>
      <point x="434" y="465" type="line"/>
      <point x="434" y="695" type="line" smooth="yes"/>
      <point x="434" y="725"/>
      <point x="449" y="740"/>
      <point x="479" y="740" type="curve" smooth="yes"/>
      <point x="578" y="740" type="line" smooth="yes"/>
      <point x="608" y="740"/>
      <point x="623" y="725"/>
      <point x="623" y="695" type="curve" smooth="yes"/>
    </contour>
  </outline>
</glyph>
<glyph name="J" format="1">
  <advance width="714"/>
  <unicode hex="004A"/>
  <outline>
    <contour>
      <point x="164" y="247" type="line"/>
      <point x="188" y="262"/>
      <point x="208" y="256"/>
      <point x="225" y="231" type="curve" smooth="yes"/>
      <point x="244" y="202"/>
      <point x="272" y="173"/>
      <point x="307" y="173" type="curve" smooth="yes"/>
      <point x="331" y="173"/>
      <point x="355" y="177"/>
      <point x="373" y="194" type="curve" smooth="yes"/>
      <point x="391" y="210"/>
      <point x="403" y="242"/>
      <point x="403" y="298" type="curve" smooth="yes"/>
      <point x="403" y="694" type="line" smooth="yes"/>
      <point x="403" y="724"/>
      <point x="418" y="739"/>
      <point x="448" y="739" type="curve" smooth="yes"/>
      <point x="548" y="739" type="line" smooth="yes"/>
      <point x="578" y="739"/>
      <point x="593" y="724"/>
      <point x="593" y="694" type="curve" smooth="yes"/>
      <point x="593" y="275" type="line" smooth="yes"/>
      <point x="593" y="212"/>
      <point x="577" y="139"/>
      <point x="533" y="81" type="curve" smooth="yes"/>
      <point x="489" y="23"/>
      <point x="418" y="-19"/>
      <point x="307" y="-19" type="curve" smooth="yes"/>
      <point x="231" y="-19"/>
      <point x="168" y="6"/>
      <point x="119" y="55" type="curve" smooth="yes"/>
      <point x="94" y="80"/>
      <point x="74" y="111"/>
      <point x="59" y="136" type="curve" smooth="yes"/>
      <point x="44" y="161"/>
      <point x="53" y="182"/>
      <point x="77" y="197" type="curve"/>
    </contour>
  </outline>
</glyph>
<glyph name="M" format="1">
  <advance width="908"/>
  <unicode hex="004D"/>
  <outline>
    <contour>
      <point x="40" y="695" type="line" smooth="yes"/>
      <point x="40" y="725"/>
      <point x="55" y="740"/>
      <point x="85" y="740" type="curve" smooth="yes"/>
      <point x="169" y="740" type="line" smooth="yes"/>
      <point x="194" y="740"/>
      <point x="211" y="729"/>
      <point x="222" y="706" type="curve" smooth="yes"/>
      <point x="414" y="291" type="line"/>
      <point x="607" y="706" type="line" smooth="yes"/>
      <point x="618" y="729"/>
      <point x="635" y="740"/>
      <point x="660" y="740" type="curve" smooth="yes"/>
      <point x="744" y="740" type="line" smooth="yes"/>
      <point x="774" y="740"/>
      <point x="789" y="725"/>
      <point x="789" y="695" type="curve" smooth="yes"/>
      <point x="789" y="45" type="line" smooth="yes"/>
      <point x="789" y="15"/>
      <point x="774" y="0"/>
      <point x="744" y="0" type="curve" smooth="yes"/>
      <point x="645" y="0" type="line" smooth="yes"/>
      <point x="615" y="0"/>
      <point x="600" y="15"/>
      <point x="600" y="45" type="curve" smooth="yes"/>
      <point x="600" y="303" type="line"/>
      <point x="487" y="35" type="line" smooth="yes"/>
      <point x="477" y="12"/>
      <point x="459" y="0"/>
      <point x="434" y="0" type="curve" smooth="yes"/>
      <point x="394" y="0" type="line" smooth="yes"/>
      <point x="369" y="0"/>
      <point x="351" y="12"/>
      <point x="341" y="35" type="curve" smooth="yes"/>
      <point x="229" y="302" type="line"/>
      <point x="229" y="45" type="line" smooth="yes"/>
      <point x="229" y="15"/>
      <point x="214" y="0"/>
      <point x="184" y="0" type="curve" smooth="yes"/>
      <point x="85" y="0" type="line" smooth="yes"/>
      <point x="55" y="0"/>
      <point x="40" y="15"/>
      <point x="40" y="45" type="curve" smooth="yes"/>
    </contour>
  </outline>
</glyph>
<glyph name="N" format="1">
  <advance width="777"/>
  <unicode hex="004E"/>
  <outline>
    <contour>
      <point x="85" y="0" type="line" smooth="yes"/>
      <point x="55" y="0"/>
      <point x="40" y="15"/>
      <point x="40" y="45" type="curve" smooth="yes"/>
      <point x="40" y="695" type="line" smooth="yes"/>
      <point x="40" y="725"/>
      <point x="55" y="740"/>
      <point x="85" y="740" type="curve" smooth="yes"/>
      <point x="171" y="740" type="line" smooth="yes"/>
      <point x="194" y="740"/>
      <point x="213" y="730"/>
      <point x="226" y="711" type="curve" smooth="yes"/>
      <point x="457" y="376" type="line"/>
      <point x="457" y="695" type="line" smooth="yes"/>
      <point x="457" y="725"/>
      <point x="472" y="740"/>
      <point x="502" y="740" type="curve" smooth="yes"/>
      <point x="601" y="740" type="line" smooth="yes"/>
      <point x="631" y="740"/>
      <point x="646" y="725"/>
      <point x="646" y="695" type="curve" smooth="yes"/>
      <point x="646" y="45" type="line" smooth="yes"/>
      <point x="646" y="15"/>
      <point x="631" y="0"/>
      <point x="601" y="0" type="curve" smooth="yes"/>
      <point x="515" y="0" type="line" smooth="yes"/>
      <point x="492" y="0"/>
      <point x="473" y="10"/>
      <point x="460" y="29" type="curve" smooth="yes"/>
      <point x="229" y="367" type="line"/>
      <point x="229" y="45" type="line" smooth="yes"/>
      <point x="229" y="15"/>
      <point x="214" y="0"/>
      <point x="184" y="0" type="curve" smooth="yes"/>
    </contour>
  </outline>
</glyph>
<glyph name="T" format="1">
  <advance width="706"/>
  <unicode hex="0054"/>
  <outline>
    <contour>
      <point x="284" y="0" type="line" smooth="yes"/>
      <point x="254" y="0"/>
      <point x="239" y="15"/>
      <point x="239" y="45" type="curve" smooth="yes"/>
      <point x="239" y="551" type="line"/>
      <point x="85" y="551" type="line" smooth="yes"/>
      <point x="55" y="551"/>
      <point x="40" y="566"/>
      <point x="40" y="596" type="curve" smooth="yes"/>
      <point x="40" y="695" type="line" smooth="yes"/>
      <point x="40" y="725"/>
      <point x="55" y="740"/>
      <point x="85" y="740" type="curve" smooth="yes"/>
      <point x="582" y="740" type="line" smooth="yes"/>
      <point x="612" y="740"/>
      <point x="627" y="725"/>
      <point x="627" y="695" type="curve" smooth="yes"/>
      <point x="627" y="596" type="line" smooth="yes"/>
      <point x="627" y="566"/>
      <point x="612" y="551"/>
      <point x="582" y="551" type="curve" smooth="yes"/>
      <point x="428" y="551" type="line"/>
      <point x="428" y="45" type="line" smooth="yes"/>
      <point x="428" y="15"/>
      <point x="413" y="0"/>
      <point x="383" y="0" type="curve" smooth="yes"/>
    </contour>
  </outline>
</glyph>
<glyph name="V" format="1">
  <advance width="805"/>
  <unicode hex="0056"/>
  <outline>
    <contour>
      <point x="519" y="705" type="line" smooth="yes"/>
      <point x="528" y="729"/>
      <point x="545" y="741"/>
      <point x="571" y="741" type="curve" smooth="yes"/>
      <point x="678" y="741" type="line" smooth="yes"/>
      <point x="711" y="741"/>
      <point x="725" y="721"/>
      <point x="714" y="690" type="curve" smooth="yes"/>
      <point x="489" y="36" type="line" smooth="yes"/>
      <point x="480" y="12"/>
      <point x="462" y="0"/>
      <point x="437" y="0" type="curve" smooth="yes"/>
      <point x="336" y="0" type="line" smooth="yes"/>
      <point x="310" y="0"/>
      <point x="293" y="12"/>
      <point x="284" y="36" type="curve" smooth="yes"/>
      <point x="58" y="690" type="line" smooth="yes"/>
      <point x="47" y="721"/>
      <point x="61" y="741"/>
      <point x="94" y="741" type="curve" smooth="yes"/>
      <point x="201" y="741" type="line" smooth="yes"/>
      <point x="226" y="741"/>
      <point x="244" y="729"/>
      <point x="253" y="705" type="curve" smooth="yes"/>
      <point x="386" y="320" type="line"/>
    </contour>
  </outline>
</glyph>
<glyph name="W" format="1">
  <advance width="1038"/>
  <unicode hex="0057"/>
  <outline>
    <contour>
      <point x="51" y="692" type="line" smooth="yes"/>
      <point x="44" y="723"/>
      <point x="59" y="741"/>
      <point x="91" y="741" type="curve" smooth="yes"/>
      <point x="193" y="741" type="line" smooth="yes"/>
      <point x="220" y="741"/>
      <point x="237" y="728"/>
      <point x="243" y="701" type="curve" smooth="yes"/>
      <point x="312" y="376" type="line"/>
      <point x="401" y="703" type="line" smooth="yes"/>
      <point x="408" y="728"/>
      <point x="424" y="741"/>
      <point x="451" y="741" type="curve" smooth="yes"/>
      <point x="560" y="741" type="line" smooth="yes"/>
      <point x="587" y="741"/>
      <point x="603" y="728"/>
      <point x="610" y="703" type="curve" smooth="yes"/>
      <point x="699" y="378" type="line"/>
      <point x="768" y="701" type="line" smooth="yes"/>
      <point x="774" y="728"/>
      <point x="791" y="741"/>
      <point x="818" y="741" type="curve" smooth="yes"/>
      <point x="919" y="741" type="line" smooth="yes"/>
      <point x="951" y="741"/>
      <point x="966" y="723"/>
      <point x="959" y="692" type="curve" smooth="yes"/>
      <point x="817" y="40" type="line" smooth="yes"/>
      <point x="811" y="13"/>
      <point x="794" y="0"/>
      <point x="767" y="0" type="curve" smooth="yes"/>
      <point x="651" y="0" type="line" smooth="yes"/>
      <point x="624" y="0"/>
      <point x="608" y="13"/>
      <point x="601" y="38" type="curve" smooth="yes"/>
      <point x="506" y="386" type="line"/>
      <point x="411" y="38" type="line"/>
      <point x="403" y="13"/>
      <point x="386" y="0"/>
      <point x="360" y="0" type="curve" smooth="yes"/>
      <point x="244" y="0" type="line" smooth="yes"/>
      <point x="217" y="0"/>
      <point x="200" y="13"/>
      <point x="194" y="40" type="curve" smooth="yes"/>
    </contour>
  </outline>
</glyph>
<glyph name="Y" format="1">
  <advance width="757"/>
  <unicode hex="0059"/>
  <outline>
    <contour>
      <point x="322" y="0" type="line" smooth="yes"/>
      <point x="292" y="0"/>
      <point x="277" y="15"/>
      <point x="277" y="45" type="curve" smooth="yes"/>
      <point x="277" y="344" type="line"/>
      <point x="64" y="686" type="line" smooth="yes"/>
      <point x="45" y="717"/>
      <point x="57" y="740"/>
      <point x="94" y="740" type="curve" smooth="yes"/>
      <point x="213" y="740" type="line" smooth="yes"/>
      <point x="236" y="740"/>
      <point x="254" y="730"/>
      <point x="267" y="710" type="curve" smooth="yes"/>
      <point x="371" y="543" type="line"/>
      <point x="475" y="710" type="line" smooth="yes"/>
      <point x="488" y="730"/>
      <point x="506" y="740"/>
      <point x="529" y="740" type="curve" smooth="yes"/>
      <point x="648" y="740" type="line" smooth="yes"/>
      <point x="685" y="740"/>
      <point x="698" y="717"/>
      <point x="678" y="686" type="curve" smooth="yes"/>
      <point x="466" y="344" type="line"/>
      <point x="466" y="45" type="line" smooth="yes"/>
      <point x="466" y="15"/>
      <point x="451" y="0"/>
      <point x="421" y="0" type="curve" smooth="yes"/>
    </contour>
  </outline>
</glyph>
<glyph name="Z" format="1">
  <advance width="688"/>
  <unicode hex="005A"/>
  <outline>
    <contour>
      <point x="85" y="0" type="line" smooth="yes"/>
      <point x="55" y="0"/>
      <point x="40" y="15"/>
      <point x="40" y="45" type="curve" smooth="yes"/>
      <point x="40" y="123" type="line" smooth="yes"/>
      <point x="40" y="146"/>
      <point x="44" y="160"/>
      <point x="59" y="179" type="curve" smooth="yes"/>
      <point x="336" y="551" type="line"/>
      <point x="100" y="551" type="line" smooth="yes"/>
      <point x="70" y="551"/>
      <point x="55" y="566"/>
      <point x="55" y="596" type="curve" smooth="yes"/>
      <point x="55" y="695" type="line" smooth="yes"/>
      <point x="55" y="725"/>
      <point x="70" y="740"/>
      <point x="100" y="740" type="curve" smooth="yes"/>
      <point x="529" y="740" type="line" smooth="yes"/>
      <point x="559" y="740"/>
      <point x="574" y="725"/>
      <point x="574" y="695" type="curve" smooth="yes"/>
      <point x="574" y="618" type="line" smooth="yes"/>
      <point x="574" y="597"/>
      <point x="568" y="579"/>
      <point x="556" y="562" type="curve" smooth="yes"/>
      <point x="287" y="189" type="line"/>
      <point x="544" y="189" type="line" smooth="yes"/>
      <point x="574" y="189"/>
      <point x="589" y="174"/>
      <point x="589" y="144" type="curve" smooth="yes"/>
      <point x="589" y="45" type="line" smooth="yes"/>
      <point x="589" y="15"/>
      <point x="574" y="0"/>
      <point x="544" y="0" type="curve" smooth="yes"/>
    </contour>
  </outline>
</glyph>
<glyph name="bracketleft" format="1">
  <advance width="365"/>
  <unicode hex="005B"/>
  <outline>
    <contour>
      <point x="283" y="11" type="line" smooth="yes"/>
      <point x="313" y="11"/>
      <point x="328" y="-4"/>
      <point x="328" y="-34" type="curve" smooth="yes"/>
      <point x="328" y="-64" type="line" smooth="yes"/>
      <point x="328" y="-94"/>
      <point x="313" y="-109"/>
      <point x="283" y="-109" type="curve" smooth="yes"/>
      <point x="85" y="-109" type="line" smooth="yes"/>
      <point x="55" y="-109"/>
      <point x="40" y="-94"/>
      <point x="40" y="-64" type="curve" smooth="yes"/>
      <point x="40" y="788" type="line" smooth="yes"/>
      <point x="40" y="818"/>
      <point x="55" y="833"/>
      <point x="85" y="833" type="curve" smooth="yes"/>
      <point x="283" y="833" type="line" smooth="yes"/>
      <point x="313" y="833"/>
      <point x="328" y="818"/>
      <point x="328" y="788" type="curve" smooth="yes"/>
      <point x="328" y="759" type="line" smooth="yes"/>
      <point x="328" y="729"/>
      <point x="313" y="714"/>
      <point x="283" y="714" type="curve" smooth="yes"/>
      <point x="189" y="714" type="line"/>
      <point x="189" y="11" type="line"/>
    </contour>
  </outline>
</glyph>
<glyph name="bracketright" format="1">
  <advance width="388"/>
  <unicode hex="005D"/>
  <outline>
    <contour>
      <point x="75" y="714" type="line" smooth="yes"/>
      <point x="45" y="714"/>
      <point x="30" y="729"/>
      <point x="30" y="759" type="curve" smooth="yes"/>
      <point x="30" y="788" type="line" smooth="yes"/>
      <point x="30" y="818"/>
      <point x="45" y="833"/>
      <point x="75" y="833" type="curve" smooth="yes"/>
      <point x="273" y="833" type="line" smooth="yes"/>
      <point x="303" y="833"/>
      <point x="318" y="818"/>
      <point x="318" y="788" type="curve" smooth="yes"/>
      <point x="318" y="-64" type="line" smooth="yes"/>
      <point x="318" y="-94"/>
      <point x="303" y="-109"/>
      <point x="273" y="-109" type="curve" smooth="yes"/>
      <point x="75" y="-109" type="line" smooth="yes"/>
      <point x="45" y="-109"/>
      <point x="30" y="-94"/>
      <point x="30" y="-64" type="curve" smooth="yes"/>
      <point x="30" y="-34" type="line" smooth="yes"/>
      <point x="30" y="-4"/>
      <point x="45" y="11"/>
      <point x="75" y="11" type="curve" smooth="yes"/>
      <point x="169" y="11" type="line"/>
      <point x="169" y="714" type="line"/>
    </contour>
  </outline>
</glyph>
<glyph name="asciicircum" format="1">
  <advance width="474"/>
  <unicode hex="005E"/>
  <outline>
    <contour>
      <point x="170" y="570" type="line" smooth="yes"/>
      <point x="155" y="553"/>
      <point x="137" y="545"/>
      <point x="115" y="545" type="curve" smooth="yes"/>
      <point x="97" y="545" type="line" smooth="yes"/>
      <point x="58" y="545"/>
      <point x="47" y="569"/>
      <point x="71" y="600" type="curve" smooth="yes"/>
      <point x="162" y="712" type="line" smooth="yes"/>
      <point x="177" y="731"/>
      <point x="193" y="738"/>
      <point x="217" y="738" type="curve" smooth="yes"/>
      <point x="219" y="738" type="line" smooth="yes"/>
      <point x="243" y="738"/>
      <point x="259" y="731"/>
      <point x="274" y="712" type="curve" smooth="yes"/>
      <point x="364" y="600" type="line" smooth="yes"/>
      <point x="389" y="569"/>
      <point x="377" y="545"/>
      <point x="338" y="545" type="curve" smooth="yes"/>
      <point x="321" y="545" type="line" smooth="yes"/>
      <point x="297" y="545"/>
      <point x="281" y="552"/>
      <point x="265" y="571" type="curve" smooth="yes"/>
      <point x="218" y="627" type="line"/>
    </contour>
  </outline>
</glyph>
<glyph name="underscore" format="1">
  <advance width="660"/>
  <unicode hex="005F"/>
  <outline>
    <contour>
      <point x="75" y="-83" type="line" smooth="yes"/>
      <point x="45" y="-83"/>
      <point x="30" y="-68"/>
      <point x="30" y="-38" type="curve" smooth="yes"/>
      <point x="30" y="38" type="line" smooth="yes"/>
      <point x="30" y="68"/>
      <point x="45" y="83"/>
      <point x="75" y="83" type="curve" smooth="yes"/>
      <point x="524" y="83" type="line" smooth="yes"/>
      <point x="554" y="83"/>
      <point x="569" y="68"/>
      <point x="569" y="38" type="curve" smooth="yes"/>
      <point x="569" y="-38" type="line" smooth="yes"/>
      <point x="569" y="-68"/>
      <point x="554" y="-83"/>
      <point x="524" y="-83" type="curve" smooth="yes"/>
    </contour>
  </outline>
</glyph>
<glyph name="grave" format="1">
  <advance width="235"/>
  <unicode hex="0060"/>
  <outline>
    <contour>
      <point x="149" y="914"/>
      <point x="179" y="888"/>
      <point x="199" y="864" type="curve" smooth="yes"/>
      <point x="219" y="840"/>
      <point x="229" y="819"/>
      <point x="221" y="807" type="curve" smooth="yes"/>
      <point x="217" y="801"/>
      <point x="209" y="798"/>
      <point x="198" y="798" type="curve" smooth="yes"/>
      <point x="175" y="798"/>
      <point x="146" y="808"/>
      <point x="112" y="825" type="curve" smooth="yes"/>
      <point x="78" y="841"/>
      <point x="-1" y="874"/>
      <point x="35" y="930" type="curve" smooth="yes"/>
      <point x="52" y="957"/>
      <point x="80" y="959"/>
      <point x="117" y="935" type="curve" smooth="yes"/>
    </contour>
  </outline>
</glyph>
<glyph name="a" format="1">
  <advance width="824"/>
  <unicode hex="0061"/>
  <outline>
    <contour>
      <point x="448" y="740" type="line" smooth="yes"/>
      <point x="473" y="740"/>
      <point x="491" y="728"/>
      <point x="500" y="704" type="curve" smooth="yes"/>
      <point x="728" y="52" type="line" smooth="yes"/>
      <point x="739" y="20"/>
      <point x="726" y="0"/>
      <point x="691" y="0" type="curve" smooth="yes"/>
      <point x="584" y="0" type="line" smooth="yes"/>
      <point x="558" y="0"/>
      <point x="541" y="12"/>
      <point x="533" y="37" type="curve" smooth="yes"/>
      <point x="502" y="128" type="line"/>
      <point x="282" y="128" type="line"/>
      <point x="251" y="37" type="line" smooth="yes"/>
      <point x="242" y="12"/>
      <point x="225" y="0"/>
      <point x="199" y="0" type="curve" smooth="yes"/>
      <point x="91" y="0" type="line" smooth="yes"/>
      <point x="56" y="0"/>
      <point x="43" y="20"/>
      <point x="54" y="52" type="curve" smooth="yes"/>
      <point x="283" y="704" type="line" smooth="yes"/>
      <point x="292" y="728"/>
      <point x="309" y="740"/>
      <point x="334" y="740" type="curve" smooth="yes"/>
    </contour>
    <contour>
      <point x="328" y="292" type="line"/>
      <point x="460" y="292" type="line"/>
      <point x="391" y="497" type="line"/>
    </contour>
  </outline>
</glyph>
<glyph name="f" format="1">
  <advance width="646"/>
  <unicode hex="0066"/>
  <outline>
    <contour>
      <point x="229" y="45" type="line" smooth="yes"/>
      <point x="229" y="15"/>
      <point x="214" y="0"/>
      <point x="184" y="0" type="curve" smooth="yes"/>
      <point x="85" y="0" type="line" smooth="yes"/>
      <point x="55" y="0"/>
      <point x="40" y="15"/>
      <point x="40" y="45" type="curve" smooth="yes"/>
      <point x="40" y="695" type="line" smooth="yes"/>
      <point x="40" y="725"/>
      <point x="55" y="740"/>
      <point x="85" y="740" type="curve" smooth="yes"/>
      <point x="500" y="740" type="line" smooth="yes"/>
      <point x="530" y="740"/>
      <point x="545" y="725"/>
      <point x="545" y="695" type="curve" smooth="yes"/>
      <point x="545" y="596" type="line" smooth="yes"/>
      <point x="545" y="566"/>
      <point x="530" y="551"/>
      <point x="500" y="551" type="curve" smooth="yes"/>
      <point x="229" y="551" type="line"/>
      <point x="229" y="458" type="line"/>
      <point x="425" y="458" type="line" smooth="yes"/>
      <point x="455" y="458"/>
      <point x="470" y="443"/>
      <point x="470" y="413" type="curve" smooth="yes"/>
      <point x="470" y="328" type="line" smooth="yes"/>
      <point x="470" y="298"/>
      <point x="455" y="283"/>
      <point x="425" y="283" type="curve" smooth="yes"/>
      <point x="229" y="283" type="line"/>
    </contour>
  </outline>
</glyph>
<glyph name="g" format="1">
  <advance width="883"/>
  <unicode hex="0067"/>
  <outline>
    <contour>
      <point x="321" y="-17"/>
      <point x="224" y="27"/>
      <point x="154" y="97" type="curve" smooth="yes"/>
      <point x="84" y="167"/>
      <point x="40" y="263"/>
      <point x="40" y="370" type="curve" smooth="yes"/>
      <point x="40" y="477"/>
      <point x="84" y="575"/>
      <point x="154" y="645" type="curve" smooth="yes"/>
      <point x="224" y="715"/>
      <point x="321" y="758"/>
      <point x="428" y="758" type="curve" smooth="yes"/>
      <point x="532" y="758"/>
      <point x="628" y="719"/>
      <point x="700" y="647" type="curve"/>
      <point x="721" y="624"/>
      <point x="718" y="602"/>
      <point x="695" y="583" type="curve" smooth="yes"/>
      <point x="616" y="521" type="line" smooth="yes"/>
      <point x="593" y="502"/>
      <point x="576" y="505"/>
      <point x="553" y="524" type="curve" smooth="yes"/>
      <point x="517" y="554"/>
      <point x="475" y="569"/>
      <point x="428" y="569" type="curve" smooth="yes"/>
      <point x="373" y="569"/>
      <point x="323" y="547"/>
      <point x="287" y="511" type="curve" smooth="yes"/>
      <point x="251" y="475"/>
      <point x="229" y="425"/>
      <point x="229" y="370" type="curve" smooth="yes"/>
      <point x="229" y="315"/>
      <point x="251" y="265"/>
      <point x="287" y="227" type="curve" smooth="yes"/>
      <point x="323" y="189"/>
      <point x="373" y="164"/>
      <point x="428" y="164" type="curve" smooth="yes"/>
      <point x="471" y="164"/>
      <point x="503" y="173"/>
      <point x="527" y="185" type="curve" smooth="yes"/>
      <point x="550" y="196"/>
      <point x="564" y="210"/>
      <point x="572" y="219" type="curve"/>
      <point x="572" y="267" type="line"/>
      <point x="449" y="267" type="line" smooth="yes"/>
      <point x="419" y="267"/>
      <point x="404" y="282"/>
      <point x="404" y="312" type="curve" smooth="yes"/>
      <point x="404" y="374" type="line" smooth="yes"/>
      <point x="404" y="404"/>
      <point x="419" y="419"/>
      <point x="449" y="419" type="curve" smooth="yes"/>
      <point x="716" y="419" type="line" smooth="yes"/>
      <point x="746" y="419"/>
      <point x="761" y="404"/>
      <point x="761" y="374" type="curve" smooth="yes"/>
      <point x="761" y="193" type="line" smooth="yes"/>
      <point x="761" y="172"/>
      <point x="757" y="156"/>
      <point x="749" y="143" type="curve" smooth="yes"/>
      <point x="685" y="46"/>
      <point x="580" y="-17"/>
      <point x="428" y="-17" type="curve" smooth="yes"/>
    </contour>
  </outline>
</glyph>
<glyph name="i" format="1">
  <advance width="348"/>
  <unicode hex="0069"/>
  <outline>
    <contour>
      <point x="184" y="740" type="line" smooth="yes"/>
      <point x="214" y="740"/>
      <point x="229" y="725"/>
      <point x="229" y="695" type="curve" smooth="yes"/>
      <point x="229" y="45" type="line" smooth="yes"/>
      <point x="229" y="15"/>
      <point x="214" y="0"/>
      <point x="184" y="0" type="curve" smooth="yes"/>
      <point x="85" y="0" type="line" smooth="yes"/>
      <point x="55" y="0"/>
      <point x="40" y="15"/>
      <point x="40" y="45" type="curve" smooth="yes"/>
      <point x="40" y="695" type="line" smooth="yes"/>
      <point x="40" y="725"/>
      <point x="55" y="740"/>
      <point x="85" y="740" type="curve" smooth="yes"/>
    </contour>
  </outline>
</glyph>
<glyph name="l" format="1">
  <advance width="646"/>
  <unicode hex="006C"/>
  <outline>
    <contour>
      <point x="494" y="189" type="line" smooth="yes"/>
      <point x="524" y="189"/>
      <point x="539" y="174"/>
      <point x="539" y="144" type="curve" smooth="yes"/>
      <point x="539" y="45" type="line" smooth="yes"/>
      <point x="539" y="15"/>
      <point x="524" y="0"/>
      <point x="494" y="0" type="curve" smooth="yes"/>
      <point x="85" y="0" type="line" smooth="yes"/>
      <point x="55" y="0"/>
      <point x="40" y="15"/>
      <point x="40" y="45" type="curve" smooth="yes"/>
      <point x="40" y="695" type="line" smooth="yes"/>
      <point x="40" y="725"/>
      <point x="55" y="740"/>
      <point x="85" y="740" type="curve" smooth="yes"/>
      <point x="184" y="740" type="line" smooth="yes"/>
      <point x="214" y="740"/>
      <point x="229" y="725"/>
      <point x="229" y="695" type="curve" smooth="yes"/>
      <point x="229" y="189" type="line"/>
    </contour>
  </outline>
</glyph>
<glyph name="p" format="1">
  <advance width="703"/>
  <unicode hex="0070"/>
  <outline>
    <contour>
      <point x="618" y="424"/>
      <point x="589" y="349"/>
      <point x="534" y="306" type="curve" smooth="yes"/>
      <point x="490" y="271"/>
      <point x="432" y="252"/>
      <point x="368" y="252" type="curve" smooth="yes"/>
      <point x="225" y="252" type="line"/>
      <point x="225" y="45" type="line" smooth="yes"/>
      <point x="225" y="15"/>
      <point x="210" y="0"/>
      <point x="180" y="0" type="curve" smooth="yes"/>
      <point x="81" y="0" type="line" smooth="yes"/>
      <point x="51" y="0"/>
      <point x="36" y="15"/>
      <point x="36" y="45" type="curve" smooth="yes"/>
      <point x="36" y="695" type="line" smooth="yes"/>
      <point x="36" y="725"/>
      <point x="51" y="740"/>
      <point x="81" y="740" type="curve" smooth="yes"/>
      <point x="385" y="740" type="line" smooth="yes"/>
      <point x="449" y="740"/>
      <point x="502" y="721"/>
      <point x="545" y="684" type="curve"/>
      <point x="561" y="669"/>
      <point x="580" y="645"/>
      <point x="594" y="614" type="curve" smooth="yes"/>
      <point x="608" y="582"/>
      <point x="618" y="542"/>
      <point x="618" y="497" type="curve" smooth="yes"/>
    </contour>
    <contour>
      <point x="436" y="532"/>
      <point x="415" y="558"/>
      <point x="375" y="558" type="curve" smooth="yes"/>
      <point x="225" y="558" type="line"/>
      <point x="225" y="434" type="line"/>
      <point x="368" y="434" type="line" smooth="yes"/>
      <point x="403" y="434"/>
      <point x="436" y="458"/>
      <point x="436" y="497" type="curve" smooth="yes"/>
    </contour>
  </outline>
</glyph>
<glyph name="q" format="1">
  <advance width="927"/>
  <unicode hex="0071"/>
  <outline>
    <contour>
      <point x="704" y="-89" type="line" smooth="yes"/>
      <point x="680" y="-108"/>
      <point x="659" y="-105"/>
      <point x="641" y="-82" type="curve" smooth="yes"/>
      <point x="571" y="8" type="line"/>
      <point x="526" y="-9"/>
      <point x="479" y="-18"/>
      <point x="429" y="-18" type="curve" smooth="yes"/>
      <point x="321" y="-18"/>
      <point x="225" y="26"/>
      <point x="154" y="96" type="curve" smooth="yes"/>
      <point x="83" y="166"/>
      <point x="40" y="263"/>
      <point x="40" y="370" type="curve" smooth="yes"/>
      <point x="40" y="478"/>
      <point x="83" y="574"/>
      <point x="154" y="645" type="curve" smooth="yes"/>
      <point x="225" y="716"/>
      <point x="321" y="759"/>
      <point x="429" y="759" type="curve" smooth="yes"/>
      <point x="536" y="759"/>
      <point x="633" y="716"/>
      <point x="704" y="645" type="curve" smooth="yes"/>
      <point x="775" y="574"/>
      <point x="818" y="478"/>
      <point x="818" y="370" type="curve" smooth="yes"/>
      <point x="818" y="274"/>
      <point x="784" y="186"/>
      <point x="725" y="118" type="curve"/>
      <point x="790" y="35" type="line" smooth="yes"/>
      <point x="808" y="11"/>
      <point x="805" y="-10"/>
      <point x="782" y="-29" type="curve" smooth="yes"/>
    </contour>
    <contour>
      <point x="401" y="226" type="line" smooth="yes"/>
      <point x="382" y="251"/>
      <point x="385" y="272"/>
      <point x="408" y="290" type="curve" smooth="yes"/>
      <point x="486" y="351" type="line"/>
      <point x="511" y="368"/>
      <point x="532" y="366"/>
      <point x="550" y="343" type="curve" smooth="yes"/>
      <point x="603" y="274" type="line"/>
      <point x="620" y="303"/>
      <point x="628" y="335"/>
      <point x="628" y="370" type="curve" smooth="yes"/>
      <point x="628" y="425"/>
      <point x="606" y="475"/>
      <point x="570" y="511" type="curve" smooth="yes"/>
      <point x="534" y="547"/>
      <point x="484" y="570"/>
      <point x="429" y="570" type="curve" smooth="yes"/>
      <point x="374" y="570"/>
      <point x="324" y="547"/>
      <point x="288" y="511" type="curve" smooth="yes"/>
      <point x="252" y="475"/>
      <point x="229" y="425"/>
      <point x="229" y="370" type="curve" smooth="yes"/>
      <point x="229" y="315"/>
      <point x="252" y="265"/>
      <point x="288" y="229" type="curve" smooth="yes"/>
      <point x="324" y="193"/>
      <point x="374" y="171"/>
      <point x="429" y="171" type="curve" smooth="yes"/>
      <point x="435" y="171"/>
      <point x="440" y="171"/>
      <point x="443" y="172" type="curve"/>
    </contour>
  </outline>
</glyph>
<glyph name="r" format="1">
  <advance width="715"/>
  <unicode hex="0072"/>
  <outline>
    <contour>
      <point x="622" y="424"/>
      <point x="593" y="349"/>
      <point x="538" y="306" type="curve"/>
      <point x="530" y="299"/>
      <point x="523" y="295"/>
      <point x="517" y="292" type="curve"/>
      <point x="510" y="289"/>
      <point x="506" y="288"/>
      <point x="505" y="287" type="curve"/>
      <point x="605" y="52" type="line" smooth="yes"/>
      <point x="618" y="21"/>
      <point x="605" y="0"/>
      <point x="570" y="0" type="curve" smooth="yes"/>
      <point x="460" y="0" type="line" smooth="yes"/>
      <point x="435" y="0"/>
      <point x="418" y="12"/>
      <point x="408" y="35" type="curve"/>
      <point x="320" y="264" type="line"/>
      <point x="229" y="264" type="line"/>
      <point x="229" y="45" type="line" smooth="yes"/>
      <point x="229" y="15"/>
      <point x="214" y="0"/>
      <point x="184" y="0" type="curve" smooth="yes"/>
      <point x="85" y="0" type="line" smooth="yes"/>
      <point x="55" y="0"/>
      <point x="40" y="15"/>
      <point x="40" y="45" type="curve" smooth="yes"/>
      <point x="40" y="695" type="line" smooth="yes"/>
      <point x="40" y="725"/>
      <point x="55" y="740"/>
      <point x="85" y="740" type="curve" smooth="yes"/>
      <point x="389" y="740" type="line" smooth="yes"/>
      <point x="453" y="740"/>
      <point x="506" y="721"/>
      <point x="549" y="684" type="curve"/>
      <point x="565" y="669"/>
      <point x="584" y="645"/>
      <point x="598" y="614" type="curve" smooth="yes"/>
      <point x="612" y="582"/>
      <point x="622" y="542"/>
      <point x="622" y="497" type="curve" smooth="yes"/>
    </contour>
    <contour>
      <point x="439" y="532"/>
      <point x="419" y="558"/>
      <point x="379" y="558" type="curve" smooth="yes"/>
      <point x="229" y="558" type="line"/>
      <point x="229" y="434" type="line"/>
      <point x="372" y="434" type="line" smooth="yes"/>
      <point x="407" y="434"/>
      <point x="439" y="458"/>
      <point x="439" y="497" type="curve" smooth="yes"/>
    </contour>
  </outline>
</glyph>
<glyph name="x" format="1">
  <advance width="849"/>
  <unicode hex="0078"/>
  <outline>
    <contour>
      <point x="522" y="711" type="line" smooth="yes"/>
      <point x="535" y="730"/>
      <point x="554" y="740"/>
      <point x="577" y="740" type="curve" smooth="yes"/>
      <point x="705" y="740" type="line" smooth="yes"/>
      <point x="742" y="740"/>
      <point x="755" y="716"/>
      <point x="734" y="685" type="curve" smooth="yes"/>
      <point x="521" y="373" type="line"/>
      <point x="737" y="55" type="line" smooth="yes"/>
      <point x="758" y="24"/>
      <point x="745" y="0"/>
      <point x="708" y="0" type="curve" smooth="yes"/>
      <point x="580" y="0" type="line" smooth="yes"/>
      <point x="557" y="0"/>
      <point x="538" y="10"/>
      <point x="525" y="29" type="curve" smooth="yes"/>
      <point x="407" y="204" type="line"/>
      <point x="288" y="29" type="line" smooth="yes"/>
      <point x="275" y="10"/>
      <point x="256" y="0"/>
      <point x="233" y="0" type="curve" smooth="yes"/>
      <point x="105" y="0" type="line" smooth="yes"/>
      <point x="68" y="0"/>
      <point x="55" y="24"/>
      <point x="76" y="55" type="curve" smooth="yes"/>
      <point x="292" y="373" type="line"/>
      <point x="79" y="685" type="line" smooth="yes"/>
      <point x="58" y="716"/>
      <point x="71" y="740"/>
      <point x="108" y="740" type="curve" smooth="yes"/>
      <point x="236" y="740" type="line" smooth="yes"/>
      <point x="259" y="740"/>
      <point x="278" y="730"/>
      <point x="291" y="711" type="curve" smooth="yes"/>
      <point x="407" y="541" type="line"/>
    </contour>
  </outline>
</glyph>
<glyph name="braceleft" format="1">
  <advance width="363"/>
  <unicode hex="007B"/>
  <outline>
    <contour>
      <point x="87" y="271" type="line" smooth="yes"/>
      <point x="87" y="298"/>
      <point x="72" y="312"/>
      <point x="42" y="312" type="curve" smooth="yes"/>
      <point x="34" y="312"/>
      <point x="30" y="327"/>
      <point x="30" y="357" type="curve" smooth="yes"/>
      <point x="30" y="368" type="line" smooth="yes"/>
      <point x="30" y="398"/>
      <point x="34" y="413"/>
      <point x="42" y="413" type="curve" smooth="yes"/>
      <point x="72" y="413"/>
      <point x="87" y="427"/>
      <point x="87" y="454" type="curve" smooth="yes"/>
      <point x="87" y="673" type="line" smooth="yes"/>
      <point x="87" y="776"/>
      <point x="138" y="833"/>
      <point x="230" y="833" type="curve" smooth="yes"/>
      <point x="276" y="833" type="line" smooth="yes"/>
      <point x="306" y="833"/>
      <point x="321" y="818"/>
      <point x="321" y="788" type="curve" smooth="yes"/>
      <point x="321" y="750" type="line" smooth="yes"/>
      <point x="321" y="720"/>
      <point x="306" y="705"/>
      <point x="276" y="705" type="curve" smooth="yes"/>
      <point x="253" y="705"/>
      <point x="236" y="686"/>
      <point x="236" y="661" type="curve" smooth="yes"/>
      <point x="236" y="474" type="line" smooth="yes"/>
      <point x="236" y="414"/>
      <point x="200" y="371"/>
      <point x="149" y="362" type="curve"/>
      <point x="197" y="351"/>
      <point x="236" y="318"/>
      <point x="236" y="251" type="curve" smooth="yes"/>
      <point x="236" y="64" type="line" smooth="yes"/>
      <point x="236" y="37"/>
      <point x="253" y="20"/>
      <point x="276" y="20" type="curve" smooth="yes"/>
      <point x="306" y="20"/>
      <point x="321" y="5"/>
      <point x="321" y="-25" type="curve" smooth="yes"/>
      <point x="321" y="-64" type="line" smooth="yes"/>
      <point x="321" y="-94"/>
      <point x="306" y="-109"/>
      <point x="276" y="-109" type="curve" smooth="yes"/>
      <point x="230" y="-109" type="line" smooth="yes"/>
      <point x="138" y="-109"/>
      <point x="87" y="-51"/>
      <point x="87" y="52" type="curve" smooth="yes"/>
    </contour>
  </outline>
</glyph>
<glyph name="bar" format="1">
  <advance width="312"/>
  <unicode hex="007C"/>
  <outline>
    <contour>
      <point x="151" y="808" type="line" smooth="yes"/>
      <point x="181" y="808"/>
      <point x="196" y="793"/>
      <point x="196" y="763" type="curve" smooth="yes"/>
      <point x="196" y="-29" type="line" smooth="yes"/>
      <point x="196" y="-59"/>
      <point x="181" y="-74"/>
      <point x="151" y="-74" type="curve" smooth="yes"/>
      <point x="75" y="-74" type="line" smooth="yes"/>
      <point x="45" y="-74"/>
      <point x="30" y="-59"/>
      <point x="30" y="-29" type="curve" smooth="yes"/>
      <point x="30" y="763" type="line" smooth="yes"/>
      <point x="30" y="793"/>
      <point x="45" y="808"/>
      <point x="75" y="808" type="curve" smooth="yes"/>
    </contour>
  </outline>
</glyph>
<glyph name="braceright" format="1">
  <advance width="363"/>
  <unicode hex="007D"/>
  <outline>
    <contour>
      <point x="264" y="52" type="line" smooth="yes"/>
      <point x="264" y="-51"/>
      <point x="213" y="-109"/>
      <point x="121" y="-109" type="curve" smooth="yes"/>
      <point x="75" y="-109" type="line" smooth="yes"/>
      <point x="45" y="-109"/>
      <point x="30" y="-94"/>
      <point x="30" y="-64" type="curve" smooth="yes"/>
      <point x="30" y="-25" type="line" smooth="yes"/>
      <point x="30" y="5"/>
      <point x="45" y="20"/>
      <point x="75" y="20" type="curve" smooth="yes"/>
      <point x="98" y="20"/>
      <point x="115" y="37"/>
      <point x="115" y="64" type="curve" smooth="yes"/>
      <point x="115" y="251" type="line" smooth="yes"/>
      <point x="115" y="318"/>
      <point x="154" y="351"/>
      <point x="202" y="362" type="curve"/>
      <point x="151" y="371"/>
      <point x="115" y="414"/>
      <point x="115" y="474" type="curve" smooth="yes"/>
      <point x="115" y="661" type="line" smooth="yes"/>
      <point x="115" y="686"/>
      <point x="98" y="705"/>
      <point x="75" y="705" type="curve" smooth="yes"/>
      <point x="45" y="705"/>
      <point x="30" y="720"/>
      <point x="30" y="750" type="curve" smooth="yes"/>
      <point x="30" y="788" type="line" smooth="yes"/>
      <point x="30" y="818"/>
      <point x="45" y="833"/>
      <point x="75" y="833" type="curve" smooth="yes"/>
      <point x="121" y="833" type="line" smooth="yes"/>
      <point x="213" y="833"/>
      <point x="264" y="776"/>
      <point x="264" y="673" type="curve" smooth="yes"/>
      <point x="264" y="454" type="line" smooth="yes"/>
      <point x="264" y="427"/>
      <point x="279" y="413"/>
      <point x="309" y="413" type="curve" smooth="yes"/>
      <point x="317" y="413"/>
      <point x="321" y="398"/>
      <point x="321" y="368" type="curve" smooth="yes"/>
      <point x="321" y="357" type="line" smooth="yes"/>
      <point x="321" y="327"/>
      <point x="317" y="312"/>
      <point x="309" y="312" type="curve" smooth="yes"/>
      <point x="279" y="312"/>
      <point x="264" y="298"/>
      <point x="264" y="271" type="curve" smooth="yes"/>
    </contour>
  </outline>
</glyph>
<glyph name="cent" format="1">
  <advance width="656"/>
  <unicode hex="00A2"/>
  <outline>
    <contour>
      <point x="376" y="740" type="line" smooth="yes"/>
      <point x="406" y="740"/>
      <point x="421" y="725"/>
      <point x="421" y="695" type="curve" smooth="yes"/>
      <point x="421" y="615" type="line" smooth="yes"/>
      <point x="421" y="585"/>
      <point x="406" y="570"/>
      <point x="376" y="570" type="curve" smooth="yes"/>
      <point x="337" y="570" type="line" smooth="yes"/>
      <point x="307" y="570"/>
      <point x="292" y="585"/>
      <point x="292" y="615" type="curve" smooth="yes"/>
      <point x="292" y="695" type="line" smooth="yes"/>
      <point x="292" y="725"/>
      <point x="307" y="740"/>
      <point x="337" y="740" type="curve" smooth="yes"/>
    </contour>
    <contour>
      <point x="376" y="170" type="line" smooth="yes"/>
      <point x="406" y="170"/>
      <point x="421" y="155"/>
      <point x="421" y="125" type="curve" smooth="yes"/>
      <point x="421" y="45" type="line" smooth="yes"/>
      <point x="421" y="15"/>
      <point x="406" y="0"/>
      <point x="376" y="0" type="curve" smooth="yes"/>
      <point x="337" y="0" type="line" smooth="yes"/>
      <point x="307" y="0"/>
      <point x="292" y="15"/>
      <point x="292" y="45" type="curve" smooth="yes"/>
      <point x="292" y="125" type="line" smooth="yes"/>
      <point x="292" y="155"/>
      <point x="307" y="170"/>
      <point x="337" y="170" type="curve" smooth="yes"/>
    </contour>
    <component base="C" xOffset="48" yOffset="97" xScale="0.73" yScale="0.73"/>
  </outline>
</glyph>
<glyph name="dieresis" format="1">
  <advance width="380"/>
  <unicode hex="00A8"/>
  <outline>
    <contour>
      <point x="64" y="802"/>
      <point x="35" y="831"/>
      <point x="35" y="867" type="curve" smooth="yes"/>
      <point x="35" y="903"/>
      <point x="64" y="932"/>
      <point x="99" y="932" type="curve" smooth="yes"/>
      <point x="135" y="932"/>
      <point x="164" y="903"/>
      <point x="164" y="867" type="curve" smooth="yes"/>
      <point x="164" y="831"/>
      <point x="135" y="802"/>
      <point x="99" y="802" type="curve" smooth="yes"/>
    </contour>
    <contour>
      <point x="257" y="802"/>
      <point x="228" y="831"/>
      <point x="228" y="867" type="curve" smooth="yes"/>
      <point x="228" y="903"/>
      <point x="257" y="932"/>
      <point x="292" y="932" type="curve" smooth="yes"/>
      <point x="328" y="932"/>
      <point x="357" y="903"/>
      <point x="357" y="867" type="curve" smooth="yes"/>
      <point x="357" y="831"/>
      <point x="328" y="802"/>
      <point x="292" y="802" type="curve" smooth="yes"/>
    </contour>
  </outline>
</glyph>
<glyph name="copyright" format="1">
  <advance width="893"/>
  <unicode hex="00A9"/>
  <outline>
    <contour>
      <point x="311" y="-14"/>
      <point x="214" y="30"/>
      <point x="144" y="100" type="curve" smooth="yes"/>
      <point x="74" y="170"/>
      <point x="30" y="267"/>
      <point x="30" y="374" type="curve" smooth="yes"/>
      <point x="30" y="481"/>
      <point x="74" y="579"/>
      <point x="144" y="649" type="curve" smooth="yes"/>
      <point x="214" y="719"/>
      <point x="311" y="762"/>
      <point x="418" y="762" type="curve" smooth="yes"/>
      <point x="525" y="762"/>
      <point x="623" y="719"/>
      <point x="693" y="649" type="curve" smooth="yes"/>
      <point x="763" y="579"/>
      <point x="806" y="481"/>
      <point x="806" y="374" type="curve" smooth="yes"/>
      <point x="806" y="267"/>
      <point x="763" y="170"/>
      <point x="693" y="100" type="curve" smooth="yes"/>
      <point x="623" y="30"/>
      <point x="525" y="-14"/>
      <point x="418" y="-14" type="curve" smooth="yes"/>
    </contour>
    <contour>
      <point x="347" y="628"/>
      <point x="285" y="600"/>
      <point x="239" y="554" type="curve" smooth="yes"/>
      <point x="193" y="508"/>
      <point x="164" y="443"/>
      <point x="164" y="374" type="curve" smooth="yes"/>
      <point x="164" y="303"/>
      <point x="193" y="241"/>
      <point x="239" y="195" type="curve" smooth="yes"/>
      <point x="285" y="149"/>
      <point x="347" y="120"/>
      <point x="418" y="120" type="curve" smooth="yes"/>
      <point x="487" y="120"/>
      <point x="552" y="149"/>
      <point x="598" y="195" type="curve" smooth="yes"/>
      <point x="644" y="241"/>
      <point x="672" y="303"/>
      <point x="672" y="374" type="curve" smooth="yes"/>
      <point x="672" y="443"/>
      <point x="644" y="508"/>
      <point x="598" y="554" type="curve" smooth="yes"/>
      <point x="552" y="600"/>
      <point x="487" y="628"/>
      <point x="418" y="628" type="curve" smooth="yes"/>
    </contour>
    <contour>
      <point x="376" y="208"/>
      <point x="336" y="227"/>
      <point x="306" y="257" type="curve" smooth="yes"/>
      <point x="276" y="287"/>
      <point x="257" y="328"/>
      <point x="257" y="373" type="curve" smooth="yes"/>
      <point x="257" y="418"/>
      <point x="276" y="459"/>
      <point x="306" y="488" type="curve" smooth="yes"/>
      <point x="336" y="517"/>
      <point x="376" y="536"/>
      <point x="421" y="536" type="curve" smooth="yes"/>
      <point x="454" y="536"/>
      <point x="485" y="527"/>
      <point x="513" y="508" type="curve" smooth="yes"/>
      <point x="540" y="489"/>
      <point x="535" y="464"/>
      <point x="511" y="445" type="curve" smooth="yes"/>
      <point x="495" y="432"/>
      <point x="481" y="437"/>
      <point x="458" y="448" type="curve" smooth="yes"/>
      <point x="446" y="454"/>
      <point x="434" y="457"/>
      <point x="421" y="457" type="curve" smooth="yes"/>
      <point x="374" y="457"/>
      <point x="336" y="420"/>
      <point x="336" y="373" type="curve" smooth="yes"/>
      <point x="336" y="326"/>
      <point x="374" y="288"/>
      <point x="421" y="288" type="curve" smooth="yes"/>
      <point x="434" y="288"/>
      <point x="445" y="290"/>
      <point x="454" y="295" type="curve"/>
      <point x="478" y="306"/>
      <point x="495" y="312"/>
      <point x="516" y="293" type="curve"/>
      <point x="536" y="277"/>
      <point x="537" y="252"/>
      <point x="510" y="235" type="curve" smooth="yes"/>
      <point x="483" y="218"/>
      <point x="453" y="208"/>
      <point x="421" y="208" type="curve" smooth="yes"/>
    </contour>
  </outline>
</glyph>
<glyph name="registered" format="1">
  <advance width="833"/>
  <unicode hex="00AE"/>
  <outline>
    <contour>
      <point x="311" y="-14"/>
      <point x="214" y="30"/>
      <point x="144" y="100" type="curve" smooth="yes"/>
      <point x="74" y="170"/>
      <point x="30" y="267"/>
      <point x="30" y="374" type="curve" smooth="yes"/>
      <point x="30" y="481"/>
      <point x="74" y="579"/>
      <point x="144" y="649" type="curve" smooth="yes"/>
      <point x="214" y="719"/>
      <point x="311" y="762"/>
      <point x="418" y="762" type="curve" smooth="yes"/>
      <point x="525" y="762"/>
      <point x="623" y="719"/>
      <point x="693" y="649" type="curve" smooth="yes"/>
      <point x="763" y="579"/>
      <point x="806" y="481"/>
      <point x="806" y="374" type="curve" smooth="yes"/>
      <point x="806" y="267"/>
      <point x="763" y="170"/>
      <point x="693" y="100" type="curve" smooth="yes"/>
      <point x="623" y="30"/>
      <point x="525" y="-14"/>
      <point x="418" y="-14" type="curve" smooth="yes"/>
    </contour>
    <contour>
      <point x="347" y="628"/>
      <point x="285" y="600"/>
      <point x="239" y="554" type="curve" smooth="yes"/>
      <point x="193" y="508"/>
      <point x="164" y="443"/>
      <point x="164" y="374" type="curve" smooth="yes"/>
      <point x="164" y="303"/>
      <point x="193" y="241"/>
      <point x="239" y="195" type="curve" smooth="yes"/>
      <point x="285" y="149"/>
      <point x="347" y="120"/>
      <point x="418" y="120" type="curve" smooth="yes"/>
      <point x="487" y="120"/>
      <point x="552" y="149"/>
      <point x="598" y="195" type="curve" smooth="yes"/>
      <point x="644" y="241"/>
      <point x="672" y="303"/>
      <point x="672" y="374" type="curve" smooth="yes"/>
      <point x="672" y="443"/>
      <point x="644" y="508"/>
      <point x="598" y="554" type="curve" smooth="yes"/>
      <point x="552" y="600"/>
      <point x="487" y="628"/>
      <point x="418" y="628" type="curve" smooth="yes"/>
    </contour>
    <contour>
      <point x="533" y="395"/>
      <point x="522" y="366"/>
      <point x="501" y="350" type="curve"/>
      <point x="498" y="347"/>
      <point x="495" y="346"/>
      <point x="493" y="345" type="curve"/>
      <point x="490" y="344"/>
      <point x="489" y="343"/>
      <point x="488" y="343" type="curve"/>
      <point x="513" y="284" type="line" smooth="yes"/>
      <point x="526" y="253"/>
      <point x="513" y="232"/>
      <point x="478" y="232" type="curve" smooth="yes"/>
      <point x="463" y="232"/>
      <point x="451" y="244"/>
      <point x="442" y="268" type="curve" smooth="yes"/>
      <point x="417" y="334" type="line"/>
      <point x="382" y="334" type="line"/>
      <point x="382" y="277" type="line" smooth="yes"/>
      <point x="382" y="247"/>
      <point x="367" y="232"/>
      <point x="337" y="232" type="curve" smooth="yes"/>
      <point x="319" y="232"/>
      <point x="310" y="247"/>
      <point x="310" y="277" type="curve" smooth="yes"/>
      <point x="310" y="472" type="line" smooth="yes"/>
      <point x="310" y="502"/>
      <point x="325" y="517"/>
      <point x="355" y="517" type="curve" smooth="yes"/>
      <point x="444" y="517" type="line" smooth="yes"/>
      <point x="468" y="517"/>
      <point x="488" y="510"/>
      <point x="505" y="495" type="curve" smooth="yes"/>
      <point x="518" y="484"/>
      <point x="533" y="458"/>
      <point x="533" y="423" type="curve" smooth="yes"/>
    </contour>
    <contour>
      <point x="463" y="438"/>
      <point x="455" y="447"/>
      <point x="440" y="447" type="curve" smooth="yes"/>
      <point x="382" y="447" type="line"/>
      <point x="382" y="399" type="line"/>
      <point x="437" y="399" type="line" smooth="yes"/>
      <point x="452" y="399"/>
      <point x="463" y="408"/>
      <point x="463" y="423" type="curve" smooth="yes"/>
    </contour>
  </outline>
</glyph>
<glyph name="macron" format="1">
  <advance width="430"/>
  <unicode hex="00AF"/>
  <outline>
    <contour>
      <point x="367" y="897" type="line" smooth="yes"/>
      <point x="397" y="897"/>
      <point x="412" y="882"/>
      <point x="412" y="852" type="curve" smooth="yes"/>
      <point x="412" y="822"/>
      <point x="397" y="807"/>
      <point x="367" y="807" type="curve" smooth="yes"/>
      <point x="77" y="807" type="line" smooth="yes"/>
      <point x="47" y="807"/>
      <point x="32" y="822"/>
      <point x="32" y="852" type="curve" smooth="yes"/>
      <point x="32" y="882"/>
      <point x="47" y="897"/>
      <point x="77" y="897" type="curve" smooth="yes"/>
    </contour>
  </outline>
</glyph>
<glyph name="degree" format="1">
  <advance width="241"/>
  <unicode hex="00B0"/>
  <outline>
    <contour>
      <point x="99" y="578"/>
      <point x="75" y="589"/>
      <point x="57" y="607" type="curve" smooth="yes"/>
      <point x="39" y="625"/>
      <point x="27" y="647"/>
      <point x="27" y="674" type="curve" smooth="yes"/>
      <point x="27" y="702"/>
      <point x="39" y="728"/>
      <point x="57" y="746" type="curve" smooth="yes"/>
      <point x="75" y="764"/>
      <point x="99" y="775"/>
      <point x="126" y="775" type="curve" smooth="yes"/>
      <point x="154" y="775"/>
      <point x="179" y="764"/>
      <point x="197" y="746" type="curve" smooth="yes"/>
      <point x="215" y="728"/>
      <point x="226" y="702"/>
      <point x="226" y="674" type="curve" smooth="yes"/>
      <point x="226" y="647"/>
      <point x="215" y="625"/>
      <point x="197" y="607" type="curve" smooth="yes"/>
      <point x="179" y="589"/>
      <point x="154" y="578"/>
      <point x="126" y="578" type="curve" smooth="yes"/>
    </contour>
    <contour>
      <point x="105" y="714"/>
      <point x="86" y="697"/>
      <point x="86" y="674" type="curve" smooth="yes"/>
      <point x="86" y="654"/>
      <point x="105" y="636"/>
      <point x="126" y="636" type="curve" smooth="yes"/>
      <point x="149" y="636"/>
      <point x="166" y="654"/>
      <point x="166" y="674" type="curve" smooth="yes"/>
      <point x="166" y="697"/>
      <point x="149" y="714"/>
      <point x="126" y="714" type="curve" smooth="yes"/>
    </contour>
  </outline>
</glyph>
<glyph name="acute" format="1">
  <advance width="238"/>
  <unicode hex="00B4"/>
  <outline>
    <contour>
      <point x="212" y="983"/>
      <point x="264" y="900"/>
      <point x="191" y="852" type="curve" smooth="yes"/>
      <point x="160" y="832"/>
      <point x="124" y="814"/>
      <point x="95" y="805" type="curve" smooth="yes"/>
      <point x="80" y="800"/>
      <point x="67" y="798"/>
      <point x="56" y="798" type="curve" smooth="yes"/>
      <point x="33" y="798"/>
      <point x="25" y="811"/>
      <point x="34" y="831" type="curve"/>
      <point x="42" y="851"/>
      <point x="63" y="876"/>
      <point x="92" y="901" type="curve" smooth="yes"/>
      <point x="106" y="913"/>
      <point x="121" y="924"/>
      <point x="137" y="935" type="curve" smooth="yes"/>
    </contour>
  </outline>
</glyph>
<glyph name="cedilla" format="1">
  <advance width="306"/>
  <unicode hex="00B8"/>
  <outline>
    <contour>
      <point x="132" y="42"/>
      <point x="155" y="58"/>
      <point x="176" y="58" type="curve" smooth="yes"/>
      <point x="197" y="58"/>
      <point x="218" y="42"/>
      <point x="218" y="9" type="curve" smooth="yes"/>
      <point x="218" y="-2"/>
      <point x="218" y="-12"/>
      <point x="217" y="-20" type="curve" smooth="yes"/>
      <point x="215" y="-36"/>
      <point x="215" y="-46"/>
      <point x="221" y="-50" type="curve" smooth="yes"/>
      <point x="224" y="-52"/>
      <point x="229" y="-52"/>
      <point x="236" y="-51" type="curve"/>
      <point x="247" y="-49"/>
      <point x="259" y="-48"/>
      <point x="272" y="-48" type="curve" smooth="yes"/>
      <point x="297" y="-48"/>
      <point x="321" y="-58"/>
      <point x="339" y="-78" type="curve" smooth="yes"/>
      <point x="348" y="-88"/>
      <point x="354" y="-102"/>
      <point x="359" y="-120" type="curve" smooth="yes"/>
      <point x="376" y="-188"/>
      <point x="342" y="-231"/>
      <point x="265" y="-250" type="curve" smooth="yes"/>
      <point x="217" y="-262"/>
      <point x="177" y="-260"/>
      <point x="160" y="-252" type="curve" smooth="yes"/>
      <point x="145" y="-245"/>
      <point x="142" y="-227"/>
      <point x="150" y="-212" type="curve" smooth="yes"/>
      <point x="154" y="-205"/>
      <point x="163" y="-199"/>
      <point x="177" y="-194" type="curve"/>
      <point x="190" y="-190"/>
      <point x="209" y="-186"/>
      <point x="232" y="-182" type="curve" smooth="yes"/>
      <point x="269" y="-175"/>
      <point x="284" y="-157"/>
      <point x="283" y="-142" type="curve" smooth="yes"/>
      <point x="282" y="-127"/>
      <point x="265" y="-115"/>
      <point x="237" y="-123" type="curve" smooth="yes"/>
      <point x="202" y="-132"/>
      <point x="160" y="-142"/>
      <point x="137" y="-126" type="curve"/>
      <point x="128" y="-119"/>
      <point x="123" y="-102"/>
      <point x="123" y="-77" type="curve" smooth="yes"/>
      <point x="123" y="-52"/>
      <point x="125" y="-24"/>
      <point x="128" y="9" type="curve" smooth="yes"/>
    </contour>
  </outline>
</glyph>
<glyph name="ordmasculine" format="1">
  <advance width="229"/>
  <unicode hex="00BA"/>
  <outline>
    <contour>
      <point x="89" y="578"/>
      <point x="65" y="589"/>
      <point x="47" y="607" type="curve" smooth="yes"/>
      <point x="29" y="625"/>
      <point x="17" y="647"/>
      <point x="17" y="674" type="curve" smooth="yes"/>
      <point x="17" y="702"/>
      <point x="29" y="728"/>
      <point x="47" y="746" type="curve" smooth="yes"/>
      <point x="65" y="764"/>
      <point x="89" y="775"/>
      <point x="116" y="775" type="curve" smooth="yes"/>
      <point x="144" y="775"/>
      <point x="169" y="764"/>
      <point x="187" y="746" type="curve" smooth="yes"/>
      <point x="205" y="728"/>
      <point x="216" y="702"/>
      <point x="216" y="674" type="curve" smooth="yes"/>
      <point x="216" y="647"/>
      <point x="205" y="625"/>
      <point x="187" y="607" type="curve" smooth="yes"/>
      <point x="169" y="589"/>
      <point x="144" y="578"/>
      <point x="116" y="578" type="curve" smooth="yes"/>
    </contour>
    <contour>
      <point x="95" y="714"/>
      <point x="76" y="697"/>
      <point x="76" y="674" type="curve" smooth="yes"/>
      <point x="76" y="654"/>
      <point x="95" y="636"/>
      <point x="116" y="636" type="curve" smooth="yes"/>
      <point x="139" y="636"/>
      <point x="156" y="654"/>
      <point x="156" y="674" type="curve" smooth="yes"/>
      <point x="156" y="697"/>
      <point x="139" y="714"/>
      <point x="116" y="714" type="curve" smooth="yes"/>
    </contour>
  </outline>
</glyph>
<glyph name="Atilde" format="1">
  <advance width="824"/>
  <unicode hex="00C3"/>
  <outline>
    <contour>
      <point x="448" y="740" type="line" smooth="yes"/>
      <point x="473" y="740"/>
      <point x="491" y="728"/>
      <point x="500" y="704" type="curve" smooth="yes"/>
      <point x="728" y="52" type="line" smooth="yes"/>
      <point x="739" y="20"/>
      <point x="726" y="0"/>
      <point x="691" y="0" type="curve" smooth="yes"/>
      <point x="584" y="0" type="line" smooth="yes"/>
      <point x="558" y="0"/>
      <point x="541" y="12"/>
      <point x="533" y="37" type="curve" smooth="yes"/>
      <point x="502" y="128" type="line"/>
      <point x="282" y="128" type="line"/>
      <point x="251" y="37" type="line" smooth="yes"/>
      <point x="242" y="12"/>
      <point x="225" y="0"/>
      <point x="199" y="0" type="curve" smooth="yes"/>
      <point x="91" y="0" type="line" smooth="yes"/>
      <point x="56" y="0"/>
      <point x="43" y="20"/>
      <point x="54" y="52" type="curve" smooth="yes"/>
      <point x="283" y="704" type="line" smooth="yes"/>
      <point x="292" y="728"/>
      <point x="309" y="740"/>
      <point x="334" y="740" type="curve" smooth="yes"/>
    </contour>
    <contour>
      <point x="328" y="292" type="line"/>
      <point x="460" y="292" type="line"/>
      <point x="391" y="497" type="line"/>
    </contour>
    <contour>
      <point x="348" y="845"/>
      <point x="337" y="851"/>
      <point x="317" y="856" type="curve" smooth="yes"/>
      <point x="288" y="863"/>
      <point x="268" y="846"/>
      <point x="251" y="831" type="curve" smooth="yes"/>
      <point x="234" y="815"/>
      <point x="219" y="800"/>
      <point x="199" y="811" type="curve" smooth="yes"/>
      <point x="178" y="823"/>
      <point x="184" y="846"/>
      <point x="192" y="862" type="curve" smooth="yes"/>
      <point x="213" y="906"/>
      <point x="248" y="929"/>
      <point x="288" y="934" type="curve" smooth="yes"/>
      <point x="327" y="939"/>
      <point x="371" y="926"/>
      <point x="411" y="898" type="curve" smooth="yes"/>
      <point x="430" y="885"/>
      <point x="440" y="881"/>
      <point x="460" y="874" type="curve"/>
      <point x="489" y="867"/>
      <point x="509" y="884"/>
      <point x="526" y="900" type="curve" smooth="yes"/>
      <point x="542" y="915"/>
      <point x="558" y="930"/>
      <point x="578" y="919" type="curve" smooth="yes"/>
      <point x="599" y="907"/>
      <point x="593" y="885"/>
      <point x="586" y="869" type="curve"/>
      <point x="563" y="824"/>
      <point x="529" y="800"/>
      <point x="490" y="796" type="curve" smooth="yes"/>
      <point x="450" y="791"/>
      <point x="406" y="804"/>
      <point x="367" y="832" type="curve" smooth="yes"/>
    </contour>
  </outline>
</glyph>
<glyph name="Ccedilla" format="1">
  <advance width="815"/>
  <unicode hex="00C7"/>
  <outline>
    <contour>
      <point x="318" y="-19"/>
      <point x="221" y="24"/>
      <point x="150" y="95" type="curve" smooth="yes"/>
      <point x="79" y="166"/>
      <point x="36" y="263"/>
      <point x="36" y="370" type="curve" smooth="yes"/>
      <point x="36" y="478"/>
      <point x="79" y="574"/>
      <point x="150" y="645" type="curve" smooth="yes"/>
      <point x="221" y="716"/>
      <point x="318" y="759"/>
      <point x="425" y="759" type="curve" smooth="yes"/>
      <point x="529" y="759"/>
      <point x="626" y="719"/>
      <point x="699" y="647" type="curve" smooth="yes"/>
      <point x="720" y="626"/>
      <point x="717" y="603"/>
      <point x="693" y="584" type="curve" smooth="yes"/>
      <point x="614" y="522" type="line" smooth="yes"/>
      <point x="591" y="503"/>
      <point x="574" y="506"/>
      <point x="551" y="525" type="curve" smooth="yes"/>
      <point x="515" y="555"/>
      <point x="473" y="570"/>
      <point x="425" y="570" type="curve" smooth="yes"/>
      <point x="370" y="570"/>
      <point x="320" y="547"/>
      <point x="284" y="511" type="curve" smooth="yes"/>
      <point x="248" y="475"/>
      <point x="225" y="425"/>
      <point x="225" y="370" type="curve" smooth="yes"/>
      <point x="225" y="315"/>
      <point x="248" y="265"/>
      <point x="284" y="229" type="curve" smooth="yes"/>
      <point x="320" y="193"/>
      <point x="370" y="171"/>
      <point x="425" y="171" type="curve" smooth="yes"/>
      <point x="471" y="171"/>
      <point x="512" y="185"/>
      <point x="547" y="213" type="curve"/>
      <point x="570" y="230"/>
      <point x="588" y="234"/>
      <point x="611" y="215" type="curve" smooth="yes"/>
      <point x="688" y="150" type="line" smooth="yes"/>
      <point x="711" y="131"/>
      <point x="714" y="107"/>
      <point x="691" y="86" type="curve" smooth="yes"/>
      <point x="619" y="18"/>
      <point x="525" y="-19"/>
      <point x="425" y="-19" type="curve" smooth="yes"/>
    </contour>
    <contour>
      <point x="351" y="42"/>
      <point x="374" y="58"/>
      <point x="395" y="58" type="curve" smooth="yes"/>
      <point x="416" y="58"/>
      <point x="437" y="42"/>
      <point x="437" y="9" type="curve" smooth="yes"/>
      <point x="437" y="-2"/>
      <point x="437" y="-12"/>
      <point x="436" y="-20" type="curve" smooth="yes"/>
      <point x="434" y="-36"/>
      <point x="434" y="-46"/>
      <point x="440" y="-50" type="curve" smooth="yes"/>
      <point x="443" y="-52"/>
      <point x="448" y="-52"/>
      <point x="455" y="-51" type="curve"/>
      <point x="466" y="-49"/>
      <point x="478" y="-48"/>
      <point x="491" y="-48" type="curve" smooth="yes"/>
      <point x="516" y="-48"/>
      <point x="540" y="-58"/>
      <point x="558" y="-78" type="curve" smooth="yes"/>
      <point x="567" y="-88"/>
      <point x="573" y="-102"/>
      <point x="578" y="-120" type="curve" smooth="yes"/>
      <point x="595" y="-188"/>
      <point x="561" y="-231"/>
      <point x="484" y="-250" type="curve" smooth="yes"/>
      <point x="436" y="-262"/>
      <point x="396" y="-260"/>
      <point x="379" y="-252" type="curve" smooth="yes"/>
      <point x="364" y="-245"/>
      <point x="361" y="-227"/>
      <point x="369" y="-212" type="curve" smooth="yes"/>
      <point x="373" y="-205"/>
      <point x="382" y="-199"/>
      <point x="396" y="-194" type="curve"/>
      <point x="409" y="-190"/>
      <point x="428" y="-186"/>
      <point x="451" y="-182" type="curve" smooth="yes"/>
      <point x="488" y="-175"/>
      <point x="503" y="-157"/>
      <point x="502" y="-142" type="curve" smooth="yes"/>
      <point x="501" y="-127"/>
      <point x="484" y="-115"/>
      <point x="456" y="-123" type="curve" smooth="yes"/>
      <point x="421" y="-132"/>
      <point x="379" y="-142"/>
      <point x="356" y="-126" type="curve"/>
      <point x="347" y="-119"/>
      <point x="342" y="-102"/>
      <point x="342" y="-77" type="curve" smooth="yes"/>
      <point x="342" y="-52"/>
      <point x="344" y="-24"/>
      <point x="347" y="9" type="curve" smooth="yes"/>
    </contour>
  </outline>
</glyph>
<glyph name="Eacute" format="1">
  <advance width="693"/>
  <unicode hex="00C9"/>
  <outline>
    <contour>
      <point x="559" y="45" type="line" smooth="yes"/>
      <point x="559" y="15"/>
      <point x="544" y="0"/>
      <point x="514" y="0" type="curve" smooth="yes"/>
      <point x="85" y="0" type="line" smooth="yes"/>
      <point x="55" y="0"/>
      <point x="40" y="15"/>
      <point x="40" y="45" type="curve" smooth="yes"/>
      <point x="40" y="695" type="line" smooth="yes"/>
      <point x="40" y="725"/>
      <point x="55" y="740"/>
      <point x="85" y="740" type="curve" smooth="yes"/>
      <point x="514" y="740" type="line" smooth="yes"/>
      <point x="544" y="740"/>
      <point x="559" y="725"/>
      <point x="559" y="695" type="curve" smooth="yes"/>
      <point x="559" y="596" type="line" smooth="yes"/>
      <point x="559" y="566"/>
      <point x="544" y="551"/>
      <point x="514" y="551" type="curve" smooth="yes"/>
      <point x="229" y="551" type="line"/>
      <point x="229" y="458" type="line"/>
      <point x="439" y="458" type="line" smooth="yes"/>
      <point x="469" y="458"/>
      <point x="484" y="443"/>
      <point x="484" y="413" type="curve" smooth="yes"/>
      <point x="484" y="328" type="line" smooth="yes"/>
      <point x="484" y="298"/>
      <point x="469" y="283"/>
      <point x="439" y="283" type="curve" smooth="yes"/>
      <point x="229" y="283" type="line"/>
      <point x="229" y="189" type="line"/>
      <point x="514" y="189" type="line" smooth="yes"/>
      <point x="544" y="189"/>
      <point x="559" y="174"/>
      <point x="559" y="144" type="curve" smooth="yes"/>
    </contour>
    <contour>
      <point x="402" y="983"/>
      <point x="454" y="900"/>
      <point x="381" y="852" type="curve" smooth="yes"/>
      <point x="350" y="832"/>
      <point x="314" y="814"/>
      <point x="285" y="805" type="curve" smooth="yes"/>
      <point x="270" y="800"/>
      <point x="257" y="798"/>
      <point x="246" y="798" type="curve" smooth="yes"/>
      <point x="223" y="798"/>
      <point x="215" y="811"/>
      <point x="224" y="831" type="curve"/>
      <point x="232" y="851"/>
      <point x="253" y="876"/>
      <point x="282" y="901" type="curve" smooth="yes"/>
      <point x="296" y="913"/>
      <point x="311" y="924"/>
      <point x="327" y="935" type="curve" smooth="yes"/>
    </contour>
  </outline>
</glyph>
<glyph name="Ecircumflex" format="1">
  <advance width="693"/>
  <unicode hex="00CA"/>
  <outline>
    <contour>
      <point x="559" y="45" type="line" smooth="yes"/>
      <point x="559" y="15"/>
      <point x="544" y="0"/>
      <point x="514" y="0" type="curve" smooth="yes"/>
      <point x="85" y="0" type="line" smooth="yes"/>
      <point x="55" y="0"/>
      <point x="40" y="15"/>
      <point x="40" y="45" type="curve" smooth="yes"/>
      <point x="40" y="695" type="line" smooth="yes"/>
      <point x="40" y="725"/>
      <point x="55" y="740"/>
      <point x="85" y="740" type="curve" smooth="yes"/>
      <point x="514" y="740" type="line" smooth="yes"/>
      <point x="544" y="740"/>
      <point x="559" y="725"/>
      <point x="559" y="695" type="curve" smooth="yes"/>
      <point x="559" y="596" type="line" smooth="yes"/>
      <point x="559" y="566"/>
      <point x="544" y="551"/>
      <point x="514" y="551" type="curve" smooth="yes"/>
      <point x="229" y="551" type="line"/>
      <point x="229" y="458" type="line"/>
      <point x="439" y="458" type="line" smooth="yes"/>
      <point x="469" y="458"/>
      <point x="484" y="443"/>
      <point x="484" y="413" type="curve" smooth="yes"/>
      <point x="484" y="328" type="line" smooth="yes"/>
      <point x="484" y="298"/>
      <point x="469" y="283"/>
      <point x="439" y="283" type="curve" smooth="yes"/>
      <point x="229" y="283" type="line"/>
      <point x="229" y="189" type="line"/>
      <point x="514" y="189" type="line" smooth="yes"/>
      <point x="544" y="189"/>
      <point x="559" y="174"/>
      <point x="559" y="144" type="curve" smooth="yes"/>
    </contour>
    <contour>
      <point x="248" y="820" type="line" smooth="yes"/>
      <point x="236" y="806"/>
      <point x="221" y="799"/>
      <point x="202" y="799" type="curve" smooth="yes"/>
      <point x="187" y="799" type="line" smooth="yes"/>
      <point x="156" y="799"/>
      <point x="146" y="820"/>
      <point x="166" y="845" type="curve" smooth="yes"/>
      <point x="241" y="938" type="line" smooth="yes"/>
      <point x="253" y="952"/>
      <point x="268" y="959"/>
      <point x="287" y="959" type="curve" smooth="yes"/>
      <point x="289" y="959" type="line" smooth="yes"/>
      <point x="308" y="959"/>
      <point x="323" y="952"/>
      <point x="334" y="938" type="curve" smooth="yes"/>
      <point x="409" y="845" type="line" smooth="yes"/>
      <point x="430" y="820"/>
      <point x="420" y="799"/>
      <point x="388" y="799" type="curve" smooth="yes"/>
      <point x="374" y="799" type="line" smooth="yes"/>
      <point x="355" y="799"/>
      <point x="339" y="806"/>
      <point x="327" y="820" type="curve" smooth="yes"/>
      <point x="288" y="867" type="line"/>
    </contour>
  </outline>
</glyph>
<glyph name="Edieresis" format="1">
  <advance width="693"/>
  <unicode hex="00CB"/>
  <outline>
    <contour>
      <point x="559" y="45" type="line" smooth="yes"/>
      <point x="559" y="15"/>
      <point x="544" y="0"/>
      <point x="514" y="0" type="curve" smooth="yes"/>
      <point x="85" y="0" type="line" smooth="yes"/>
      <point x="55" y="0"/>
      <point x="40" y="15"/>
      <point x="40" y="45" type="curve" smooth="yes"/>
      <point x="40" y="695" type="line" smooth="yes"/>
      <point x="40" y="725"/>
      <point x="55" y="740"/>
      <point x="85" y="740" type="curve" smooth="yes"/>
      <point x="514" y="740" type="line" smooth="yes"/>
      <point x="544" y="740"/>
      <point x="559" y="725"/>
      <point x="559" y="695" type="curve" smooth="yes"/>
      <point x="559" y="596" type="line" smooth="yes"/>
      <point x="559" y="566"/>
      <point x="544" y="551"/>
      <point x="514" y="551" type="curve" smooth="yes"/>
      <point x="229" y="551" type="line"/>
      <point x="229" y="458" type="line"/>
      <point x="439" y="458" type="line" smooth="yes"/>
      <point x="469" y="458"/>
      <point x="484" y="443"/>
      <point x="484" y="413" type="curve" smooth="yes"/>
      <point x="484" y="328" type="line" smooth="yes"/>
      <point x="484" y="298"/>
      <point x="469" y="283"/>
      <point x="439" y="283" type="curve" smooth="yes"/>
      <point x="229" y="283" type="line"/>
      <point x="229" y="189" type="line"/>
      <point x="514" y="189" type="line" smooth="yes"/>
      <point x="544" y="189"/>
      <point x="559" y="174"/>
      <point x="559" y="144" type="curve" smooth="yes"/>
    </contour>
    <contour>
      <point x="153" y="802"/>
      <point x="124" y="831"/>
      <point x="124" y="867" type="curve" smooth="yes"/>
      <point x="124" y="903"/>
      <point x="153" y="932"/>
      <point x="188" y="932" type="curve" smooth="yes"/>
      <point x="224" y="932"/>
      <point x="253" y="903"/>
      <point x="253" y="867" type="curve" smooth="yes"/>
      <point x="253" y="831"/>
      <point x="224" y="802"/>
      <point x="188" y="802" type="curve" smooth="yes"/>
    </contour>
    <contour>
      <point x="346" y="802"/>
      <point x="317" y="831"/>
      <point x="317" y="867" type="curve" smooth="yes"/>
      <point x="317" y="903"/>
      <point x="346" y="932"/>
      <point x="381" y="932" type="curve" smooth="yes"/>
      <point x="417" y="932"/>
      <point x="446" y="903"/>
      <point x="446" y="867" type="curve" smooth="yes"/>
      <point x="446" y="831"/>
      <point x="417" y="802"/>
      <point x="381" y="802" type="curve" smooth="yes"/>
    </contour>
  </outline>
</glyph>
<glyph name="Igrave" format="1">
  <advance width="348"/>
  <unicode hex="00CC"/>
  <outline>
    <contour>
      <point x="184" y="740" type="line" smooth="yes"/>
      <point x="214" y="740"/>
      <point x="229" y="725"/>
      <point x="229" y="695" type="curve" smooth="yes"/>
      <point x="229" y="45" type="line" smooth="yes"/>
      <point x="229" y="15"/>
      <point x="214" y="0"/>
      <point x="184" y="0" type="curve" smooth="yes"/>
      <point x="85" y="0" type="line" smooth="yes"/>
      <point x="55" y="0"/>
      <point x="40" y="15"/>
      <point x="40" y="45" type="curve" smooth="yes"/>
      <point x="40" y="695" type="line" smooth="yes"/>
      <point x="40" y="725"/>
      <point x="55" y="740"/>
      <point x="85" y="740" type="curve" smooth="yes"/>
    </contour>
    <contour>
      <point x="113" y="914"/>
      <point x="143" y="888"/>
      <point x="163" y="864" type="curve" smooth="yes"/>
      <point x="183" y="840"/>
      <point x="193" y="819"/>
      <point x="185" y="807" type="curve" smooth="yes"/>
      <point x="181" y="801"/>
      <point x="173" y="798"/>
      <point x="162" y="798" type="curve" smooth="yes"/>
      <point x="139" y="798"/>
      <point x="110" y="808"/>
      <point x="76" y="825" type="curve" smooth="yes"/>
      <point x="42" y="841"/>
      <point x="-37" y="874"/>
      <point x="-1" y="930" type="curve" smooth="yes"/>
      <point x="16" y="957"/>
      <point x="44" y="959"/>
      <point x="81" y="935" type="curve" smooth="yes"/>
    </contour>
  </outline>
</glyph>
<glyph name="Ograve" format="1">
  <advance width="913"/>
  <unicode hex="00D2"/>
  <outline>
    <contour>
      <point x="321" y="-18"/>
      <point x="225" y="26"/>
      <point x="154" y="96" type="curve" smooth="yes"/>
      <point x="83" y="166"/>
      <point x="40" y="263"/>
      <point x="40" y="370" type="curve" smooth="yes"/>
      <point x="40" y="478"/>
      <point x="83" y="574"/>
      <point x="154" y="645" type="curve" smooth="yes"/>
      <point x="225" y="716"/>
      <point x="321" y="759"/>
      <point x="429" y="759" type="curve" smooth="yes"/>
      <point x="536" y="759"/>
      <point x="633" y="716"/>
      <point x="704" y="645" type="curve" smooth="yes"/>
      <point x="775" y="574"/>
      <point x="818" y="478"/>
      <point x="818" y="370" type="curve" smooth="yes"/>
      <point x="818" y="263"/>
      <point x="775" y="166"/>
      <point x="704" y="96" type="curve" smooth="yes"/>
      <point x="633" y="26"/>
      <point x="536" y="-18"/>
      <point x="429" y="-18" type="curve" smooth="yes"/>
    </contour>
    <contour>
      <point x="374" y="570"/>
      <point x="324" y="547"/>
      <point x="288" y="511" type="curve" smooth="yes"/>
      <point x="252" y="475"/>
      <point x="229" y="425"/>
      <point x="229" y="370" type="curve" smooth="yes"/>
      <point x="229" y="315"/>
      <point x="252" y="265"/>
      <point x="288" y="229" type="curve" smooth="yes"/>
      <point x="324" y="193"/>
      <point x="374" y="171"/>
      <point x="429" y="171" type="curve" smooth="yes"/>
      <point x="484" y="171"/>
      <point x="534" y="193"/>
      <point x="570" y="229" type="curve" smooth="yes"/>
      <point x="606" y="265"/>
      <point x="628" y="315"/>
      <point x="628" y="370" type="curve" smooth="yes"/>
      <point x="628" y="425"/>
      <point x="606" y="475"/>
      <point x="570" y="511" type="curve" smooth="yes"/>
      <point x="534" y="547"/>
      <point x="484" y="570"/>
      <point x="429" y="570" type="curve" smooth="yes"/>
    </contour>
    <contour>
      <point x="391" y="914"/>
      <point x="421" y="888"/>
      <point x="441" y="864" type="curve" smooth="yes"/>
      <point x="461" y="840"/>
      <point x="471" y="819"/>
      <point x="463" y="807" type="curve" smooth="yes"/>
      <point x="459" y="801"/>
      <point x="451" y="798"/>
      <point x="440" y="798" type="curve" smooth="yes"/>
      <point x="417" y="798"/>
      <point x="388" y="808"/>
      <point x="354" y="825" type="curve" smooth="yes"/>
      <point x="320" y="841"/>
      <point x="241" y="874"/>
      <point x="277" y="930" type="curve" smooth="yes"/>
      <point x="294" y="957"/>
      <point x="322" y="959"/>
      <point x="359" y="935" type="curve" smooth="yes"/>
    </contour>
  </outline>
</glyph>
<glyph name="Otilde" format="1">
  <advance width="913"/>
  <unicode hex="00D5"/>
  <outline>
    <contour>
      <point x="321" y="-18"/>
      <point x="225" y="26"/>
      <point x="154" y="96" type="curve" smooth="yes"/>
      <point x="83" y="166"/>
      <point x="40" y="263"/>
      <point x="40" y="370" type="curve" smooth="yes"/>
      <point x="40" y="478"/>
      <point x="83" y="574"/>
      <point x="154" y="645" type="curve" smooth="yes"/>
      <point x="225" y="716"/>
      <point x="321" y="759"/>
      <point x="429" y="759" type="curve" smooth="yes"/>
      <point x="536" y="759"/>
      <point x="633" y="716"/>
      <point x="704" y="645" type="curve" smooth="yes"/>
      <point x="775" y="574"/>
      <point x="818" y="478"/>
      <point x="818" y="370" type="curve" smooth="yes"/>
      <point x="818" y="263"/>
      <point x="775" y="166"/>
      <point x="704" y="96" type="curve" smooth="yes"/>
      <point x="633" y="26"/>
      <point x="536" y="-18"/>
      <point x="429" y="-18" type="curve" smooth="yes"/>
    </contour>
    <contour>
      <point x="374" y="570"/>
      <point x="324" y="547"/>
      <point x="288" y="511" type="curve" smooth="yes"/>
      <point x="252" y="475"/>
      <point x="229" y="425"/>
      <point x="229" y="370" type="curve" smooth="yes"/>
      <point x="229" y="315"/>
      <point x="252" y="265"/>
      <point x="288" y="229" type="curve" smooth="yes"/>
      <point x="324" y="193"/>
      <point x="374" y="171"/>
      <point x="429" y="171" type="curve" smooth="yes"/>
      <point x="484" y="171"/>
      <point x="534" y="193"/>
      <point x="570" y="229" type="curve" smooth="yes"/>
      <point x="606" y="265"/>
      <point x="628" y="315"/>
      <point x="628" y="370" type="curve" smooth="yes"/>
      <point x="628" y="425"/>
      <point x="606" y="475"/>
      <point x="570" y="511" type="curve" smooth="yes"/>
      <point x="534" y="547"/>
      <point x="484" y="570"/>
      <point x="429" y="570" type="curve" smooth="yes"/>
    </contour>
    <contour>
      <point x="400" y="845"/>
      <point x="389" y="851"/>
      <point x="369" y="856" type="curve" smooth="yes"/>
      <point x="340" y="863"/>
      <point x="320" y="846"/>
      <point x="303" y="831" type="curve" smooth="yes"/>
      <point x="286" y="815"/>
      <point x="271" y="800"/>
      <point x="251" y="811" type="curve" smooth="yes"/>
      <point x="230" y="823"/>
      <point x="236" y="846"/>
      <point x="244" y="862" type="curve" smooth="yes"/>
      <point x="265" y="906"/>
      <point x="300" y="929"/>
      <point x="340" y="934" type="curve" smooth="yes"/>
      <point x="379" y="939"/>
      <point x="423" y="926"/>
      <point x="463" y="898" type="curve" smooth="yes"/>
      <point x="482" y="885"/>
      <point x="492" y="881"/>
      <point x="512" y="874" type="curve"/>
      <point x="541" y="867"/>
      <point x="561" y="884"/>
      <point x="578" y="900" type="curve" smooth="yes"/>
      <point x="594" y="915"/>
      <point x="610" y="930"/>
      <point x="630" y="919" type="curve" smooth="yes"/>
      <point x="651" y="907"/>
      <point x="645" y="885"/>
      <point x="638" y="869" type="curve"/>
      <point x="615" y="824"/>
      <point x="581" y="800"/>
      <point x="542" y="796" type="curve" smooth="yes"/>
      <point x="502" y="791"/>
      <point x="458" y="804"/>
      <point x="419" y="832" type="curve" smooth="yes"/>
    </contour>
  </outline>
</glyph>
<glyph name="Udieresis" format="1">
  <advance width="846"/>
  <unicode hex="00DC"/>
  <outline>
    <contour>
      <point x="726" y="347" type="line" smooth="yes"/>
      <point x="725" y="255"/>
      <point x="691" y="163"/>
      <point x="632" y="95" type="curve" smooth="yes"/>
      <point x="572" y="27"/>
      <point x="487" y="-18"/>
      <point x="383" y="-18" type="curve" smooth="yes"/>
      <point x="283" y="-18"/>
      <point x="198" y="23"/>
      <point x="138" y="90" type="curve" smooth="yes"/>
      <point x="78" y="157"/>
      <point x="43" y="248"/>
      <point x="40" y="347" type="curve"/>
      <point x="40" y="695" type="line" smooth="yes"/>
      <point x="40" y="725"/>
      <point x="55" y="740"/>
      <point x="85" y="740" type="curve" smooth="yes"/>
      <point x="184" y="740" type="line" smooth="yes"/>
      <point x="214" y="740"/>
      <point x="229" y="725"/>
      <point x="229" y="695" type="curve" smooth="yes"/>
      <point x="229" y="347" type="line" smooth="yes"/>
      <point x="229" y="295"/>
      <point x="246" y="250"/>
      <point x="274" y="218" type="curve" smooth="yes"/>
      <point x="302" y="185"/>
      <point x="340" y="166"/>
      <point x="383" y="166" type="curve" smooth="yes"/>
      <point x="424" y="166"/>
      <point x="463" y="185"/>
      <point x="491" y="218" type="curve" smooth="yes"/>
      <point x="519" y="250"/>
      <point x="536" y="295"/>
      <point x="536" y="347" type="curve" smooth="yes"/>
      <point x="536" y="695" type="line" smooth="yes"/>
      <point x="536" y="725"/>
      <point x="551" y="740"/>
      <point x="581" y="740" type="curve" smooth="yes"/>
      <point x="681" y="740" type="line" smooth="yes"/>
      <point x="711" y="740"/>
      <point x="726" y="725"/>
      <point x="726" y="695" type="curve" smooth="yes"/>
    </contour>
    <contour>
      <point x="248" y="802"/>
      <point x="219" y="831"/>
      <point x="219" y="867" type="curve" smooth="yes"/>
      <point x="219" y="903"/>
      <point x="248" y="932"/>
      <point x="283" y="932" type="curve" smooth="yes"/>
      <point x="319" y="932"/>
      <point x="348" y="903"/>
      <point x="348" y="867" type="curve" smooth="yes"/>
      <point x="348" y="831"/>
      <point x="319" y="802"/>
      <point x="283" y="802" type="curve" smooth="yes"/>
    </contour>
    <contour>
      <point x="441" y="802"/>
      <point x="412" y="831"/>
      <point x="412" y="867" type="curve" smooth="yes"/>
      <point x="412" y="903"/>
      <point x="441" y="932"/>
      <point x="476" y="932" type="curve" smooth="yes"/>
      <point x="512" y="932"/>
      <point x="541" y="903"/>
      <point x="541" y="867" type="curve" smooth="yes"/>
      <point x="541" y="831"/>
      <point x="512" y="802"/>
      <point x="476" y="802" type="curve" smooth="yes"/>
    </contour>
  </outline>
</glyph>
<glyph name="Yacute" format="1">
  <advance width="757"/>
  <unicode hex="00DD"/>
  <outline>
    <contour>
      <point x="322" y="0" type="line" smooth="yes"/>
      <point x="292" y="0"/>
      <point x="277" y="15"/>
      <point x="277" y="45" type="curve" smooth="yes"/>
      <point x="277" y="344" type="line"/>
      <point x="64" y="686" type="line" smooth="yes"/>
      <point x="45" y="717"/>
      <point x="57" y="740"/>
      <point x="94" y="740" type="curve" smooth="yes"/>
      <point x="213" y="740" type="line" smooth="yes"/>
      <point x="236" y="740"/>
      <point x="254" y="730"/>
      <point x="267" y="710" type="curve" smooth="yes"/>
      <point x="371" y="543" type="line"/>
      <point x="475" y="710" type="line" smooth="yes"/>
      <point x="488" y="730"/>
      <point x="506" y="740"/>
      <point x="529" y="740" type="curve" smooth="yes"/>
      <point x="648" y="740" type="line" smooth="yes"/>
      <point x="685" y="740"/>
      <point x="698" y="717"/>
      <point x="678" y="686" type="curve" smooth="yes"/>
      <point x="466" y="344" type="line"/>
      <point x="466" y="45" type="line" smooth="yes"/>
      <point x="466" y="15"/>
      <point x="451" y="0"/>
      <point x="421" y="0" type="curve" smooth="yes"/>
    </contour>
    <contour>
      <point x="489" y="983"/>
      <point x="541" y="900"/>
      <point x="468" y="852" type="curve" smooth="yes"/>
      <point x="437" y="832"/>
      <point x="401" y="814"/>
      <point x="372" y="805" type="curve" smooth="yes"/>
      <point x="357" y="800"/>
      <point x="344" y="798"/>
      <point x="333" y="798" type="curve" smooth="yes"/>
      <point x="310" y="798"/>
      <point x="302" y="811"/>
      <point x="311" y="831" type="curve"/>
      <point x="319" y="851"/>
      <point x="340" y="876"/>
      <point x="369" y="901" type="curve" smooth="yes"/>
      <point x="383" y="913"/>
      <point x="398" y="924"/>
      <point x="414" y="935" type="curve" smooth="yes"/>
    </contour>
  </outline>
</glyph>
<glyph name="Thorn" format="1">
  <advance width="756"/>
  <unicode hex="00DE"/>
  <outline>
    <contour>
      <point x="416" y="624" type="line" smooth="yes"/>
      <point x="482" y="623"/>
      <point x="547" y="599"/>
      <point x="596" y="557" type="curve" smooth="yes"/>
      <point x="644" y="514"/>
      <point x="676" y="454"/>
      <point x="676" y="380" type="curve" smooth="yes"/>
      <point x="676" y="309"/>
      <point x="647" y="248"/>
      <point x="599" y="206" type="curve" smooth="yes"/>
      <point x="551" y="163"/>
      <point x="487" y="138"/>
      <point x="416" y="136" type="curve"/>
      <point x="169" y="136" type="line" smooth="yes"/>
      <point x="148" y="136"/>
      <point x="137" y="147"/>
      <point x="137" y="168" type="curve" smooth="yes"/>
      <point x="137" y="268" type="line" smooth="yes"/>
      <point x="137" y="290"/>
      <point x="148" y="300"/>
      <point x="169" y="300" type="curve" smooth="yes"/>
      <point x="415" y="300" type="line" smooth="yes"/>
      <point x="492" y="300"/>
      <point x="510" y="349"/>
      <point x="510" y="380" type="curve" smooth="yes"/>
      <point x="510" y="409"/>
      <point x="492" y="459"/>
      <point x="415" y="459" type="curve" smooth="yes"/>
      <point x="169" y="459" type="line" smooth="yes"/>
      <point x="148" y="459"/>
      <point x="137" y="469"/>
      <point x="137" y="491" type="curve" smooth="yes"/>
      <point x="137" y="592" type="line" smooth="yes"/>
      <point x="137" y="613"/>
      <point x="148" y="624"/>
      <point x="169" y="624" type="curve" smooth="yes"/>
    </contour>
    <component base="I"/>
  </outline>
</glyph>
<glyph name="germandbls" format="1">
  <advance width="705"/>
  <unicode hex="00DF"/>
  <outline>
    <contour>
      <point x="295" y="-19"/>
      <point x="253" y="-8"/>
      <point x="261" y="30" type="curve"/>
      <point x="278" y="114" type="line"/>
      <point x="286" y="153"/>
      <point x="319" y="149"/>
      <point x="334" y="148" type="curve" smooth="yes"/>
      <point x="361" y="147"/>
      <point x="394" y="155"/>
      <point x="412" y="168" type="curve" smooth="yes"/>
      <point x="430" y="181"/>
      <point x="437" y="194"/>
      <point x="441" y="219" type="curve"/>
      <point x="443" y="236"/>
      <point x="437" y="255"/>
      <point x="424" y="269" type="curve" smooth="yes"/>
      <point x="412" y="281"/>
      <point x="394" y="292"/>
      <point x="358" y="299" type="curve" smooth="yes"/>
      <point x="327" y="304"/>
      <point x="311" y="317"/>
      <point x="311" y="345" type="curve" smooth="yes"/>
      <point x="311" y="392" type="line" smooth="yes"/>
      <point x="311" y="420"/>
      <point x="326" y="432"/>
      <point x="357" y="439" type="curve" smooth="yes"/>
      <point x="393" y="446"/>
      <point x="412" y="459"/>
      <point x="422" y="475" type="curve" smooth="yes"/>
      <point x="432" y="490"/>
      <point x="432" y="505"/>
      <point x="429" y="527" type="curve"/>
      <point x="421" y="570"/>
      <point x="390" y="592"/>
      <point x="334" y="592" type="curve" smooth="yes"/>
      <point x="276" y="592"/>
      <point x="217" y="549"/>
      <point x="217" y="430" type="curve" smooth="yes"/>
      <point x="217" y="400"/>
      <point x="217" y="184"/>
      <point x="217" y="184" type="curve" smooth="yes"/>
      <point x="45" y="184" type="line" smooth="yes"/>
      <point x="45" y="184"/>
      <point x="45" y="441"/>
      <point x="45" y="475" type="curve" smooth="yes"/>
      <point x="45" y="595"/>
      <point x="103" y="667"/>
      <point x="144" y="699" type="curve" smooth="yes"/>
      <point x="185" y="730"/>
      <point x="240" y="756"/>
      <point x="319" y="761" type="curve" smooth="yes"/>
      <point x="407" y="766"/>
      <point x="472" y="742"/>
      <point x="518" y="708" type="curve" smooth="yes"/>
      <point x="564" y="674"/>
      <point x="589" y="631"/>
      <point x="597" y="603" type="curve" smooth="yes"/>
      <point x="610" y="552"/>
      <point x="607" y="501"/>
      <point x="589" y="458" type="curve" smooth="yes"/>
      <point x="571" y="415"/>
      <point x="541" y="383"/>
      <point x="505" y="371" type="curve"/>
      <point x="522" y="367"/>
      <point x="623" y="321"/>
      <point x="623" y="207" type="curve" smooth="yes"/>
      <point x="623" y="37"/>
      <point x="501" y="-19"/>
      <point x="334" y="-19" type="curve" smooth="yes"/>
    </contour>
    <contour>
      <point x="172" y="347" type="line" smooth="yes"/>
      <point x="202" y="347"/>
      <point x="217" y="332"/>
      <point x="217" y="302" type="curve" smooth="yes"/>
      <point x="217" y="45" type="line" smooth="yes"/>
      <point x="217" y="15"/>
      <point x="202" y="0"/>
      <point x="172" y="0" type="curve" smooth="yes"/>
      <point x="90" y="0" type="line" smooth="yes"/>
      <point x="60" y="0"/>
      <point x="45" y="15"/>
      <point x="45" y="45" type="curve" smooth="yes"/>
      <point x="45" y="302" type="line" smooth="yes"/>
      <point x="45" y="332"/>
      <point x="60" y="347"/>
      <point x="90" y="347" type="curve" smooth="yes"/>
    </contour>
  </outline>
</glyph>
<glyph name="agrave" format="1">
  <advance width="824"/>
  <unicode hex="00E0"/>
  <outline>
    <contour>
      <point x="448" y="740" type="line" smooth="yes"/>
      <point x="473" y="740"/>
      <point x="491" y="728"/>
      <point x="500" y="704" type="curve" smooth="yes"/>
      <point x="728" y="52" type="line" smooth="yes"/>
      <point x="739" y="20"/>
      <point x="726" y="0"/>
      <point x="691" y="0" type="curve" smooth="yes"/>
      <point x="584" y="0" type="line" smooth="yes"/>
      <point x="558" y="0"/>
      <point x="541" y="12"/>
      <point x="533" y="37" type="curve" smooth="yes"/>
      <point x="502" y="128" type="line"/>
      <point x="282" y="128" type="line"/>
      <point x="251" y="37" type="line" smooth="yes"/>
      <point x="242" y="12"/>
      <point x="225" y="0"/>
      <point x="199" y="0" type="curve" smooth="yes"/>
      <point x="91" y="0" type="line" smooth="yes"/>
      <point x="56" y="0"/>
      <point x="43" y="20"/>
      <point x="54" y="52" type="curve" smooth="yes"/>
      <point x="283" y="704" type="line" smooth="yes"/>
      <point x="292" y="728"/>
      <point x="309" y="740"/>
      <point x="334" y="740" type="curve" smooth="yes"/>
    </contour>
    <contour>
      <point x="328" y="292" type="line"/>
      <point x="460" y="292" type="line"/>
      <point x="391" y="497" type="line"/>
    </contour>
    <contour>
      <point x="258" y="802"/>
      <point x="229" y="831"/>
      <point x="229" y="867" type="curve" smooth="yes"/>
      <point x="229" y="903"/>
      <point x="258" y="932"/>
      <point x="293" y="932" type="curve" smooth="yes"/>
      <point x="329" y="932"/>
      <point x="358" y="903"/>
      <point x="358" y="867" type="curve" smooth="yes"/>
      <point x="358" y="831"/>
      <point x="329" y="802"/>
      <point x="293" y="802" type="curve" smooth="yes"/>
    </contour>
    <contour>
      <point x="451" y="802"/>
      <point x="422" y="831"/>
      <point x="422" y="867" type="curve" smooth="yes"/>
      <point x="422" y="903"/>
      <point x="451" y="932"/>
      <point x="486" y="932" type="curve" smooth="yes"/>
      <point x="522" y="932"/>
      <point x="551" y="903"/>
      <point x="551" y="867" type="curve" smooth="yes"/>
      <point x="551" y="831"/>
      <point x="522" y="802"/>
      <point x="486" y="802" type="curve" smooth="yes"/>
    </contour>
  </outline>
</glyph>
<glyph name="aacute" format="1">
  <advance width="824"/>
  <unicode hex="00E1"/>
  <outline>
    <contour>
      <point x="448" y="740" type="line" smooth="yes"/>
      <point x="473" y="740"/>
      <point x="491" y="728"/>
      <point x="500" y="704" type="curve" smooth="yes"/>
      <point x="728" y="52" type="line" smooth="yes"/>
      <point x="739" y="20"/>
      <point x="726" y="0"/>
      <point x="691" y="0" type="curve" smooth="yes"/>
      <point x="584" y="0" type="line" smooth="yes"/>
      <point x="558" y="0"/>
      <point x="541" y="12"/>
      <point x="533" y="37" type="curve" smooth="yes"/>
      <point x="502" y="128" type="line"/>
      <point x="282" y="128" type="line"/>
      <point x="251" y="37" type="line" smooth="yes"/>
      <point x="242" y="12"/>
      <point x="225" y="0"/>
      <point x="199" y="0" type="curve" smooth="yes"/>
      <point x="91" y="0" type="line" smooth="yes"/>
      <point x="56" y="0"/>
      <point x="43" y="20"/>
      <point x="54" y="52" type="curve" smooth="yes"/>
      <point x="283" y="704" type="line" smooth="yes"/>
      <point x="292" y="728"/>
      <point x="309" y="740"/>
      <point x="334" y="740" type="curve" smooth="yes"/>
    </contour>
    <contour>
      <point x="328" y="292" type="line"/>
      <point x="460" y="292" type="line"/>
      <point x="391" y="497" type="line"/>
    </contour>
    <contour>
      <point x="509" y="983"/>
      <point x="561" y="900"/>
      <point x="488" y="852" type="curve" smooth="yes"/>
      <point x="457" y="832"/>
      <point x="421" y="814"/>
      <point x="392" y="805" type="curve" smooth="yes"/>
      <point x="377" y="800"/>
      <point x="364" y="798"/>
      <point x="353" y="798" type="curve" smooth="yes"/>
      <point x="330" y="798"/>
      <point x="322" y="811"/>
      <point x="331" y="831" type="curve"/>
      <point x="339" y="851"/>
      <point x="360" y="876"/>
      <point x="389" y="901" type="curve" smooth="yes"/>
      <point x="403" y="913"/>
      <point x="418" y="924"/>
      <point x="434" y="935" type="curve" smooth="yes"/>
    </contour>
  </outline>
</glyph>
<glyph name="acircumflex" format="1">
  <advance width="824"/>
  <unicode hex="00E2"/>
  <outline>
    <contour>
      <point x="448" y="740" type="line" smooth="yes"/>
      <point x="473" y="740"/>
      <point x="491" y="728"/>
      <point x="500" y="704" type="curve" smooth="yes"/>
      <point x="728" y="52" type="line" smooth="yes"/>
      <point x="739" y="20"/>
      <point x="726" y="0"/>
      <point x="691" y="0" type="curve" smooth="yes"/>
      <point x="584" y="0" type="line" smooth="yes"/>
      <point x="558" y="0"/>
      <point x="541" y="12"/>
      <point x="533" y="37" type="curve" smooth="yes"/>
      <point x="502" y="128" type="line"/>
      <point x="282" y="128" type="line"/>
      <point x="251" y="37" type="line" smooth="yes"/>
      <point x="242" y="12"/>
      <point x="225" y="0"/>
      <point x="199" y="0" type="curve" smooth="yes"/>
      <point x="91" y="0" type="line" smooth="yes"/>
      <point x="56" y="0"/>
      <point x="43" y="20"/>
      <point x="54" y="52" type="curve" smooth="yes"/>
      <point x="283" y="704" type="line" smooth="yes"/>
      <point x="292" y="728"/>
      <point x="309" y="740"/>
      <point x="334" y="740" type="curve" smooth="yes"/>
    </contour>
    <contour>
      <point x="328" y="292" type="line"/>
      <point x="460" y="292" type="line"/>
      <point x="391" y="497" type="line"/>
    </contour>
    <contour>
      <point x="350" y="820" type="line" smooth="yes"/>
      <point x="338" y="806"/>
      <point x="323" y="799"/>
      <point x="304" y="799" type="curve" smooth="yes"/>
      <point x="289" y="799" type="line" smooth="yes"/>
      <point x="258" y="799"/>
      <point x="248" y="820"/>
      <point x="268" y="845" type="curve" smooth="yes"/>
      <point x="343" y="938" type="line" smooth="yes"/>
      <point x="355" y="952"/>
      <point x="370" y="959"/>
      <point x="389" y="959" type="curve" smooth="yes"/>
      <point x="391" y="959" type="line" smooth="yes"/>
      <point x="410" y="959"/>
      <point x="425" y="952"/>
      <point x="436" y="938" type="curve" smooth="yes"/>
      <point x="511" y="845" type="line" smooth="yes"/>
      <point x="532" y="820"/>
      <point x="522" y="799"/>
      <point x="490" y="799" type="curve" smooth="yes"/>
      <point x="476" y="799" type="line" smooth="yes"/>
      <point x="457" y="799"/>
      <point x="441" y="806"/>
      <point x="429" y="820" type="curve" smooth="yes"/>
      <point x="390" y="867" type="line"/>
    </contour>
  </outline>
</glyph>
<glyph name="adieresis" format="1">
  <advance width="824"/>
  <unicode hex="00E4"/>
  <outline>
    <contour>
      <point x="448" y="740" type="line" smooth="yes"/>
      <point x="473" y="740"/>
      <point x="491" y="728"/>
      <point x="500" y="704" type="curve" smooth="yes"/>
      <point x="728" y="52" type="line" smooth="yes"/>
      <point x="739" y="20"/>
      <point x="726" y="0"/>
      <point x="691" y="0" type="curve" smooth="yes"/>
      <point x="584" y="0" type="line" smooth="yes"/>
      <point x="558" y="0"/>
      <point x="541" y="12"/>
      <point x="533" y="37" type="curve" smooth="yes"/>
      <point x="502" y="128" type="line"/>
      <point x="282" y="128" type="line"/>
      <point x="251" y="37" type="line" smooth="yes"/>
      <point x="242" y="12"/>
      <point x="225" y="0"/>
      <point x="199" y="0" type="curve" smooth="yes"/>
      <point x="91" y="0" type="line" smooth="yes"/>
      <point x="56" y="0"/>
      <point x="43" y="20"/>
      <point x="54" y="52" type="curve" smooth="yes"/>
      <point x="283" y="704" type="line" smooth="yes"/>
      <point x="292" y="728"/>
      <point x="309" y="740"/>
      <point x="334" y="740" type="curve" smooth="yes"/>
    </contour>
    <contour>
      <point x="328" y="292" type="line"/>
      <point x="460" y="292" type="line"/>
      <point x="391" y="497" type="line"/>
    </contour>
    <contour>
      <point x="367" y="914"/>
      <point x="397" y="888"/>
      <point x="417" y="864" type="curve" smooth="yes"/>
      <point x="437" y="840"/>
      <point x="447" y="819"/>
      <point x="439" y="807" type="curve" smooth="yes"/>
      <point x="435" y="801"/>
      <point x="427" y="798"/>
      <point x="416" y="798" type="curve" smooth="yes"/>
      <point x="393" y="798"/>
      <point x="364" y="808"/>
      <point x="330" y="825" type="curve" smooth="yes"/>
      <point x="296" y="841"/>
      <point x="217" y="874"/>
      <point x="253" y="930" type="curve" smooth="yes"/>
      <point x="270" y="957"/>
      <point x="298" y="959"/>
      <point x="335" y="935" type="curve" smooth="yes"/>
    </contour>
  </outline>
</glyph>
<glyph name="aring" format="1">
  <advance width="824"/>
  <unicode hex="00E5"/>
  <outline>
    <contour>
      <point x="448" y="740" type="line" smooth="yes"/>
      <point x="473" y="740"/>
      <point x="491" y="728"/>
      <point x="500" y="704" type="curve" smooth="yes"/>
      <point x="728" y="52" type="line" smooth="yes"/>
      <point x="739" y="20"/>
      <point x="726" y="0"/>
      <point x="691" y="0" type="curve" smooth="yes"/>
      <point x="584" y="0" type="line" smooth="yes"/>
      <point x="558" y="0"/>
      <point x="541" y="12"/>
      <point x="533" y="37" type="curve" smooth="yes"/>
      <point x="502" y="128" type="line"/>
      <point x="282" y="128" type="line"/>
      <point x="251" y="37" type="line" smooth="yes"/>
      <point x="242" y="12"/>
      <point x="225" y="0"/>
      <point x="199" y="0" type="curve" smooth="yes"/>
      <point x="91" y="0" type="line" smooth="yes"/>
      <point x="56" y="0"/>
      <point x="43" y="20"/>
      <point x="54" y="52" type="curve" smooth="yes"/>
      <point x="283" y="704" type="line" smooth="yes"/>
      <point x="292" y="728"/>
      <point x="309" y="740"/>
      <point x="334" y="740" type="curve" smooth="yes"/>
    </contour>
    <contour>
      <point x="328" y="292" type="line"/>
      <point x="460" y="292" type="line"/>
      <point x="391" y="497" type="line"/>
    </contour>
    <contour>
      <point x="345" y="796"/>
      <point x="311" y="830"/>
      <point x="311" y="871" type="curve" smooth="yes"/>
      <point x="311" y="915"/>
      <point x="345" y="949"/>
      <point x="388" y="949" type="curve" smooth="yes"/>
      <point x="432" y="949"/>
      <point x="466" y="915"/>
      <point x="466" y="871" type="curve" smooth="yes"/>
      <point x="466" y="830"/>
      <point x="432" y="796"/>
      <point x="388" y="796" type="curve" smooth="yes"/>
    </contour>
    <contour>
      <point x="372" y="902"/>
      <point x="357" y="888"/>
      <point x="357" y="871" type="curve" smooth="yes"/>
      <point x="357" y="855"/>
      <point x="372" y="841"/>
      <point x="388" y="841" type="curve" smooth="yes"/>
      <point x="405" y="841"/>
      <point x="419" y="855"/>
      <point x="419" y="871" type="curve" smooth="yes"/>
      <point x="419" y="888"/>
      <point x="405" y="902"/>
      <point x="388" y="902" type="curve" smooth="yes"/>
    </contour>
  </outline>
</glyph>
<glyph name="egrave" format="1">
  <advance width="693"/>
  <unicode hex="00E8"/>
  <outline>
    <contour>
      <point x="559" y="45" type="line" smooth="yes"/>
      <point x="559" y="15"/>
      <point x="544" y="0"/>
      <point x="514" y="0" type="curve" smooth="yes"/>
      <point x="85" y="0" type="line" smooth="yes"/>
      <point x="55" y="0"/>
      <point x="40" y="15"/>
      <point x="40" y="45" type="curve" smooth="yes"/>
      <point x="40" y="695" type="line" smooth="yes"/>
      <point x="40" y="725"/>
      <point x="55" y="740"/>
      <point x="85" y="740" type="curve" smooth="yes"/>
      <point x="514" y="740" type="line" smooth="yes"/>
      <point x="544" y="740"/>
      <point x="559" y="725"/>
      <point x="559" y="695" type="curve" smooth="yes"/>
      <point x="559" y="596" type="line" smooth="yes"/>
      <point x="559" y="566"/>
      <point x="544" y="551"/>
      <point x="514" y="551" type="curve" smooth="yes"/>
      <point x="229" y="551" type="line"/>
      <point x="229" y="458" type="line"/>
      <point x="439" y="458" type="line" smooth="yes"/>
      <point x="469" y="458"/>
      <point x="484" y="443"/>
      <point x="484" y="413" type="curve" smooth="yes"/>
      <point x="484" y="328" type="line" smooth="yes"/>
      <point x="484" y="298"/>
      <point x="469" y="283"/>
      <point x="439" y="283" type="curve" smooth="yes"/>
      <point x="229" y="283" type="line"/>
      <point x="229" y="189" type="line"/>
      <point x="514" y="189" type="line" smooth="yes"/>
      <point x="544" y="189"/>
      <point x="559" y="174"/>
      <point x="559" y="144" type="curve" smooth="yes"/>
    </contour>
    <contour>
      <point x="276" y="914"/>
      <point x="306" y="888"/>
      <point x="326" y="864" type="curve" smooth="yes"/>
      <point x="346" y="840"/>
      <point x="356" y="819"/>
      <point x="348" y="807" type="curve" smooth="yes"/>
      <point x="344" y="801"/>
      <point x="336" y="798"/>
      <point x="325" y="798" type="curve" smooth="yes"/>
      <point x="302" y="798"/>
      <point x="273" y="808"/>
      <point x="239" y="825" type="curve" smooth="yes"/>
      <point x="205" y="841"/>
      <point x="126" y="874"/>
      <point x="162" y="930" type="curve" smooth="yes"/>
      <point x="179" y="957"/>
      <point x="207" y="959"/>
      <point x="244" y="935" type="curve" smooth="yes"/>
    </contour>
  </outline>
</glyph>
<glyph name="iacute" format="1">
  <advance width="348"/>
  <unicode hex="00ED"/>
  <outline>
    <contour>
      <point x="184" y="740" type="line" smooth="yes"/>
      <point x="214" y="740"/>
      <point x="229" y="725"/>
      <point x="229" y="695" type="curve" smooth="yes"/>
      <point x="229" y="45" type="line" smooth="yes"/>
      <point x="229" y="15"/>
      <point x="214" y="0"/>
      <point x="184" y="0" type="curve" smooth="yes"/>
      <point x="85" y="0" type="line" smooth="yes"/>
      <point x="55" y="0"/>
      <point x="40" y="15"/>
      <point x="40" y="45" type="curve" smooth="yes"/>
      <point x="40" y="695" type="line" smooth="yes"/>
      <point x="40" y="725"/>
      <point x="55" y="740"/>
      <point x="85" y="740" type="curve" smooth="yes"/>
    </contour>
    <contour>
      <point x="234" y="983"/>
      <point x="286" y="900"/>
      <point x="213" y="852" type="curve" smooth="yes"/>
      <point x="182" y="832"/>
      <point x="146" y="814"/>
      <point x="117" y="805" type="curve" smooth="yes"/>
      <point x="102" y="800"/>
      <point x="89" y="798"/>
      <point x="78" y="798" type="curve" smooth="yes"/>
      <point x="55" y="798"/>
      <point x="47" y="811"/>
      <point x="56" y="831" type="curve"/>
      <point x="64" y="851"/>
      <point x="85" y="876"/>
      <point x="114" y="901" type="curve" smooth="yes"/>
      <point x="128" y="913"/>
      <point x="143" y="924"/>
      <point x="159" y="935" type="curve" smooth="yes"/>
    </contour>
  </outline>
</glyph>
<glyph name="icircumflex" format="1">
  <advance width="348"/>
  <unicode hex="00EE"/>
  <outline>
    <contour>
      <point x="184" y="740" type="line" smooth="yes"/>
      <point x="214" y="740"/>
      <point x="229" y="725"/>
      <point x="229" y="695" type="curve" smooth="yes"/>
      <point x="229" y="45" type="line" smooth="yes"/>
      <point x="229" y="15"/>
      <point x="214" y="0"/>
      <point x="184" y="0" type="curve" smooth="yes"/>
      <point x="85" y="0" type="line" smooth="yes"/>
      <point x="55" y="0"/>
      <point x="40" y="15"/>
      <point x="40" y="45" type="curve" smooth="yes"/>
      <point x="40" y="695" type="line" smooth="yes"/>
      <point x="40" y="725"/>
      <point x="55" y="740"/>
      <point x="85" y="740" type="curve" smooth="yes"/>
    </contour>
    <contour>
      <point x="93" y="820" type="line" smooth="yes"/>
      <point x="81" y="806"/>
      <point x="66" y="799"/>
      <point x="47" y="799" type="curve" smooth="yes"/>
      <point x="32" y="799" type="line" smooth="yes"/>
      <point x="1" y="799"/>
      <point x="-9" y="820"/>
      <point x="11" y="845" type="curve" smooth="yes"/>
      <point x="86" y="938" type="line" smooth="yes"/>
      <point x="98" y="952"/>
      <point x="113" y="959"/>
      <point x="132" y="959" type="curve" smooth="yes"/>
      <point x="134" y="959" type="line" smooth="yes"/>
      <point x="153" y="959"/>
      <point x="168" y="952"/>
      <point x="179" y="938" type="curve" smooth="yes"/>
      <point x="254" y="845" type="line" smooth="yes"/>
      <point x="275" y="820"/>
      <point x="265" y="799"/>
      <point x="233" y="799" type="curve" smooth="yes"/>
      <point x="219" y="799" type="line" smooth="yes"/>
      <point x="200" y="799"/>
      <point x="184" y="806"/>
      <point x="172" y="820" type="curve" smooth="yes"/>
      <point x="133" y="867" type="line"/>
    </contour>
  </outline>
</glyph>
<glyph name="idieresis" format="1">
  <advance width="348"/>
  <unicode hex="00EF"/>
  <outline>
    <contour>
      <point x="184" y="740" type="line" smooth="yes"/>
      <point x="214" y="740"/>
      <point x="229" y="725"/>
      <point x="229" y="695" type="curve" smooth="yes"/>
      <point x="229" y="45" type="line" smooth="yes"/>
      <point x="229" y="15"/>
      <point x="214" y="0"/>
      <point x="184" y="0" type="curve" smooth="yes"/>
      <point x="85" y="0" type="line" smooth="yes"/>
      <point x="55" y="0"/>
      <point x="40" y="15"/>
      <point x="40" y="45" type="curve" smooth="yes"/>
      <point x="40" y="695" type="line" smooth="yes"/>
      <point x="40" y="725"/>
      <point x="55" y="740"/>
      <point x="85" y="740" type="curve" smooth="yes"/>
    </contour>
    <contour>
      <point x="-2" y="802"/>
      <point x="-31" y="831"/>
      <point x="-31" y="867" type="curve" smooth="yes"/>
      <point x="-31" y="903"/>
      <point x="-2" y="932"/>
      <point x="33" y="932" type="curve" smooth="yes"/>
      <point x="69" y="932"/>
      <point x="98" y="903"/>
      <point x="98" y="867" type="curve" smooth="yes"/>
      <point x="98" y="831"/>
      <point x="69" y="802"/>
      <point x="33" y="802" type="curve" smooth="yes"/>
    </contour>
    <contour>
      <point x="191" y="802"/>
      <point x="162" y="831"/>
      <point x="162" y="867" type="curve" smooth="yes"/>
      <point x="162" y="903"/>
      <point x="191" y="932"/>
      <point x="226" y="932" type="curve" smooth="yes"/>
      <point x="262" y="932"/>
      <point x="291" y="903"/>
      <point x="291" y="867" type="curve" smooth="yes"/>
      <point x="291" y="831"/>
      <point x="262" y="802"/>
      <point x="226" y="802" type="curve" smooth="yes"/>
    </contour>
  </outline>
</glyph>
<glyph name="ntilde" format="1">
  <advance width="777"/>
  <unicode hex="00F1"/>
  <outline>
    <contour>
      <point x="85" y="0" type="line" smooth="yes"/>
      <point x="55" y="0"/>
      <point x="40" y="15"/>
      <point x="40" y="45" type="curve" smooth="yes"/>
      <point x="40" y="695" type="line" smooth="yes"/>
      <point x="40" y="725"/>
      <point x="55" y="740"/>
      <point x="85" y="740" type="curve" smooth="yes"/>
      <point x="171" y="740" type="line" smooth="yes"/>
      <point x="194" y="740"/>
      <point x="213" y="730"/>
      <point x="226" y="711" type="curve" smooth="yes"/>
      <point x="457" y="376" type="line"/>
      <point x="457" y="695" type="line" smooth="yes"/>
      <point x="457" y="725"/>
      <point x="472" y="740"/>
      <point x="502" y="740" type="curve" smooth="yes"/>
      <point x="601" y="740" type="line" smooth="yes"/>
      <point x="631" y="740"/>
      <point x="646" y="725"/>
      <point x="646" y="695" type="curve" smooth="yes"/>
      <point x="646" y="45" type="line" smooth="yes"/>
      <point x="646" y="15"/>
      <point x="631" y="0"/>
      <point x="601" y="0" type="curve" smooth="yes"/>
      <point x="515" y="0" type="line" smooth="yes"/>
      <point x="492" y="0"/>
      <point x="473" y="10"/>
      <point x="460" y="29" type="curve" smooth="yes"/>
      <point x="229" y="367" type="line"/>
      <point x="229" y="45" type="line" smooth="yes"/>
      <point x="229" y="15"/>
      <point x="214" y="0"/>
      <point x="184" y="0" type="curve" smooth="yes"/>
    </contour>
    <contour>
      <point x="287" y="845"/>
      <point x="276" y="851"/>
      <point x="256" y="856" type="curve" smooth="yes"/>
      <point x="227" y="863"/>
      <point x="207" y="846"/>
      <point x="190" y="831" type="curve" smooth="yes"/>
      <point x="173" y="815"/>
      <point x="158" y="800"/>
      <point x="138" y="811" type="curve" smooth="yes"/>
      <point x="117" y="823"/>
      <point x="123" y="846"/>
      <point x="131" y="862" type="curve" smooth="yes"/>
      <point x="152" y="906"/>
      <point x="187" y="929"/>
      <point x="227" y="934" type="curve" smooth="yes"/>
      <point x="266" y="939"/>
      <point x="310" y="926"/>
      <point x="350" y="898" type="curve" smooth="yes"/>
      <point x="369" y="885"/>
      <point x="379" y="881"/>
      <point x="399" y="874" type="curve"/>
      <point x="428" y="867"/>
      <point x="448" y="884"/>
      <point x="465" y="900" type="curve" smooth="yes"/>
      <point x="481" y="915"/>
      <point x="497" y="930"/>
      <point x="517" y="919" type="curve" smooth="yes"/>
      <point x="538" y="907"/>
      <point x="532" y="885"/>
      <point x="525" y="869" type="curve"/>
      <point x="502" y="824"/>
      <point x="468" y="800"/>
      <point x="429" y="796" type="curve" smooth="yes"/>
      <point x="389" y="791"/>
      <point x="345" y="804"/>
      <point x="306" y="832" type="curve" smooth="yes"/>
    </contour>
  </outline>
</glyph>
<glyph name="oacute" format="1">
  <advance width="913"/>
  <unicode hex="00F3"/>
  <outline>
    <contour>
      <point x="321" y="-18"/>
      <point x="225" y="26"/>
      <point x="154" y="96" type="curve" smooth="yes"/>
      <point x="83" y="166"/>
      <point x="40" y="263"/>
      <point x="40" y="370" type="curve" smooth="yes"/>
      <point x="40" y="478"/>
      <point x="83" y="574"/>
      <point x="154" y="645" type="curve" smooth="yes"/>
      <point x="225" y="716"/>
      <point x="321" y="759"/>
      <point x="429" y="759" type="curve" smooth="yes"/>
      <point x="536" y="759"/>
      <point x="633" y="716"/>
      <point x="704" y="645" type="curve" smooth="yes"/>
      <point x="775" y="574"/>
      <point x="818" y="478"/>
      <point x="818" y="370" type="curve" smooth="yes"/>
      <point x="818" y="263"/>
      <point x="775" y="166"/>
      <point x="704" y="96" type="curve" smooth="yes"/>
      <point x="633" y="26"/>
      <point x="536" y="-18"/>
      <point x="429" y="-18" type="curve" smooth="yes"/>
    </contour>
    <contour>
      <point x="374" y="570"/>
      <point x="324" y="547"/>
      <point x="288" y="511" type="curve" smooth="yes"/>
      <point x="252" y="475"/>
      <point x="229" y="425"/>
      <point x="229" y="370" type="curve" smooth="yes"/>
      <point x="229" y="315"/>
      <point x="252" y="265"/>
      <point x="288" y="229" type="curve" smooth="yes"/>
      <point x="324" y="193"/>
      <point x="374" y="171"/>
      <point x="429" y="171" type="curve" smooth="yes"/>
      <point x="484" y="171"/>
      <point x="534" y="193"/>
      <point x="570" y="229" type="curve" smooth="yes"/>
      <point x="606" y="265"/>
      <point x="628" y="315"/>
      <point x="628" y="370" type="curve" smooth="yes"/>
      <point x="628" y="425"/>
      <point x="606" y="475"/>
      <point x="570" y="511" type="curve" smooth="yes"/>
      <point x="534" y="547"/>
      <point x="484" y="570"/>
      <point x="429" y="570" type="curve" smooth="yes"/>
    </contour>
    <contour>
      <point x="541" y="983"/>
      <point x="593" y="900"/>
      <point x="520" y="852" type="curve" smooth="yes"/>
      <point x="489" y="832"/>
      <point x="453" y="814"/>
      <point x="424" y="805" type="curve" smooth="yes"/>
      <point x="409" y="800"/>
      <point x="396" y="798"/>
      <point x="385" y="798" type="curve" smooth="yes"/>
      <point x="362" y="798"/>
      <point x="354" y="811"/>
      <point x="363" y="831" type="curve"/>
      <point x="371" y="851"/>
      <point x="392" y="876"/>
      <point x="421" y="901" type="curve" smooth="yes"/>
      <point x="435" y="913"/>
      <point x="450" y="924"/>
      <point x="466" y="935" type="curve" smooth="yes"/>
    </contour>
  </outline>
</glyph>
<glyph name="ocircumflex" format="1">
  <advance width="913"/>
  <unicode hex="00F4"/>
  <outline>
    <contour>
      <point x="321" y="-18"/>
      <point x="225" y="26"/>
      <point x="154" y="96" type="curve" smooth="yes"/>
      <point x="83" y="166"/>
      <point x="40" y="263"/>
      <point x="40" y="370" type="curve" smooth="yes"/>
      <point x="40" y="478"/>
      <point x="83" y="574"/>
      <point x="154" y="645" type="curve" smooth="yes"/>
      <point x="225" y="716"/>
      <point x="321" y="759"/>
      <point x="429" y="759" type="curve" smooth="yes"/>
      <point x="536" y="759"/>
      <point x="633" y="716"/>
      <point x="704" y="645" type="curve" smooth="yes"/>
      <point x="775" y="574"/>
      <point x="818" y="478"/>
      <point x="818" y="370" type="curve" smooth="yes"/>
      <point x="818" y="263"/>
      <point x="775" y="166"/>
      <point x="704" y="96" type="curve" smooth="yes"/>
      <point x="633" y="26"/>
      <point x="536" y="-18"/>
      <point x="429" y="-18" type="curve" smooth="yes"/>
    </contour>
    <contour>
      <point x="374" y="570"/>
      <point x="324" y="547"/>
      <point x="288" y="511" type="curve" smooth="yes"/>
      <point x="252" y="475"/>
      <point x="229" y="425"/>
      <point x="229" y="370" type="curve" smooth="yes"/>
      <point x="229" y="315"/>
      <point x="252" y="265"/>
      <point x="288" y="229" type="curve" smooth="yes"/>
      <point x="324" y="193"/>
      <point x="374" y="171"/>
      <point x="429" y="171" type="curve" smooth="yes"/>
      <point x="484" y="171"/>
      <point x="534" y="193"/>
      <point x="570" y="229" type="curve" smooth="yes"/>
      <point x="606" y="265"/>
      <point x="628" y="315"/>
      <point x="628" y="370" type="curve" smooth="yes"/>
      <point x="628" y="425"/>
      <point x="606" y="475"/>
      <point x="570" y="511" type="curve" smooth="yes"/>
      <point x="534" y="547"/>
      <point x="484" y="570"/>
      <point x="429" y="570" type="curve" smooth="yes"/>
    </contour>
    <contour>
      <point x="383" y="820" type="line" smooth="yes"/>
      <point x="371" y="806"/>
      <point x="356" y="799"/>
      <point x="337" y="799" type="curve" smooth="yes"/>
      <point x="322" y="799" type="line" smooth="yes"/>
      <point x="291" y="799"/>
      <point x="281" y="820"/>
      <point x="301" y="845" type="curve" smooth="yes"/>
      <point x="376" y="938" type="line" smooth="yes"/>
      <point x="388" y="952"/>
      <point x="403" y="959"/>
      <point x="422" y="959" type="curve" smooth="yes"/>
      <point x="424" y="959" type="line" smooth="yes"/>
      <point x="443" y="959"/>
      <point x="458" y="952"/>
      <point x="469" y="938" type="curve" smooth="yes"/>
      <point x="544" y="845" type="line" smooth="yes"/>
      <point x="565" y="820"/>
      <point x="555" y="799"/>
      <point x="523" y="799" type="curve" smooth="yes"/>
      <point x="509" y="799" type="line" smooth="yes"/>
      <point x="490" y="799"/>
      <point x="474" y="806"/>
      <point x="462" y="820" type="curve" smooth="yes"/>
      <point x="423" y="867" type="line"/>
    </contour>
  </outline>
</glyph>
<glyph name="ucircumflex" format="1">
  <advance width="846"/>
  <unicode hex="00FB"/>
  <outline>
    <contour>
      <point x="726" y="347" type="line" smooth="yes"/>
      <point x="725" y="255"/>
      <point x="691" y="163"/>
      <point x="632" y="95" type="curve" smooth="yes"/>
      <point x="572" y="27"/>
      <point x="487" y="-18"/>
      <point x="383" y="-18" type="curve" smooth="yes"/>
      <point x="283" y="-18"/>
      <point x="198" y="23"/>
      <point x="138" y="90" type="curve" smooth="yes"/>
      <point x="78" y="157"/>
      <point x="43" y="248"/>
      <point x="40" y="347" type="curve"/>
      <point x="40" y="695" type="line" smooth="yes"/>
      <point x="40" y="725"/>
      <point x="55" y="740"/>
      <point x="85" y="740" type="curve" smooth="yes"/>
      <point x="184" y="740" type="line" smooth="yes"/>
      <point x="214" y="740"/>
      <point x="229" y="725"/>
      <point x="229" y="695" type="curve" smooth="yes"/>
      <point x="229" y="347" type="line" smooth="yes"/>
      <point x="229" y="295"/>
      <point x="246" y="250"/>
      <point x="274" y="218" type="curve" smooth="yes"/>
      <point x="302" y="185"/>
      <point x="340" y="166"/>
      <point x="383" y="166" type="curve" smooth="yes"/>
      <point x="424" y="166"/>
      <point x="463" y="185"/>
      <point x="491" y="218" type="curve" smooth="yes"/>
      <point x="519" y="250"/>
      <point x="536" y="295"/>
      <point x="536" y="347" type="curve" smooth="yes"/>
      <point x="536" y="695" type="line" smooth="yes"/>
      <point x="536" y="725"/>
      <point x="551" y="740"/>
      <point x="581" y="740" type="curve" smooth="yes"/>
      <point x="681" y="740" type="line" smooth="yes"/>
      <point x="711" y="740"/>
      <point x="726" y="725"/>
      <point x="726" y="695" type="curve" smooth="yes"/>
    </contour>
    <contour>
      <point x="337" y="820" type="line" smooth="yes"/>
      <point x="325" y="806"/>
      <point x="310" y="799"/>
      <point x="291" y="799" type="curve" smooth="yes"/>
      <point x="276" y="799" type="line" smooth="yes"/>
      <point x="245" y="799"/>
      <point x="235" y="820"/>
      <point x="255" y="845" type="curve" smooth="yes"/>
      <point x="330" y="938" type="line" smooth="yes"/>
      <point x="342" y="952"/>
      <point x="357" y="959"/>
      <point x="376" y="959" type="curve" smooth="yes"/>
      <point x="378" y="959" type="line" smooth="yes"/>
      <point x="397" y="959"/>
      <point x="412" y="952"/>
      <point x="423" y="938" type="curve" smooth="yes"/>
      <point x="498" y="845" type="line" smooth="yes"/>
      <point x="519" y="820"/>
      <point x="509" y="799"/>
      <point x="477" y="799" type="curve" smooth="yes"/>
      <point x="463" y="799" type="line" smooth="yes"/>
      <point x="444" y="799"/>
      <point x="428" y="806"/>
      <point x="416" y="820" type="curve" smooth="yes"/>
      <point x="377" y="867" type="line"/>
    </contour>
  </outline>
</glyph>
